<svg width="12" height="12" viewBox="0 0 12 12" fill="none" xmlns="http://www.w3.org/2000/svg">
<path d="M6 12C5.17 12 4.39 11.8424 3.66 11.5272C2.93 11.212 2.295 10.7846 1.755 10.245C1.215 9.7054 0.7876 9.0704 0.4728 8.34C0.158001 7.6096 0.000400759 6.8296 7.59493e-07 6C-0.00039924 5.1704 0.157201 4.3904 0.4728 3.66C0.7884 2.9296 1.2158 2.2946 1.755 1.755C2.2942 1.2154 2.9292 0.788 3.66 0.4728C4.3908 0.1576 5.1708 0 6 0C6.8292 0 7.6092 0.1576 8.33999 0.4728C9.07079 0.788 9.7058 1.2154 10.245 1.755C10.7842 2.2946 11.2118 2.9296 11.5278 3.66C11.8438 4.3904 12.0012 5.1704 12 6C11.9988 6.8296 11.8412 7.6096 11.5272 8.34C11.2132 9.0704 10.7858 9.7054 10.245 10.245C9.7042 10.7846 9.06919 11.2122 8.33999 11.5278C7.6108 11.8434 6.8308 12.0008 6 12ZM6 10.8C7.34 10.8 8.47499 10.335 9.40499 9.405C10.335 8.475 10.8 7.34 10.8 6C10.8 5.36 10.68 4.745 10.44 4.155C10.2 3.565 9.85499 3.045 9.40499 2.595L6 6V1.2C4.66 1.2 3.525 1.665 2.595 2.595C1.665 3.525 1.2 4.66 1.2 6C1.2 7.34 1.665 8.475 2.595 9.405C3.525 10.335 4.66 10.8 6 10.8Z" fill="currentColor"/>
</svg>
