<svg width="89" height="106" viewBox="0 0 89 106" fill="none" xmlns="http://www.w3.org/2000/svg">
<g filter="url(#filter0_d_1169_8120)">
<rect y="14" width="73" height="77" fill="white"/>
<path d="M0 15C0 10.5817 3.58172 7 8 7H65C69.4183 7 73 10.5817 73 15V20H0V15Z" fill="currentColor"/>
<path d="M16 69.3332V64.4868H20.8463V69.3332H16ZM27.3073 69.3332V64.4868H58V69.3332H27.3073ZM16 55.4218V50.5755H20.8463V55.4218H16ZM27.3073 55.4218V50.5755H58V55.4242L27.3073 55.4218ZM16 41.5128V36.6665H20.8463V41.5128H16ZM27.3073 41.5128V36.6665H58V41.5128H27.3073Z" fill="currentColor"/>
<rect x="61" width="12" height="4" rx="2" transform="rotate(90 61 0)" fill="#616161"/>
<rect x="46" width="12" height="4" rx="2" transform="rotate(90 46 0)" fill="#616161"/>
<rect x="31" width="12" height="4" rx="2" transform="rotate(90 31 0)" fill="#616161"/>
<rect x="16" width="12" height="4" rx="2" transform="rotate(90 16 0)" fill="#616161"/>
</g>
<g filter="url(#filter1_d_1169_8120)">
<circle cx="65.5" cy="82.5" r="19.5" fill="currentColor"/>
</g>
<path d="M61.1785 75.5842C61.0105 75.4039 60.8078 75.2592 60.5827 75.1589C60.3575 75.0586 60.1144 75.0046 59.868 75.0003C59.6215 74.9959 59.3767 75.0413 59.1481 75.1336C58.9196 75.2259 58.7119 75.3633 58.5376 75.5376C58.3633 75.7119 58.2259 75.9196 58.1336 76.1481C58.0413 76.3767 57.9959 76.6215 58.0003 76.868C58.0046 77.1144 58.0586 77.3575 58.1589 77.5827C58.2592 77.8078 58.4039 78.0105 58.5842 78.1785L63.4057 83L58.5842 87.8215C58.4039 87.9895 58.2592 88.1922 58.1589 88.4173C58.0586 88.6425 58.0046 88.8856 58.0003 89.132C57.9959 89.3785 58.0413 89.6233 58.1336 89.8519C58.2259 90.0804 58.3633 90.2881 58.5376 90.4624C58.7119 90.6367 58.9196 90.7741 59.1481 90.8664C59.3767 90.9587 59.6215 91.0041 59.868 90.9997C60.1144 90.9954 60.3575 90.9414 60.5827 90.8411C60.8078 90.7408 61.0105 90.5961 61.1785 90.4158L66 85.5943L70.8215 90.4158C71.1694 90.74 71.6297 90.9165 72.1052 90.9081C72.5808 90.8997 73.0345 90.7071 73.3708 90.3708C73.7071 90.0345 73.8997 89.5808 73.9081 89.1052C73.9165 88.6297 73.74 88.1694 73.4158 87.8215L68.5943 83L73.4158 78.1785C73.5961 78.0105 73.7408 77.8078 73.8411 77.5827C73.9414 77.3575 73.9954 77.1144 73.9997 76.868C74.0041 76.6215 73.9587 76.3767 73.8664 76.1481C73.7741 75.9196 73.6367 75.7119 73.4624 75.5376C73.2881 75.3633 73.0804 75.2259 72.8519 75.1336C72.6233 75.0413 72.3785 74.9959 72.132 75.0003C71.8856 75.0046 71.6425 75.0586 71.4173 75.1589C71.1922 75.2592 70.9895 75.4039 70.8215 75.5842L66 80.4057L61.1785 75.5842Z" fill="white"/>
<defs>
<filter id="filter0_d_1169_8120" x="0" y="0" width="77" height="95" filterUnits="userSpaceOnUse" color-interpolation-filters="sRGB">
<feFlood flood-opacity="0" result="BackgroundImageFix"/>
<feColorMatrix in="SourceAlpha" type="matrix" values="0 0 0 0 0 0 0 0 0 0 0 0 0 0 0 0 0 0 127 0" result="hardAlpha"/>
<feOffset dx="2" dy="2"/>
<feGaussianBlur stdDeviation="1"/>
<feComposite in2="hardAlpha" operator="out"/>
<feColorMatrix type="matrix" values="0 0 0 0 0 0 0 0 0 0 0 0 0 0 0 0 0 0 0.25 0"/>
<feBlend mode="normal" in2="BackgroundImageFix" result="effect1_dropShadow_1169_8120"/>
<feBlend mode="normal" in="SourceGraphic" in2="effect1_dropShadow_1169_8120" result="shape"/>
</filter>
<filter id="filter1_d_1169_8120" x="46" y="63" width="43" height="43" filterUnits="userSpaceOnUse" color-interpolation-filters="sRGB">
<feFlood flood-opacity="0" result="BackgroundImageFix"/>
<feColorMatrix in="SourceAlpha" type="matrix" values="0 0 0 0 0 0 0 0 0 0 0 0 0 0 0 0 0 0 127 0" result="hardAlpha"/>
<feOffset dx="2" dy="2"/>
<feGaussianBlur stdDeviation="1"/>
<feComposite in2="hardAlpha" operator="out"/>
<feColorMatrix type="matrix" values="0 0 0 0 0 0 0 0 0 0 0 0 0 0 0 0 0 0 0.25 0"/>
<feBlend mode="normal" in2="BackgroundImageFix" result="effect1_dropShadow_1169_8120"/>
<feBlend mode="normal" in="SourceGraphic" in2="effect1_dropShadow_1169_8120" result="shape"/>
</filter>
</defs>
</svg>
