<svg width="220" height="114" viewBox="0 0 220 114" fill="none" xmlns="http://www.w3.org/2000/svg">
<path d="M0.634999 84L1.47794 81.0114C3.72579 80.9092 5.51386 80.6027 6.84213 80.0918C8.2215 79.5809 9.29433 78.7635 10.0606 77.6396C10.827 76.5157 11.4911 74.9575 12.0531 72.9651L21.4021 39.4006C21.913 37.5614 22.0918 36.2076 21.9385 35.3391C21.8363 34.4196 21.2233 33.781 20.0993 33.4234C19.0265 33.0147 17.3151 32.7848 14.965 32.7337L15.808 29.7451C16.8808 29.7961 18.3368 29.8472 20.176 29.8983C22.0151 29.9494 24.1353 29.9749 26.5364 29.9749C28.7331 29.9749 30.7766 29.9494 32.6669 29.8983C34.5571 29.8472 36.2175 29.7961 37.6479 29.7451L41.5561 70.7428L39.1805 71.5091L65.1585 29.7451C66.8955 29.8472 68.5303 29.9239 70.0629 29.9749C71.5956 29.9749 73.2304 29.9749 74.9673 29.9749C77.7261 29.9749 80.2549 29.9494 82.5538 29.8983C84.9039 29.8472 86.7941 29.7961 88.2246 29.7451L87.3816 32.7337C84.8783 32.8359 82.9881 33.0657 81.7109 33.4234C80.4337 33.781 79.4886 34.4196 78.8755 35.3391C78.2625 36.2076 77.7005 37.5614 77.1896 39.4006L67.4575 74.3445C66.9466 76.1325 66.7423 77.4863 66.8444 78.4059C66.9977 79.3255 67.6107 79.9641 68.6836 80.3217C69.8075 80.6793 71.5445 80.9092 73.8945 81.0114L73.0516 84C71.57 83.8978 69.6287 83.8467 67.2276 83.8467C64.8776 83.7956 62.221 83.7701 59.2579 83.7701C56.1416 83.7701 53.3829 83.7956 50.9818 83.8467C48.5806 83.8467 46.6904 83.8978 45.311 84L46.154 81.0114C48.504 80.8581 50.2665 80.6027 51.4415 80.2451C52.6676 79.8875 53.5617 79.2744 54.1236 78.4059C54.7367 77.4863 55.2986 76.1325 55.8095 74.3445L66.9977 34.113H65.9248L34.3528 84.4598H31.594L26.7663 35.3391H25.6168L15.1183 73.0417C14.6074 75.0341 14.4286 76.5923 14.5819 77.7162C14.7352 78.8402 15.3737 79.6576 16.4977 80.1684C17.6727 80.6282 19.4097 80.9092 21.7086 81.0114L20.8657 84C19.9461 83.9489 18.6178 83.8978 16.8808 83.8467C15.1439 83.7956 13.2281 83.7701 11.1335 83.7701C8.93672 83.7701 6.91876 83.7956 5.07961 83.8467C3.24046 83.8978 1.75892 83.9489 0.634999 84Z" fill="#FF6200"/>
<path d="M205.524 60.7105C205.328 61.7289 204.961 63.0192 204.641 63.983C204.54 64.292 204.505 64.1198 204.433 64.3225C204.294 64.7166 204.216 65.1398 204.067 65.5257C204.016 65.6569 203.944 65.4548 203.894 65.5932C203.614 66.3626 203.423 67.1054 203.148 67.8777C201.738 71.6765 200.422 75.4851 197.661 78.8513C196.743 79.9164 195.097 81.1834 193.274 81.0188C193.071 81.0019 193.177 81.1237 193.137 81.1281C192.502 81.1588 192.753 80.9755 192.392 80.8364C191.674 80.5245 191.086 80.0766 190.529 79.5523C189.992 79.0433 189.545 78.4932 189.243 77.8606C189 77.2822 189 77.9486 188.929 77.2988C188.927 77.2551 189.077 77.3771 189.048 77.2115C188.966 76.8338 188.939 76.0949 189.006 75.8132C189.124 75.2544 189.153 75.1884 189.342 74.7065C189.611 74.0682 190.088 73.4525 190.516 72.8856C190.602 72.7713 190.388 72.8428 190.52 72.6521C190.645 72.4649 191.099 71.9836 191.253 71.8719C191.415 71.7459 191.421 71.8739 191.462 71.8633C191.793 71.7814 192.146 71.1096 192.204 71.0519C193.364 69.8696 194.584 69.1385 195.808 68.2581C196.747 67.5861 197.734 66.8582 198.65 66.2525C199.732 65.5387 200.692 64.9856 201.733 64.2832C201.844 64.2091 201.637 64.1782 201.771 64.0874C203.2 63.1217 204.624 62.1887 206.072 61.2799C206.217 61.1894 206.109 61.4166 206.257 61.332C207.175 60.8106 208.654 60.0049 208.805 59.1975C209.376 58.776 210.044 58.2512 210.586 57.9173C210.934 57.703 210.729 58.0654 211.063 57.6894C211.139 57.6032 210.95 57.6159 211.07 57.4935C211.567 56.9831 212.146 56.4685 212.566 55.922C212.651 55.8116 212.547 55.7687 212.559 55.7272C212.674 55.3769 213.22 55.1208 213.308 55.0386C213.991 54.4055 214.333 53.806 214.72 53.078C214.811 52.9015 214.579 53.0456 214.66 52.8755C214.78 52.6207 214.887 52.3661 214.98 52.1133C215.234 51.4263 215.485 50.745 215.737 50.082C215.816 49.8749 215.871 50.1048 215.915 50.0074C216.104 49.5762 215.915 49.4131 216.083 48.999C216.118 48.9114 216.203 48.9899 216.219 48.9764C216.462 48.7633 216.28 48.4699 216.292 48.4022C216.439 47.5385 216.821 47.0533 216.956 46.2132C216.972 46.1131 216.799 46.3105 216.85 46.0313C217.187 44.1674 217.47 42.1881 217.664 40.3176C217.694 40.0263 217.781 40.2392 217.794 40.2214C217.997 39.9287 217.75 39.7241 217.744 39.6293C217.699 38.8807 217.908 38.17 217.596 37.668C217.631 34.4828 216.993 31.3752 216.356 28.2813C216.347 28.2419 216.487 28.2756 216.47 28.197C216.253 27.2497 216.12 27.4835 215.694 26.9586C215.587 26.8279 215.691 26.2733 215.695 26.2246C215.712 26.0496 215.943 26.1394 215.939 26.0845C215.893 25.6296 215.348 25.913 215.132 25.3703C215.127 25.3528 215.26 25.3824 215.252 25.3325C215.227 25.1771 215.128 25.0533 215.106 24.8998C215.055 24.5492 215.28 24.3143 214.904 23.9028C214.856 23.8517 214.584 24.086 214.377 23.6059C214.297 23.4128 213.881 22.589 213.776 22.3512C213.675 22.1122 213.857 22.2165 213.853 22.198C213.651 21.511 213.83 21.7158 213.849 21.2992C213.864 20.8817 213.46 21.226 213.338 21.1311C213.218 21.0357 213.059 20.5324 213.028 20.4022C212.998 20.272 213.141 20.3696 213.103 20.2607C212.838 19.5404 212.709 20.1195 212.509 19.9568C212.033 19.5793 212.103 18.996 211.824 18.5382C211.748 18.4152 211.745 18.5618 211.664 18.4628C211.341 18.0717 211.255 17.7557 210.812 17.3707C210.739 17.3068 210.269 17.0919 210.208 16.7548C210.199 16.7064 210.351 16.7374 210.229 16.5585C210.047 16.2912 209.677 15.8378 209.418 15.6049C209.228 15.4331 209.31 15.7552 209.128 15.4867C209.047 15.3675 209.296 15.4976 209.136 15.2785C208.979 15.0597 208.494 14.5699 208.306 14.392C208.118 14.2126 208.135 14.3983 208.115 14.3893C207.993 14.3333 207.593 14.0338 207.56 14.0044C205.937 12.5128 204.415 11.1132 202.534 10.0352C202.386 9.95103 202.417 10.1183 202.394 10.1065C201.87 9.85248 202.437 9.79948 202.141 9.49323C202.062 9.74534 201.878 9.58053 201.51 9.40524C201.332 9.32094 201.376 9.46038 201.356 9.46045C201.029 9.45098 200.944 9.18383 200.917 9.12341C200.815 8.90163 200.546 8.95651 200.474 8.80839C200.4 8.6609 200.738 8.67194 200.386 8.4931C200.246 8.52545 200.395 8.87102 200.114 8.77191C199.727 8.63621 199.24 8.40959 198.727 8.16588C197.841 7.74129 196.893 7.29282 196.352 7.09044C195.507 6.77474 195.225 6.71135 194.729 6.52847C193.831 6.21021 194.118 6.47797 193.531 6.40947C192.942 6.34782 193.321 5.98986 193.261 5.87765C193.201 5.7662 193.089 5.83964 192.999 5.76559C192.908 5.69165 193.144 5.6796 192.908 5.60577C192.67 5.53006 191.976 5.55916 191.873 5.64145C191.654 5.8132 191.908 6.08165 191.291 5.89132C191.256 5.88039 191.394 5.78748 191.256 5.75141C190.161 5.46915 188.995 5.3229 187.874 5.16747C187.72 5.146 187.867 5.02713 187.777 5.01327C186.836 4.8755 187.161 5.11297 186.639 5.33308C186.766 5.01816 186.486 4.80597 185.764 4.79787C185.33 4.79507 185.405 4.93583 185.127 5.03684C185.044 5.06718 184.737 4.97695 184.683 5.04443C184.508 5.26522 184.799 5.49346 184.066 5.42546C184.033 5.4223 184.131 5.30026 184.019 5.29795C183.298 5.2868 183.225 5.51609 182.459 5.60813C181.858 5.67981 180.771 5.67285 180.082 5.76222C180.042 5.40295 179.4 5.59139 179.185 5.88517C178.74 5.95602 178.267 6.06652 177.835 6.12757C177.686 6.14877 177.759 6.0256 177.738 6.01872C177.415 5.91012 177.278 6.19156 177.186 6.22335C176.186 6.56071 175.306 6.62139 174.403 7.10194C174.371 7.11936 174.394 7.37395 174.083 7.28577C174.062 7.27956 174.341 7.06533 173.89 7.20844C173.44 7.35056 172.551 7.53207 171.983 7.88771C171.845 7.97303 171.553 8.31228 171.195 8.29398C171.147 8.29119 171.162 8.20664 171.089 8.19462C170.853 8.15807 170.855 8.43335 170.551 8.33392C170.248 8.2348 169.724 8.29489 169.188 8.72507C169.17 8.7385 169.117 8.98791 168.929 9.07968C168.629 9.22577 168.188 9.40994 167.882 9.57913C167.736 9.66016 167.89 9.71778 167.865 9.73373C166.918 10.3379 166.178 10.6514 165.144 11.2748C164.954 11.3889 164.527 11.8843 164.103 12.0241C163.637 12.1812 163.666 11.3943 162.875 12.1684C162.554 12.4861 162.602 13.4285 161.748 13.6206C160.65 14.6748 159.483 15.5001 158.547 16.7204C158.505 16.7754 158.518 17.0808 158.409 17.1978C158.247 17.3716 158.085 17.403 157.967 17.5272C157.475 18.0467 157.128 18.6086 156.698 19.145C156.536 19.3495 156.507 19.2133 156.315 19.4601C156.124 19.7081 156.113 19.9561 155.816 20.263C155.592 20.4948 155.178 20.6016 154.915 20.9431C155.139 21.1089 154.972 21.349 154.763 21.8281C154.723 21.9203 154.861 21.8801 154.846 21.9262C154.789 22.1146 154.629 22.2247 154.584 22.4083C154.572 22.4528 154.653 22.5027 154.649 22.5416C154.614 22.8733 154.185 23.2053 154.111 23.2647C153.827 23.4887 153.863 23.685 153.697 23.8854C153.53 24.0868 153.643 23.7154 153.477 23.9656C153.132 24.4842 152.805 25.2158 152.554 25.7933C152.454 26.0239 152.638 25.9157 152.626 25.9499C152.454 26.4369 152.138 26.8796 152.274 27.2372C151.539 27.3499 152.221 27.5493 151.861 28.2026C151.833 28.2542 151.516 28.2288 151.545 28C151.575 27.7707 151.778 27.4807 151.821 27.1624C151.83 27.0874 151.713 26.584 151.719 26.5222C151.761 26.0424 152.215 26.1578 152.247 26.1454C152.601 25.9983 152.521 25.404 152.559 25.2678C152.727 24.6533 153.02 24.201 153.197 23.7023C153.315 23.3758 153.066 23.2043 153.203 22.9677C153.669 22.1823 154.188 22.1327 154.327 21.2178C154.359 21.0226 153.98 20.9958 154.558 20.5842C154.594 20.5573 155.06 20.285 155.097 19.9698C155.102 19.9299 155.022 19.876 155.042 19.833C155.179 19.5458 155.363 19.4199 155.536 19.1231C155.708 18.8263 155.914 18.4648 156.182 18.1784C156.343 18.0051 156.672 17.884 156.777 17.8258C157.074 17.6624 157.135 17.2707 157.379 17.2225C157.623 17.1752 157.55 17.6146 157.96 17.2963C157.785 17.1173 157.621 16.9151 157.454 16.7255C158.217 15.8767 159.057 15.1316 159.883 14.346C159.985 14.2485 159.788 14.2487 159.896 14.1416C160.353 13.6903 160.837 13.3916 161.322 12.9368C161.697 12.5846 162.05 12.1203 162.459 11.7632C162.894 11.7891 163.475 11.2386 163.969 10.9304C164.141 10.8222 164.173 10.8929 164.306 10.8324C164.807 10.605 164.456 10.538 164.558 10.4218C165.003 9.9266 165.358 10.3757 165.986 9.97151C166.019 9.9502 166.279 9.43844 166.329 9.38807C166.636 9.06488 166.443 9.44332 166.686 9.32855C167.129 9.1208 167.458 9.01983 167.92 8.67283C168.054 8.57148 168.324 8.21683 168.68 8.20278C168.727 8.20086 168.751 8.30144 168.784 8.2914C169.383 8.10471 169.26 7.81569 169.538 7.56603C169.816 7.31631 170.41 7.29121 170.537 7.30529C170.87 7.33805 170.36 7.45835 170.352 7.48007C170.261 7.72912 170.611 7.53643 170.897 7.4321C171.059 7.69926 171.44 7.5193 171.193 7.32361C171.165 7.30239 170.958 7.42094 170.897 7.4321C171.022 7.04756 171.447 6.82726 172.032 6.9045C172.306 6.94225 172.147 7.16527 172.811 6.85711C173.114 6.71937 172.921 6.56221 173.179 6.40856C173.771 6.05717 174.667 5.97804 175.324 5.75745C175.562 5.67703 175.294 5.63221 175.457 5.57354C175.89 5.41804 176.303 5.39926 176.738 5.24536C176.778 5.23129 176.649 5.13683 176.788 5.10111C177.844 4.83048 178.789 4.71869 179.91 4.54342C180.451 4.45663 181.416 4.26435 181.985 4.22465C182.971 4.14676 184.189 4.26164 185.026 4.2093C185.573 4.17555 185.453 4.05586 185.689 3.97245C186.148 3.81003 186.949 4.12628 187.053 4.17745C187.056 4.17841 186.583 4.18992 186.833 4.26185C186.973 4.3981 187.047 4.17782 187.053 4.17745C187.123 4.20637 188.062 4.28856 188.25 4.28338C188.353 4.27862 188.305 4.15856 188.358 4.15835C189.628 4.157 190.901 4.30044 192.155 4.60143C192.177 4.60809 192.119 4.7288 192.17 4.74286C192.885 4.94421 193.384 4.89785 194.004 4.95775C194.624 5.01905 195.09 5.1881 195.374 5.50685C195.826 5.61363 196.424 5.91636 196.763 6.10158C197.101 6.286 197.238 6.06962 197.272 6.07642C198.119 6.2554 198.615 6.5396 199.301 6.89496C199.457 6.97632 199.623 7.06165 199.804 7.15147C200.27 7.37934 201.197 7.80651 201.704 8.05587C202.105 8.24981 202.302 8.4304 202.676 8.60549C202.727 8.62934 202.735 8.50397 202.752 8.50885C203.217 8.62787 202.885 8.75131 202.941 8.84172C203.141 9.17156 203.268 9.35892 203.798 9.60054C203.919 9.65556 204.468 9.5431 204.686 9.6643C204.967 9.82184 204.787 9.86946 205.081 10.0334C205.106 10.0476 205.152 9.97233 205.318 10.0956C206.095 10.6707 206.888 11.3559 207.653 12.0046C207.756 12.0933 207.715 11.8734 207.866 12.0005C208.579 12.5974 209.316 13.3062 209.899 14.0058C210.042 14.1779 209.875 14.1444 209.888 14.1992C209.966 14.5322 210.434 14.6662 210.484 14.7151C211.69 15.867 212.297 17.0031 213.341 18.3272C213.398 18.3967 214.019 18.8391 213.991 19.2334C213.99 19.2606 213.953 19.6492 214.234 19.7989C214.252 19.8084 214.256 19.5778 214.421 19.875C214.586 20.1713 214.933 20.6057 215.038 21.0802C215.072 21.2311 215.027 21.6461 215.395 21.9489C215.42 21.9654 216.111 22.3859 215.947 22.7355C215.92 22.7925 215.622 22.888 215.986 23.294C216.056 23.372 216.044 23.1773 216.193 23.3997C216.422 23.7414 216.557 24.2668 216.872 24.6768C216.927 24.7474 217.263 25.0163 217.217 25.3531C217.21 25.4056 217.081 25.3598 217.125 25.5106C217.334 26.228 217.648 26.9429 217.797 27.6884C217.849 27.9513 217.649 27.8688 217.683 28.1469C217.717 28.4252 217.821 28.9725 217.966 29.2344C218.112 29.4964 218.297 29.1223 218.423 29.5417C218.964 31.3743 219.109 33.2711 219.248 35.1553C219.268 35.4357 219.346 35.1951 219.379 35.6092C219.521 37.1292 219.602 39.7822 219.29 41.0891C219.05 42.1294 219.023 40.7986 218.896 41.594C218.834 41.9756 219.104 42.4241 219.104 42.5199C219.109 43.4419 218.884 44.0642 218.796 44.882C218.777 45.0519 218.93 44.907 218.912 45.0517C218.853 45.5465 218.701 46.0534 218.617 46.519C218.579 46.7286 218.682 46.7099 218.634 46.9008C218.52 47.3575 218.387 47.7566 218.19 48.1769C218.172 48.2151 218.122 47.9149 218.035 48.249C217.894 48.7904 217.626 49.4381 217.532 50.0783C217.504 50.2688 217.715 50.3412 217.447 50.6899C217.39 50.763 217.171 50.5779 217.244 51.1038C217.257 51.1902 217.296 52.055 216.972 52.3624C216.905 52.4265 216.705 52.5506 216.602 52.7118C216.573 52.7579 216.551 52.8062 216.538 52.857C216.531 52.8908 216.692 52.8064 216.626 53.0053C216.382 53.716 216.003 54.3768 215.62 55.022C215.521 55.1883 215.785 55.0169 215.631 55.2639C215.201 55.9551 214.543 56.7031 213.992 57.2398C213.792 57.4336 213.848 57.2232 213.826 57.2306C213.474 57.343 213.515 57.6491 213.448 57.7379C213.023 58.2906 212.592 58.5386 212.146 58.9827C212.025 59.1023 212.192 59.1084 212.174 59.1386C211.984 59.4439 212.037 59.117 211.858 59.2444C211.356 59.6004 210.83 60.0515 210.361 60.4463C210.187 60.5929 210.471 60.5383 210.313 60.6688C209.379 61.4426 208.372 62.1705 207.375 62.7881C207.189 62.9026 207.241 62.7386 207.19 62.7456C206.84 62.7909 206.593 63.2392 206.518 63.3176C206.178 63.6739 205.971 63.704 205.632 63.9571C203.968 65.1981 201.805 66.5344 200.18 67.5722C198.068 68.9278 196.407 69.9276 194.59 71.4116C194.476 71.5059 194.679 71.5194 194.582 71.6018C193.345 72.6582 192.111 73.7141 191.417 74.935C191.362 75.0336 191.555 74.9621 191.476 75.1181C191.322 75.428 191.168 75.798 191.084 76.0559C191.043 76.1841 190.96 75.9871 190.922 76.1218C190.836 76.4364 190.866 76.7584 191.021 77.0624C191.089 77.1916 191.122 76.9421 191.199 77.103C191.35 77.3978 191.593 77.7003 191.94 78.0186C192.893 78.8532 193.537 79.1101 194.506 78.7884C194.601 78.7535 194.807 78.9571 194.986 78.7787C194.96 78.7056 194.909 78.6323 194.871 78.5611C196.755 77.1487 198.187 74.379 199.319 71.735C199.366 71.6211 199.152 71.7634 199.243 71.5427C199.768 70.2633 200.187 68.9784 200.768 67.666C200.825 67.5347 201.045 67.6824 201.137 67.2706C201.154 67.1976 201.31 66.5888 201.306 66.4122C201.304 66.3885 201.157 66.4642 201.214 66.2679C201.543 65.1342 201.905 63.9522 202.278 62.8211C202.337 62.6437 202.408 62.8677 202.451 62.7419C202.764 61.8149 202.922 60.771 203.239 59.8968C203.448 59.3286 203.617 59.5641 203.892 59.3174C203.909 59.3098 203.948 59.1755 203.988 59.0835C204.03 58.9905 204.08 58.9099 204.145 58.9016C204.464 58.9119 204.758 59.1814 205.101 59.1766C205.184 59.1383 205.204 58.6545 205.315 58.9814C205.319 58.9901 205.321 59.0654 205.313 59.2136C205.317 59.3053 205.32 59.4302 205.338 59.4869C205.363 59.566 205.515 59.4642 205.534 59.6223C205.556 59.7635 205.426 59.8606 205.432 60.1131C205.443 60.3452 205.611 60.2602 205.524 60.7105ZM198.258 6.96512C198.533 7.21215 198.756 6.82476 198.363 6.77418C198.344 6.77227 198.244 6.95268 198.258 6.96512ZM159.3 15.387C159.76 15.2065 159.787 14.7851 159.449 14.8999C159.111 15.0176 159.16 15.4435 159.3 15.387ZM156.302 19.0216C156.746 18.6968 156.303 18.2409 156.053 18.7741C156.038 18.8051 156.276 19.0409 156.302 19.0216ZM203.61 60.8145C203.618 60.8096 203.686 60.5456 203.682 60.5398C203.578 60.3668 203.441 60.8922 203.61 60.8145ZM153.885 23.0029C154.038 22.8999 154.188 22.4403 153.995 22.5652C153.838 22.6663 153.692 23.1319 153.885 23.0029ZM211.992 18.4005C211.989 18.4087 212.1 18.5749 212.128 18.5502C212.219 18.4696 212.029 18.2619 211.992 18.4005ZM150.994 30.3314C151.309 29.1995 152.015 28.6942 151.615 29.8742C151.544 30.0902 151.585 29.3592 151.463 29.6247C151.239 30.1153 151.469 30.5354 151.177 31.0234C151.123 31.1133 150.973 30.3964 150.994 30.3292C150.994 30.3299 150.994 30.3306 150.994 30.3314ZM198.236 7.53424C198.24 7.54206 198.491 7.65635 198.5 7.65395C198.694 7.58418 198.185 7.35252 198.236 7.53424ZM216.673 28.9519C216.666 28.9694 216.817 29.588 216.832 29.6055C217.14 29.8724 216.835 28.6128 216.673 28.9519ZM180.07 5.75443C179.797 5.94073 179.452 6.01721 179.186 5.88511C179.48 5.841 179.774 5.79222 180.07 5.75443Z" fill="#FF6200"/>
<path d="M88.5005 83.5091C86.8006 84.396 85.0084 84.8395 83.1238 84.8395C81.5348 84.8395 80.0567 84.4514 78.6894 83.6754C77.3221 82.8994 76.3983 81.6615 75.9179 79.9616C75.6962 79.1856 75.5853 78.3726 75.5853 77.5227C75.5853 76.1185 75.8255 74.6773 76.3059 73.1992C76.8232 71.6841 77.4884 70.2983 78.3014 69.0419C79.5578 67.0834 81.1468 65.4574 83.0683 64.1641C84.9899 62.8707 87.1147 62.224 89.4428 62.224C91.1796 62.224 92.5284 62.6675 93.4892 63.5543C94.45 64.4412 94.9304 65.4759 94.9304 66.6584C94.9304 68.0627 94.45 69.3006 93.4892 70.3722C92.5653 71.4069 91.3459 72.2014 89.8308 72.7557C89.0917 73.0144 88.2972 73.2176 87.4473 73.3655C86.6343 73.4763 85.8583 73.5317 85.1193 73.5317C83.6042 73.5317 82.4401 73.3285 81.6272 72.922C80.9251 74.7327 80.574 76.3956 80.574 77.9107C80.574 79.278 80.8881 80.4051 81.5163 81.2919C82.1445 82.1419 83.1423 82.5668 84.5095 82.5668C85.6551 82.5668 86.7822 82.2527 87.8908 81.6245C89.0363 80.9963 90.0895 80.2203 91.0503 79.2965C92.048 78.3726 92.8795 77.4857 93.5446 76.6358C94.062 76.0076 94.5054 75.4164 94.8749 74.8621C95.2445 74.3078 95.6325 73.6796 96.039 72.9774C96.4454 72.2384 96.9258 71.333 97.4801 70.2614C97.628 70.0027 97.7573 69.8734 97.8681 69.8734C98.0899 69.8734 98.2007 70.169 98.2007 70.7602C98.2007 71.0928 98.1453 71.4624 98.0344 71.8688C97.9605 72.2384 97.8127 72.6264 97.591 73.0329C97.0737 73.9567 96.4454 74.9729 95.7064 76.0815C95.0043 77.1532 94.2837 78.1879 93.5446 79.1856C92.8795 80.0725 92.1219 80.8855 91.272 81.6245C90.4221 82.3636 89.4982 82.9918 88.5005 83.5091ZM83.4564 71.7026C83.6411 71.8134 83.8444 71.8873 84.0661 71.9243C84.2878 71.9612 84.5095 71.9797 84.7312 71.9797C85.4703 71.9797 86.2094 71.8134 86.9484 71.4808C87.6875 71.1113 88.3157 70.7418 88.8331 70.3722C89.683 69.781 90.4036 69.0789 90.9948 68.2659C91.5861 67.4529 91.9187 66.5291 91.9926 65.4944C92.0295 65.051 91.9187 64.6814 91.66 64.3858C91.4383 64.0532 91.0318 63.8869 90.4405 63.8869C90.1449 63.8869 89.7754 63.9424 89.3319 64.0532C88.7407 64.201 88.1494 64.4782 87.5582 64.8847C86.9669 65.2912 86.3941 65.7715 85.8398 66.3258C85.6551 66.5106 85.3225 66.8801 84.8421 67.4344C84.3987 67.9518 83.9737 68.543 83.5672 69.2082C83.1607 69.8364 82.9575 70.3907 82.9575 70.8711C82.9575 71.2776 83.1238 71.5547 83.4564 71.7026ZM108.366 83.5091C106.667 84.396 104.874 84.8395 102.99 84.8395C101.401 84.8395 99.9227 84.4514 98.5554 83.6754C97.1881 82.8994 96.2643 81.6615 95.7839 79.9616C95.5622 79.1856 95.4513 78.3726 95.4513 77.5227C95.4513 76.1185 95.6915 74.6773 96.1719 73.1992C96.6893 71.6841 97.3544 70.2983 98.1674 69.0419C99.4238 67.0834 101.013 65.4574 102.934 64.1641C104.856 62.8707 106.981 62.224 109.309 62.224C111.046 62.224 112.394 62.6675 113.355 63.5543C114.316 64.4412 114.796 65.4759 114.796 66.6584C114.796 68.0627 114.316 69.3006 113.355 70.3722C112.431 71.4069 111.212 72.2014 109.697 72.7557C108.958 73.0144 108.163 73.2176 107.313 73.3655C106.5 73.4763 105.724 73.5317 104.985 73.5317C103.47 73.5317 102.306 73.3285 101.493 72.922C100.791 74.7327 100.44 76.3956 100.44 77.9107C100.44 79.278 100.754 80.4051 101.382 81.2919C102.011 82.1419 103.008 82.5668 104.376 82.5668C105.521 82.5668 106.648 82.2527 107.757 81.6245C108.902 80.9963 109.955 80.2203 110.916 79.2965C111.914 78.3726 112.745 77.4857 113.411 76.6358C113.928 76.0076 114.371 75.4164 114.741 74.8621C115.11 74.3078 115.498 73.6796 115.905 72.9774C116.311 72.2384 116.792 71.333 117.346 70.2614C117.494 70.0027 117.623 69.8734 117.734 69.8734C117.956 69.8734 118.067 70.169 118.067 70.7602C118.067 71.0928 118.011 71.4624 117.9 71.8688C117.827 72.2384 117.679 72.6264 117.457 73.0329C116.94 73.9567 116.311 74.9729 115.572 76.0815C114.87 77.1532 114.15 78.1879 113.411 79.1856C112.745 80.0725 111.988 80.8855 111.138 81.6245C110.288 82.3636 109.364 82.9918 108.366 83.5091ZM103.322 71.7026C103.507 71.8134 103.71 71.8873 103.932 71.9243C104.154 71.9612 104.376 71.9797 104.597 71.9797C105.336 71.9797 106.075 71.8134 106.814 71.4808C107.554 71.1113 108.182 70.7418 108.699 70.3722C109.549 69.781 110.27 69.0789 110.861 68.2659C111.452 67.4529 111.785 66.5291 111.859 65.4944C111.896 65.051 111.785 64.6814 111.526 64.3858C111.304 64.0532 110.898 63.8869 110.307 63.8869C110.011 63.8869 109.641 63.9424 109.198 64.0532C108.607 64.201 108.015 64.4782 107.424 64.8847C106.833 65.2912 106.26 65.7715 105.706 66.3258C105.521 66.5106 105.189 66.8801 104.708 67.4344C104.265 67.9518 103.84 68.543 103.433 69.2082C103.027 69.8364 102.824 70.3907 102.824 70.8711C102.824 71.2776 102.99 71.5547 103.322 71.7026ZM119.807 84.6177C118.736 84.6177 117.923 84.1928 117.368 83.3428C117.11 82.9364 116.925 82.456 116.814 81.9017C116.703 81.3474 116.648 80.7746 116.648 80.1833C116.648 79.5921 116.685 79.0008 116.759 78.4096C116.832 77.7814 116.925 77.1716 117.036 76.5804C117.22 75.6196 117.424 74.7512 117.645 73.9752C117.904 73.1622 118.163 72.3862 118.421 71.6471V71.5917C118.126 72.146 117.756 72.7557 117.313 73.4209C116.869 74.0491 116.555 74.511 116.37 74.8066C116.112 75.2131 115.909 75.4164 115.761 75.4164C115.613 75.4164 115.539 75.2501 115.539 74.9175C115.539 74.1784 115.761 73.3655 116.204 72.4786C116.5 71.8873 116.906 71.1298 117.424 70.2059C117.941 69.2452 118.477 68.2105 119.031 67.1019C119.585 65.9933 120.066 64.9216 120.472 63.8869H116.759C116.574 63.8869 116.537 63.7391 116.648 63.4435C116.759 63.1479 116.925 62.8707 117.147 62.612C117.368 62.3164 117.535 62.1686 117.645 62.1686H121.858C122.265 61.2078 122.726 60.1731 123.244 59.0645C123.798 57.9559 124.408 56.9212 125.073 55.9604C125.775 54.9627 126.533 54.1497 127.346 53.5215C128.159 52.8933 129.027 52.5792 129.951 52.5792C130.357 52.5792 130.856 52.5792 131.447 52.5792C132.076 52.5792 132.464 52.5607 132.611 52.5238C131.835 53.0411 130.93 54.0758 129.895 55.6279C128.861 57.143 127.734 59.3232 126.514 62.1686H132.113C132.223 62.1686 132.187 62.3164 132.002 62.612C131.817 62.8707 131.577 63.1479 131.281 63.4435C131.022 63.7391 130.764 63.8869 130.505 63.8869H125.738C125.258 65.1064 124.722 66.4367 124.131 67.8779C123.576 69.3191 123.059 70.7418 122.579 72.146C122.135 73.5133 121.803 74.7697 121.581 75.9152C121.433 76.6173 121.359 77.264 121.359 77.8553C121.359 79.2595 121.803 79.9616 122.69 79.9616C123.281 79.9616 123.983 79.666 124.796 79.0747C125.609 78.4835 126.422 77.6705 127.235 76.6358C127.974 75.675 128.676 74.6403 129.341 73.5317C130.043 72.4231 130.634 71.4069 131.115 70.4831C131.263 70.2244 131.392 70.0951 131.503 70.0951C131.725 70.0951 131.835 70.3907 131.835 70.982C131.835 71.2776 131.78 71.6286 131.669 72.0351C131.595 72.4047 131.447 72.7742 131.226 73.1437C130.708 74.0306 130.099 75.0099 129.397 76.0815C128.694 77.1162 127.974 78.1509 127.235 79.1856C126.717 79.8508 126.034 80.6083 125.184 81.4582C124.371 82.3082 123.484 83.0472 122.523 83.6754C121.599 84.3036 120.694 84.6177 119.807 84.6177ZM136.327 84.8395C134.59 84.8395 133.186 84.5254 132.114 83.8971C131.042 83.232 130.266 82.3636 129.786 81.2919C129.342 80.1833 129.121 79.0008 129.121 77.7444C129.121 76.488 129.305 75.2131 129.675 73.9198C130.045 72.6264 130.543 71.4069 131.172 70.2614C132.465 67.9333 134.054 66.0117 135.939 64.4967C137.86 62.9816 140.207 62.224 142.978 62.224C144.715 62.224 146.064 62.6675 147.025 63.5543C147.985 64.4412 148.466 65.4759 148.466 66.6584C148.466 67.767 148.133 68.7832 147.468 69.7071C146.84 70.6309 145.99 71.0928 144.918 71.0928C144.327 71.0928 143.81 70.9265 143.366 70.594C142.923 70.2614 142.701 69.744 142.701 69.0419C142.701 68.9311 142.701 68.8202 142.701 68.7093C142.738 68.5615 142.775 68.4137 142.812 68.2659C143.034 68.2289 143.348 68.1735 143.754 68.0996C144.198 67.9887 144.549 67.7301 144.807 67.3236C145.288 66.6584 145.528 65.9933 145.528 65.3281C145.528 64.9216 145.399 64.589 145.14 64.3304C144.918 64.0347 144.53 63.8869 143.976 63.8869C142.978 63.8869 141.962 64.2565 140.927 64.9955C139.893 65.6976 138.913 66.64 137.989 67.8225C137.103 69.005 136.327 70.2983 135.661 71.7026C134.627 73.9567 134.109 76.0261 134.109 77.9107C134.109 79.278 134.423 80.4051 135.052 81.2919C135.68 82.1419 136.678 82.5668 138.045 82.5668C139.782 82.5668 141.408 81.9756 142.923 80.7931C144.475 79.5736 145.861 78.1694 147.08 76.5804C147.893 75.5457 148.614 74.4925 149.242 73.4209C149.907 72.3492 150.461 71.37 150.905 70.4831C151.052 70.2244 151.182 70.0951 151.293 70.0951C151.514 70.0951 151.625 70.4092 151.625 71.0374C151.625 71.333 151.57 71.6841 151.459 72.0906C151.385 72.4601 151.256 72.8112 151.071 73.1437C150.443 74.1784 149.796 75.2131 149.131 76.2478C148.503 77.2825 147.819 78.2618 147.08 79.1856C145.824 80.8115 144.345 82.1603 142.646 83.232C140.946 84.3036 138.839 84.8395 136.327 84.8395ZM163.842 84.6177C162.586 84.6177 161.717 84.2482 161.237 83.5091C160.793 82.7331 160.572 81.8462 160.572 80.8485C160.572 79.7769 160.738 78.5389 161.07 77.1347C161.44 75.6935 161.883 74.2154 162.401 72.7003C162.955 71.1483 163.509 69.7071 164.064 68.3768C164.248 67.9333 164.415 67.4529 164.563 66.9356C164.747 66.4182 164.84 65.9563 164.84 65.5498C164.84 64.8108 164.507 64.4412 163.842 64.4412C163.583 64.4412 163.288 64.4967 162.955 64.6075C162.622 64.6814 162.234 64.8477 161.791 65.1064C161.015 65.4759 160.276 65.9933 159.574 66.6584C158.872 67.2866 158.391 67.767 158.133 68.0996C157.652 68.6909 157.19 69.356 156.747 70.0951C156.303 70.7972 155.915 71.5178 155.583 72.2569C154.844 73.8458 154.253 75.3609 153.809 76.8021C153.403 78.2063 153.015 79.4073 152.645 80.4051C152.423 81.0333 152.202 81.6799 151.98 82.3451C151.758 83.0103 151.555 83.6569 151.37 84.2852H145.993C145.993 84.2852 146.123 83.8232 146.381 82.8994C146.64 81.9756 146.954 81.0517 147.324 80.1279C149.024 75.7305 150.631 71.2406 152.146 66.6584C153.661 62.0762 155.49 57.6788 157.634 53.4661C158.595 51.5815 159.629 49.8447 160.738 48.2557C161.883 46.6667 163.084 45.4103 164.341 44.4864C165.634 43.5257 166.983 43.0453 168.387 43.0453C169.496 43.0453 170.253 43.3039 170.66 43.8213C171.103 44.3017 171.325 44.9114 171.325 45.6505C171.325 46.4634 171.159 47.3134 170.826 48.2002C170.494 49.0871 170.161 49.8447 169.828 50.4729C169.163 51.8032 168.295 53.2998 167.223 54.9627C166.152 56.6256 165.024 58.1776 163.842 59.6188C163.583 59.9514 163.14 60.4872 162.512 61.2263C161.883 61.9284 161.237 62.649 160.572 63.3881C159.943 64.1271 159.444 64.6999 159.075 65.1064C160.294 64.2195 161.348 63.5359 162.234 63.0555C163.121 62.5751 163.879 62.2425 164.507 62.0577C165.579 61.7621 166.466 61.6143 167.168 61.6143C169.274 61.6143 170.327 62.5381 170.327 64.3858C170.327 65.1618 170.106 66.0857 169.662 67.1573C169.44 67.7486 169.126 68.543 168.72 69.5408C168.313 70.5385 167.888 71.6102 167.445 72.7557C167.038 73.8643 166.687 74.936 166.392 75.9707C166.133 77.0054 166.004 77.8553 166.004 78.5204C166.004 78.9269 166.059 79.2965 166.17 79.629C166.318 79.9247 166.576 80.0725 166.946 80.0725C167.205 80.0725 167.574 79.9431 168.055 79.6845C169.089 79.0932 170.05 78.2618 170.937 77.1901C171.861 76.1185 172.674 74.9729 173.376 73.7535C174.115 72.534 174.743 71.4254 175.261 70.4277C175.371 70.169 175.501 70.0397 175.649 70.0397C175.833 70.0397 175.926 70.3538 175.926 70.982C175.926 71.2776 175.889 71.6286 175.815 72.0351C175.741 72.4047 175.593 72.7742 175.371 73.1437C174.854 74.0306 174.17 75.1207 173.32 76.4141C172.507 77.7075 171.584 78.9824 170.549 80.2388C169.514 81.4582 168.424 82.4929 167.279 83.3428C166.133 84.1928 164.987 84.6177 163.842 84.6177ZM157.467 64.7184C159.315 62.5381 161.181 60.2101 163.066 57.7342C164.987 55.2214 166.576 52.6716 167.833 50.0849C167.907 49.9001 168.073 49.5306 168.332 48.9763C168.59 48.422 168.831 47.8122 169.052 47.1471C169.274 46.445 169.385 45.8537 169.385 45.3733C169.385 44.7451 169.145 44.431 168.664 44.431C168.184 44.431 167.611 44.7636 166.946 45.4288C166.318 46.0939 165.671 46.9808 165.006 48.0894C164.156 49.4936 163.288 51.1196 162.401 52.9672C161.514 54.7779 160.645 56.6995 159.796 58.7319C158.983 60.7644 158.207 62.7599 157.467 64.7184ZM190.198 84.6177C189.052 84.6177 188.258 84.1743 187.814 83.2874C187.408 82.4005 187.204 81.3104 187.204 80.017C187.204 78.8345 187.315 77.6705 187.537 76.525C187.648 76.0076 187.759 75.4903 187.87 74.9729C188.017 74.4186 188.184 73.8458 188.368 73.2546C187.74 74.4001 187.075 75.5087 186.373 76.5804C185.708 77.652 185.024 78.5943 184.322 79.4073C183.139 80.8485 181.883 82.0495 180.553 83.0103C179.259 83.9711 177.966 84.4514 176.673 84.4514C175.638 84.4514 174.751 84.0819 174.012 83.3428C173.31 82.5668 172.959 81.2365 172.959 79.3519C172.959 77.4303 173.291 75.4533 173.957 73.4209C174.622 71.3885 175.546 69.5038 176.728 67.767C177.948 65.9933 179.37 64.5706 180.996 63.4989C182.659 62.4273 184.47 61.8915 186.428 61.8915C187.057 61.8915 187.74 61.9838 188.479 62.1686C189.218 62.3534 189.902 62.7044 190.53 63.2218C191.158 63.7022 191.583 64.3858 191.805 65.2727C191.842 65.1988 191.879 65.1433 191.916 65.1064C191.99 65.0694 192.045 65.0325 192.082 64.9955C192.6 64.1826 193.191 63.4989 193.856 62.9446C194.521 62.3903 195.26 62.1132 196.073 62.1132C196.48 62.1132 197.052 62.1316 197.791 62.1686C198.531 62.2056 199.066 62.2056 199.399 62.1686C199.214 62.3164 198.956 62.612 198.623 63.0555C198.327 63.4989 198.05 63.9608 197.791 64.4412C197.533 64.8847 197.33 65.2357 197.182 65.4944C196.184 67.416 195.279 69.3191 194.466 71.2037C193.653 73.0883 193.025 74.899 192.581 76.6358C192.47 77.0054 192.396 77.3564 192.359 77.689C192.322 77.9846 192.304 78.2802 192.304 78.5759C192.304 79.5367 192.618 80.017 193.246 80.017C193.837 80.017 194.577 79.6475 195.463 78.9084C196.757 77.8738 197.884 76.5804 198.845 75.0284C199.842 73.4763 200.711 71.9797 201.45 70.5385C201.598 70.2799 201.727 70.1505 201.838 70.1505C202.06 70.1505 202.17 70.4646 202.17 71.0928C202.17 71.3885 202.115 71.721 202.004 72.0906C201.93 72.4601 201.801 72.8112 201.616 73.1437C201.099 74.0306 200.415 75.1207 199.565 76.4141C198.752 77.7075 197.828 78.9824 196.794 80.2388C195.759 81.4582 194.669 82.4929 193.523 83.3428C192.415 84.1928 191.306 84.6177 190.198 84.6177ZM179.167 79.7953C179.278 79.8323 179.444 79.8508 179.666 79.8508C180.368 79.8508 181.126 79.5551 181.939 78.9639C182.751 78.3726 183.564 77.6151 184.377 76.6913C185.19 75.7305 185.911 74.7697 186.539 73.8089C188.165 71.2222 189.366 69.2821 190.142 67.9887C190.918 66.6954 191.362 65.9563 191.472 65.7715C191.288 65.1433 190.955 64.6814 190.475 64.3858C190.031 64.0902 189.495 63.9424 188.867 63.9424C188.054 63.9424 187.186 64.1641 186.262 64.6075C185.375 65.051 184.618 65.5868 183.989 66.215C183.029 67.1758 182.105 68.4137 181.218 69.9288C180.368 71.4439 179.666 72.9405 179.112 74.4186C178.594 75.8968 178.336 77.1347 178.336 78.1324C178.336 79.0563 178.613 79.6106 179.167 79.7953Z" fill="#FF6200"/>
</svg>
