<svg width="346" height="183" viewBox="0 0 346 183" fill="none" xmlns="http://www.w3.org/2000/svg">
<path d="M0.938611 133.999L2.28562 129.224C5.87765 129.06 8.73495 128.571 10.8575 127.754C13.0617 126.938 14.7761 125.632 16.0006 123.836C17.2252 122.04 18.2865 119.55 19.1845 116.366L34.1241 62.7303C34.9404 59.7914 35.2262 57.628 34.9813 56.2402C34.818 54.7707 33.8383 53.7503 32.0423 53.1788C30.3279 52.5257 27.5931 52.1583 23.8378 52.0767L25.1848 47.3009C26.8992 47.3826 29.2258 47.4642 32.1648 47.5458C35.1037 47.6275 38.4916 47.6683 42.3286 47.6683C45.839 47.6683 49.1045 47.6275 52.125 47.5458C55.1456 47.4642 57.7988 47.3826 60.0846 47.3009L66.3299 112.815L62.5338 114.039L104.046 47.3009C106.822 47.4642 109.434 47.5867 111.883 47.6683C114.332 47.6683 116.945 47.6683 119.72 47.6683C124.129 47.6683 128.17 47.6275 131.844 47.5458C135.599 47.4642 138.619 47.3826 140.905 47.3009L139.558 52.0767C135.558 52.24 132.538 52.6073 130.497 53.1788C128.456 53.7503 126.945 54.7707 125.966 56.2402C124.986 57.628 124.088 59.7914 123.272 62.7303L107.72 118.57C106.903 121.427 106.577 123.591 106.74 125.06C106.985 126.53 107.965 127.55 109.679 128.122C111.475 128.693 114.251 129.06 118.006 129.224L116.659 133.999C114.292 133.836 111.189 133.755 107.352 133.755C103.597 133.673 99.352 133.632 94.6171 133.632C89.6372 133.632 85.2288 133.673 81.3919 133.755C77.555 133.755 74.5344 133.836 72.3302 133.999L73.6772 129.224C77.4325 128.979 80.249 128.571 82.1266 127.999C84.0859 127.428 85.5146 126.448 86.4126 125.06C87.3922 123.591 88.2902 121.427 89.1066 118.57L106.985 54.2809H105.271L54.8191 134.734H50.4107L42.696 56.2402H40.8591L24.0827 116.488C23.2663 119.672 22.9806 122.162 23.2255 123.958C23.4704 125.754 24.4909 127.06 26.2869 127.877C28.1646 128.611 30.9402 129.06 34.6139 129.224L33.2669 133.999C31.7974 133.918 29.6748 133.836 26.8992 133.755C24.1235 133.673 21.0621 133.632 17.715 133.632C14.2046 133.632 10.98 133.673 8.04103 133.755C5.1021 133.836 2.73463 133.918 0.938611 133.999Z" fill="#FF6200"/>
<path d="M323.565 111.965C323.345 113.774 322.89 116.109 322.493 117.853C322.367 118.409 322.293 118.103 322.199 118.491C322.013 119.26 321.958 119.919 321.761 120.674C321.695 120.922 321.556 120.573 321.492 120.834C321.15 122.209 320.941 123.586 320.623 124.983C319.027 131.969 317.412 138.833 315.222 145.78C314.5 148.061 313.391 150.803 312.538 153.134C312.435 153.414 312.664 153.315 312.656 153.373C312.526 154.276 312.31 153.869 312.047 154.373C310.982 156.397 309.864 158.637 308.593 160.511C308.01 161.335 308.899 160.753 308.121 161.419C308.067 161.463 308.081 161.155 307.896 161.347C307.523 161.753 306.637 162.672 306.244 162.923C305.381 163.493 305.305 163.557 304.324 163.892C302.993 164.347 301.203 163.77 300.17 163.01C299.932 162.848 300.13 163.236 299.734 162.974C299.607 162.888 299.42 162.741 299.217 162.556C298.8 162.183 298.388 161.668 298.249 161.427C298.044 161.073 298.272 161.126 298.258 161.049C298.126 160.424 297.233 159.351 297.185 159.15C296.077 155.928 297.235 153.188 298.25 150.672C299.061 148.743 300.12 146.74 301.185 145.088C302.458 143.121 303.708 141.566 305.064 139.753C305.207 139.563 304.86 139.649 305.034 139.416C306.91 136.927 308.893 134.584 311.011 132.353C311.224 132.13 311.113 132.559 311.335 132.343C312.691 131.013 314.947 129.05 315.053 127.649C315.928 126.719 316.986 125.593 317.877 124.863C318.451 124.393 318.132 125.066 318.669 124.335C318.79 124.17 318.474 124.241 318.666 124.003C319.477 123.003 320.46 122.008 321.241 120.998C321.399 120.793 321.227 120.733 321.254 120.658C321.484 120.038 322.464 119.555 322.638 119.405C323.941 118.285 324.698 117.309 325.75 116.126C325.992 115.854 325.538 116.028 325.765 115.76C326.95 114.367 328.199 112.958 329.431 111.65C329.702 111.363 329.616 111.764 329.753 111.633C330.35 111.06 330.199 110.674 330.77 110.102C330.89 109.981 330.957 110.159 330.991 110.147C331.517 109.951 331.466 109.375 331.535 109.275C332.432 107.964 333.347 107.474 334.229 106.185C334.331 106.035 333.922 106.24 334.215 105.826C335.92 103.397 337.704 100.798 338.823 98.175C338.98 97.7981 339.134 97.4234 339.285 97.0514C339.479 96.5677 339.506 96.9698 339.534 96.9454C339.994 96.5359 339.72 96.0776 339.758 95.9129C340.072 94.6061 340.745 93.496 340.518 92.4893C342.154 87.051 342.636 81.4137 343.023 75.7913C343.028 75.7196 343.228 75.8467 343.236 75.7033C343.32 73.9788 343.012 74.3081 342.584 73.1964C342.477 72.9179 342.876 72.0254 342.902 71.9426C343.004 71.652 343.321 71.9224 343.337 71.8262C343.462 71.0259 342.502 71.2335 342.399 70.1966C342.397 70.1638 342.59 70.2821 342.599 70.1929C342.627 69.9148 342.526 69.655 342.556 69.3806C342.625 68.7557 343.071 68.4706 342.661 67.5774C342.607 67.4653 342.091 67.7253 341.968 66.8002C341.925 66.4285 341.615 64.8128 341.548 64.3545C341.487 63.8951 341.728 64.1678 341.729 64.1341C341.692 62.8623 341.888 63.304 342.084 62.6089C342.274 61.9108 341.507 62.2812 341.355 62.057C341.204 61.8314 341.156 60.8959 341.158 60.6598C341.162 60.4239 341.348 60.6645 341.33 60.4603C341.198 59.1059 340.77 60.0147 340.519 59.6342C339.921 58.7453 340.254 57.7983 339.988 56.882C339.916 56.6353 339.855 56.8799 339.765 56.6704C339.405 55.8431 339.387 55.2656 338.828 54.3859C338.737 54.2401 338.072 53.6319 338.096 53.035C338.1 52.9497 338.331 53.0823 338.201 52.7185C338.009 52.1744 337.585 51.2258 337.254 50.7007C337.011 50.3132 337.027 50.893 336.832 50.3496C336.744 50.1082 337.096 50.4564 336.918 50.0078C336.744 49.5598 336.14 48.497 335.896 48.101C335.655 47.7046 335.62 48.0216 335.589 47.9958C335.412 47.8383 334.87 47.134 334.827 47.0689C332.713 43.7589 330.662 40.6932 327.849 38.0476C327.629 37.8417 327.63 38.127 327.595 38.0971C326.799 37.4405 327.758 37.6196 327.358 36.9868C327.151 37.3575 326.895 37.0065 326.324 36.5472C326.048 36.3267 326.084 36.574 326.049 36.5644C325.503 36.3976 325.439 35.9296 325.41 35.8192C325.303 35.4154 324.836 35.3835 324.756 35.1128C324.674 34.842 325.243 35.0124 324.696 34.5639C324.45 34.5525 324.609 35.1798 324.158 34.891C322.493 33.7926 319.597 31.4315 318.214 30.601C316.843 29.7485 316.381 29.5402 315.573 29.0494C314.11 28.187 314.536 28.7289 313.539 28.3883C312.533 28.0585 313.289 27.6403 313.215 27.4386C313.147 27.2537 312.959 27.3014 312.822 27.1894C312.811 27.1802 312.8 27.1698 312.789 27.1581C312.653 27.0058 313.065 27.0783 312.675 26.8695C312.284 26.6566 311.071 26.4405 310.87 26.5332C310.443 26.724 310.809 27.2403 309.793 26.7146C309.735 26.6845 310 26.5877 309.771 26.481C307.94 25.634 305.944 25.0066 304.022 24.4076C303.756 24.3249 304.046 24.184 303.892 24.1337C302.276 23.623 302.784 24.0995 301.812 24.2892C302.115 23.8307 301.682 23.4097 300.411 23.1891C299.648 23.0613 299.744 23.3049 299.23 23.387C299.076 23.4118 298.56 23.1856 298.448 23.2778C298.083 23.5793 298.54 24.0158 297.265 23.7149C297.208 23.7014 297.41 23.5342 297.215 23.5014C295.946 23.2975 295.763 23.6412 294.388 23.6017C293.312 23.57 291.396 23.3158 290.159 23.3169C290.174 22.7387 288.997 22.9067 288.546 23.3317C287.745 23.3574 286.884 23.4449 286.107 23.4653C285.84 23.4726 285.998 23.2898 285.963 23.2751C285.418 23.0453 285.11 23.47 284.941 23.505C283.098 23.8727 281.535 23.8365 279.836 24.4815C279.775 24.5051 279.759 24.9154 279.231 24.7327C279.196 24.7201 279.735 24.4138 278.909 24.5834C278.085 24.7513 276.483 24.9336 275.408 25.4443C275.147 25.5662 274.559 26.081 273.936 26.0152C273.853 26.0058 273.898 25.8709 273.772 25.8441C273.368 25.7613 273.31 26.2057 272.801 26.0158C272.292 25.8265 271.362 25.8738 270.332 26.526C270.299 26.5463 270.152 26.9461 269.804 27.0798C269.247 27.2923 268.441 27.5582 267.871 27.8122C267.599 27.9337 267.854 28.0384 267.808 28.0627C266.031 28.9803 264.68 29.4497 262.763 30.4234C262.409 30.6019 261.569 31.3978 260.811 31.6121C259.977 31.8542 260.189 30.5538 258.67 31.8076C258.055 32.3226 257.946 33.8852 256.447 34.187C254.362 35.9175 252.222 37.2906 250.421 39.3518C250.339 39.4446 250.306 39.9609 250.102 40.1592C249.797 40.4537 249.519 40.5075 249.3 40.7185C248.379 41.6019 247.701 42.5607 246.895 43.4821C246.59 43.8337 246.565 43.601 246.204 44.0258C245.845 44.4527 245.786 44.8774 245.244 45.409C244.836 45.8105 244.133 46.0015 243.647 46.595C243.993 46.8761 243.679 47.2927 243.264 48.1246C243.185 48.2846 243.419 48.2121 243.388 48.2921C243.266 48.6187 242.988 48.8124 242.887 49.1313C242.862 49.2086 242.988 49.2929 242.976 49.3606C242.873 49.9356 242.122 50.5236 241.993 50.6287C241.499 51.0247 241.533 51.3648 241.235 51.7177C240.938 52.0726 241.169 51.4232 240.866 51.8636C240.235 52.7797 239.621 54.0619 239.152 55.0842C238.966 55.4926 239.276 55.2962 239.254 55.3566C238.922 56.2177 238.371 57.0026 238.56 57.6264C237.361 57.8486 238.444 58.1819 237.814 59.3425C237.764 59.4342 237.254 59.401 237.318 58.9972C237.382 58.5935 237.735 58.0728 237.833 57.5108C237.854 57.3787 237.708 56.4992 237.724 56.3909C237.837 55.5481 238.564 55.7358 238.616 55.7129C239.206 55.4433 239.139 54.4012 239.216 54.1638C239.555 53.0857 240.087 52.2877 240.44 51.4132C240.674 50.8425 240.286 50.5515 240.542 50.1373C241.41 48.7623 242.272 48.6622 242.633 47.0811C242.715 46.7437 242.092 46.7048 243.109 45.9843C243.173 45.9371 243.986 45.4595 244.098 44.918C244.112 44.8496 243.988 44.7584 244.028 44.6843C244.301 44.1892 244.626 43.9706 244.961 43.4602C245.297 42.95 245.7 42.3293 246.196 41.8388C246.494 41.5419 247.065 41.3329 247.251 41.2331C247.776 40.9529 247.948 40.2877 248.366 40.2045C248.785 40.1233 248.583 40.8683 249.328 40.3273C249.066 40.0246 248.828 39.6826 248.58 39.3621C250.015 37.9227 251.574 36.6711 253.128 35.3664C253.321 35.2045 252.985 35.2024 253.189 35.0244C254.055 34.275 254.938 33.7854 255.856 33.0398C256.567 32.462 257.266 31.7007 258.04 31.1237C258.779 31.1799 259.893 30.2898 260.807 29.8047C261.126 29.634 261.167 29.7519 261.408 29.6581C262.321 29.3065 261.729 29.1808 261.93 28.9944C262.803 28.2025 263.321 28.9573 264.495 28.3311C264.555 28.2978 265.117 27.4764 265.214 27.3974C265.816 26.889 265.401 27.4947 265.846 27.3228C266.66 27.0126 267.254 26.8708 268.134 26.3406C268.39 26.1857 268.936 25.6304 269.561 25.6371C269.643 25.6378 269.663 25.8029 269.723 25.7893C270.807 25.5368 270.658 25.0589 271.198 24.6798C271.739 24.3008 272.785 24.3182 273.004 24.3539C273.579 24.4401 272.66 24.5831 272.642 24.6177C272.426 25.011 273.081 24.7335 273.605 24.5948C273.83 25.0421 274.538 24.792 274.148 24.4507C274.104 24.4135 273.716 24.5831 273.605 24.5948C273.91 23.9875 274.704 23.677 275.714 23.8682C276.186 23.9607 275.857 24.299 277.093 23.8839C277.656 23.6999 277.352 23.4239 277.84 23.2098C278.961 22.7207 280.558 22.7176 281.765 22.4646C282.205 22.3723 281.742 22.2602 282.043 22.1912C282.842 22.0091 283.574 22.045 284.379 21.8727C284.452 21.8569 284.247 21.685 284.501 21.6514C286.427 21.3988 288.124 21.3967 290.146 21.3498C291.123 21.3227 292.876 21.2307 293.891 21.3026C295.653 21.4089 297.774 21.9036 299.261 22.0532C300.233 22.1518 300.052 21.9303 300.489 21.8656C301.341 21.7393 302.667 22.4776 302.836 22.5909C302.841 22.593 302.008 22.469 302.427 22.6574C302.64 22.9147 302.826 22.5898 302.836 22.5909C302.952 22.6562 304.583 23.0792 304.911 23.1326C305.092 23.1579 305.04 22.9533 305.133 22.9701C307.36 23.3773 309.55 24.0496 311.643 24.9933C311.679 25.0119 311.545 25.1811 311.63 25.2225C312.292 25.5483 312.855 25.7325 313.41 25.889C313.852 26.0141 314.286 26.1203 314.753 26.2706C315.804 26.609 316.556 27.0602 316.959 27.6813C317.709 28.0316 318.648 28.7527 319.182 29.1892C319.711 29.6219 320.002 29.3318 320.058 29.3563C321.773 30.1376 322.546 30.9465 324.076 32.1423C324.803 32.7074 326.262 33.8202 327.037 34.4528C327.65 34.9464 327.943 35.3435 328.513 35.7993C328.59 35.8614 328.641 35.6626 328.668 35.6783C329.407 36.0882 328.818 36.1332 328.884 36.3057C329.117 36.9336 329.277 37.2994 330.088 37.9536C330.274 38.1031 331.213 38.1819 331.536 38.4871C331.954 38.8838 331.641 38.872 332.077 39.2865C332.114 39.3223 332.213 39.222 332.45 39.5072C333.547 40.8287 334.628 42.3614 335.652 43.821C335.792 44.0208 335.797 43.6371 336.001 43.9252C336.96 45.2773 337.906 46.8364 338.592 48.2995C338.76 48.6598 338.504 48.5163 338.505 48.6137C338.512 49.2067 339.213 49.6781 339.276 49.7865C340.785 52.3342 341.325 54.5601 342.455 57.3313C342.518 57.4782 343.322 58.5504 343.122 59.1975C343.11 59.2425 342.9 59.8769 343.281 60.2773C343.304 60.3026 343.402 59.9162 343.543 60.5039C343.683 61.091 344.05 62.0029 344.023 62.8596C344.015 63.1316 343.779 63.8132 344.226 64.5149C344.259 64.5558 345.158 65.6235 344.76 66.1323C344.693 66.2144 344.193 66.2246 344.589 67.0996C344.664 67.2676 344.727 66.9317 344.865 67.3849C345.076 68.0803 345.065 69.0458 345.377 69.8997C345.432 70.0477 345.836 70.6739 345.621 71.2242C345.587 71.3099 345.408 71.1668 345.411 71.446C345.425 72.769 345.599 74.1509 345.499 75.4909C345.463 75.9654 345.192 75.7254 345.121 76.2174C345.05 76.7102 344.966 77.6973 345.071 78.2132C345.177 78.7318 345.629 78.1826 345.632 78.9607C345.636 82.3504 344.974 85.6614 344.279 88.9465C344.174 89.4336 344.409 89.0594 344.261 89.7808C343.745 92.4453 342.542 97.0019 341.386 99.0866C341.381 99.0964 341.376 99.106 341.37 99.1155C340.426 100.795 341.153 98.4601 340.491 99.7957C340.155 100.454 340.256 101.355 340.19 101.516C339.523 103.133 338.721 103.98 337.967 105.24C337.81 105.5 338.144 105.366 338.007 105.587C337.531 106.354 336.918 107.058 336.434 107.742C336.214 108.052 336.381 108.089 336.159 108.365C335.623 109.035 335.15 109.539 334.527 110.096C334.471 110.145 334.629 109.634 334.241 110.114C333.607 110.897 332.753 111.721 332.125 112.706C331.948 112.987 332.213 113.224 331.565 113.614C331.428 113.697 331.23 113.274 330.966 114.152C330.92 114.302 330.379 115.697 329.688 116.003C329.506 116.086 328.939 116.207 328.714 116.548C328.684 116.595 328.972 116.554 328.765 116.819C328.039 117.743 327.217 118.64 326.456 119.583C326.256 119.831 326.719 119.609 326.416 119.975C325.583 120.982 324.441 122.175 323.54 123.081C323.206 123.416 323.304 123.064 323.268 123.078C322.683 123.295 322.752 123.8 322.646 123.951C321.983 124.887 321.266 125.407 320.597 126.22C320.412 126.443 320.688 126.415 320.662 126.469C320.381 127.021 320.432 126.467 320.151 126.724C319.364 127.441 318.587 128.326 317.89 129.141C317.634 129.44 318.09 129.255 317.859 129.521C316.497 131.1 315.052 132.705 313.633 134.166C313.366 134.441 313.398 134.151 313.317 134.186C312.757 134.43 312.513 135.273 312.421 135.434C311.996 136.178 311.671 136.337 311.218 136.921C309 139.782 306.195 143.217 304.319 145.974C301.935 149.538 300.024 152.551 299.724 156.133C299.715 156.346 299.945 156.145 299.943 156.323C299.925 157.911 300.364 159.124 301.45 160.129C302.043 160.678 302.56 160.919 302.926 160.937C303.016 160.941 302.918 160.723 303.041 160.716C303.259 160.699 303.631 160.61 304.12 160.34C304.361 160.203 304.166 160.572 304.413 160.421C304.96 160.085 305.556 159.453 306.047 158.718C306.248 158.412 305.764 158.722 306.023 158.353C307.827 155.69 309.15 152.323 310.611 149.043C310.71 148.819 311.192 148.758 311.284 148.228C311.183 148.151 311.048 148.108 310.931 148.05C312.546 143.042 313.998 138.026 315.215 132.837C315.266 132.618 314.955 132.945 315.053 132.521C315.61 130.089 316.061 127.655 316.786 125.195C316.858 124.945 317.231 125.152 317.318 124.396C317.333 124.259 317.495 123.147 317.462 122.846C317.457 122.803 317.231 122.975 317.296 122.607C317.669 120.504 318.108 118.323 318.58 116.261C318.654 115.939 318.792 116.324 318.849 116.087C319.253 114.36 319.403 112.492 319.836 110.892C320.133 109.771 320.397 110.343 320.836 109.728C320.867 109.687 320.91 109.493 320.966 109.339C320.993 109.272 321.03 109.165 321.071 109.085C321.112 109.008 321.157 108.964 321.208 108.962C321.718 108.935 322.209 109.378 322.76 109.303C322.884 109.251 322.878 108.416 323.082 108.958C323.084 109.01 323.098 109.104 323.103 109.334C323.101 109.605 323.128 109.735 323.161 109.835C323.209 109.955 323.44 109.783 323.488 110.026C323.512 110.15 323.471 110.278 323.426 110.44C323.385 110.584 323.347 110.709 323.367 110.909C323.408 111.296 323.655 111.208 323.565 111.965ZM321.507 31.1905C321.908 31.702 322.391 31.1739 321.736 30.9281C321.704 30.917 321.485 31.1645 321.507 31.1905ZM251.942 37.107C252.754 36.8067 252.881 36.1006 252.286 36.29C251.69 36.4845 251.693 37.2011 251.942 37.107ZM246.254 43.2764C247.05 42.7159 246.388 41.9434 245.88 42.8567C245.851 42.9098 246.208 43.3097 246.254 43.2764ZM320.511 112.465C320.522 112.454 320.611 111.952 320.603 111.942C320.423 111.64 320.246 112.64 320.511 112.465ZM241.657 50.1804C241.922 49.9973 242.232 49.1965 241.896 49.4181C241.623 49.5973 241.323 50.4095 241.657 50.1804ZM340.305 56.74C340.299 56.7526 340.41 57.0909 340.463 57.0641C340.637 56.977 340.417 56.5274 340.305 56.74ZM236.285 63.1359C236.846 61.1227 238.024 60.1993 237.308 62.3032C237.182 62.6875 237.289 61.3943 237.077 61.8682C236.687 62.7435 237.037 63.478 236.549 64.3545C236.457 64.5159 236.248 63.2516 236.285 63.132C236.285 63.1333 236.285 63.1346 236.285 63.1359ZM321.316 32.0941C321.321 32.1084 321.717 32.3971 321.732 32.3967C322.08 32.366 321.279 31.7813 321.316 32.0941ZM343.213 77.0987C343.195 77.1275 343.15 78.2563 343.164 78.2945C343.518 78.9009 343.614 76.5993 343.213 77.0987ZM290.139 23.302C289.613 23.5408 288.987 23.5932 288.549 23.3319C289.077 23.3191 289.608 23.3008 290.139 23.302Z" fill="#FF6200"/>
<path d="M141.347 132.753C138.63 134.17 135.766 134.879 132.755 134.879C130.216 134.879 127.854 134.259 125.669 133.019C123.484 131.779 122.007 129.801 121.24 127.084C120.886 125.844 120.708 124.545 120.708 123.187C120.708 120.943 121.092 118.64 121.86 116.278C122.687 113.857 123.749 111.643 125.049 109.635C127.056 106.505 129.596 103.907 132.666 101.84C135.737 99.7734 139.132 98.74 142.852 98.74C145.628 98.74 147.783 99.4486 149.318 100.866C150.854 102.283 151.621 103.936 151.621 105.826C151.621 108.07 150.854 110.048 149.318 111.761C147.842 113.414 145.894 114.684 143.472 115.569C142.291 115.983 141.022 116.308 139.664 116.544C138.365 116.721 137.124 116.81 135.943 116.81C133.522 116.81 131.662 116.485 130.363 115.835C129.241 118.729 128.68 121.386 128.68 123.807C128.68 125.992 129.182 127.793 130.186 129.21C131.19 130.568 132.784 131.247 134.969 131.247C136.8 131.247 138.601 130.746 140.372 129.742C142.203 128.738 143.886 127.498 145.421 126.021C147.015 124.545 148.344 123.128 149.407 121.77C150.234 120.766 150.942 119.821 151.533 118.935C152.123 118.05 152.743 117.046 153.393 115.924C154.043 114.743 154.81 113.296 155.696 111.584C155.932 111.17 156.139 110.964 156.316 110.964C156.67 110.964 156.847 111.436 156.847 112.381C156.847 112.912 156.759 113.503 156.582 114.152C156.464 114.743 156.227 115.363 155.873 116.012C155.046 117.489 154.043 119.113 152.862 120.884C151.74 122.597 150.588 124.25 149.407 125.844C148.344 127.262 147.134 128.561 145.775 129.742C144.417 130.923 142.941 131.927 141.347 132.753ZM133.286 113.887C133.581 114.064 133.906 114.182 134.261 114.241C134.615 114.3 134.969 114.329 135.323 114.329C136.504 114.329 137.685 114.064 138.866 113.532C140.048 112.942 141.051 112.351 141.878 111.761C143.236 110.816 144.388 109.694 145.333 108.395C146.277 107.096 146.809 105.619 146.927 103.966C146.986 103.257 146.809 102.667 146.395 102.194C146.041 101.663 145.392 101.397 144.447 101.397C143.974 101.397 143.384 101.486 142.675 101.663C141.73 101.899 140.786 102.342 139.841 102.992C138.896 103.641 137.981 104.409 137.095 105.295C136.8 105.59 136.268 106.18 135.501 107.066C134.792 107.893 134.113 108.838 133.463 109.901C132.814 110.904 132.489 111.79 132.489 112.558C132.489 113.207 132.755 113.65 133.286 113.887ZM173.092 132.753C170.376 134.17 167.512 134.879 164.5 134.879C161.961 134.879 159.599 134.259 157.414 133.019C155.229 131.779 153.753 129.801 152.985 127.084C152.631 125.844 152.454 124.545 152.454 123.187C152.454 120.943 152.838 118.64 153.605 116.278C154.432 113.857 155.495 111.643 156.794 109.635C158.802 106.505 161.341 103.907 164.412 101.84C167.482 99.7734 170.878 98.74 174.598 98.74C177.373 98.74 179.529 99.4486 181.064 100.866C182.599 102.283 183.367 103.936 183.367 105.826C183.367 108.07 182.599 110.048 181.064 111.761C179.588 113.414 177.639 114.684 175.218 115.569C174.037 115.983 172.767 116.308 171.409 116.544C170.11 116.721 168.87 116.81 167.689 116.81C165.268 116.81 163.408 116.485 162.109 115.835C160.987 118.729 160.426 121.386 160.426 123.807C160.426 125.992 160.928 127.793 161.932 129.21C162.935 130.568 164.53 131.247 166.715 131.247C168.545 131.247 170.346 130.746 172.118 129.742C173.948 128.738 175.631 127.498 177.167 126.021C178.761 124.545 180.09 123.128 181.153 121.77C181.979 120.766 182.688 119.821 183.278 118.935C183.869 118.05 184.489 117.046 185.139 115.924C185.788 114.743 186.556 113.296 187.442 111.584C187.678 111.17 187.884 110.964 188.062 110.964C188.416 110.964 188.593 111.436 188.593 112.381C188.593 112.912 188.504 113.503 188.327 114.152C188.209 114.743 187.973 115.363 187.619 116.012C186.792 117.489 185.788 119.113 184.607 120.884C183.485 122.597 182.334 124.25 181.153 125.844C180.09 127.262 178.879 128.561 177.521 129.742C176.163 130.923 174.687 131.927 173.092 132.753ZM165.032 113.887C165.327 114.064 165.652 114.182 166.006 114.241C166.36 114.3 166.715 114.329 167.069 114.329C168.25 114.329 169.431 114.064 170.612 113.532C171.793 112.942 172.797 112.351 173.624 111.761C174.982 110.816 176.133 109.694 177.078 108.395C178.023 107.096 178.554 105.619 178.672 103.966C178.732 103.257 178.554 102.667 178.141 102.194C177.787 101.663 177.137 101.397 176.192 101.397C175.72 101.397 175.129 101.486 174.421 101.663C173.476 101.899 172.531 102.342 171.586 102.992C170.642 103.641 169.726 104.409 168.841 105.295C168.545 105.59 168.014 106.18 167.246 107.066C166.538 107.893 165.858 108.838 165.209 109.901C164.559 110.904 164.235 111.79 164.235 112.558C164.235 113.207 164.5 113.65 165.032 113.887ZM191.374 134.525C189.662 134.525 188.363 133.846 187.477 132.488C187.063 131.838 186.768 131.07 186.591 130.185C186.414 129.299 186.325 128.383 186.325 127.439C186.325 126.494 186.384 125.549 186.502 124.604C186.621 123.6 186.768 122.626 186.945 121.681C187.241 120.146 187.565 118.758 187.92 117.518C188.333 116.219 188.746 114.979 189.16 113.798V113.709C188.687 114.595 188.097 115.569 187.388 116.632C186.68 117.636 186.178 118.374 185.882 118.847C185.469 119.496 185.144 119.821 184.908 119.821C184.672 119.821 184.554 119.555 184.554 119.024C184.554 117.843 184.908 116.544 185.617 115.127C186.089 114.182 186.739 112.971 187.565 111.495C188.392 109.96 189.248 108.306 190.134 106.535C191.02 104.763 191.788 103.051 192.437 101.397H186.502C186.207 101.397 186.148 101.161 186.325 100.689C186.502 100.216 186.768 99.7734 187.123 99.36C187.477 98.8876 187.743 98.6514 187.92 98.6514H194.651C195.301 97.1161 196.039 95.4627 196.866 93.6912C197.752 91.9196 198.726 90.2662 199.789 88.7309C200.911 87.1365 202.121 85.8374 203.421 84.8335C204.72 83.8297 206.107 83.3277 207.584 83.3277C208.233 83.3277 209.03 83.3277 209.975 83.3277C210.979 83.3277 211.599 83.2982 211.835 83.2392C210.595 84.0659 209.148 85.7193 207.495 88.1994C205.842 90.6205 204.041 94.1045 202.092 98.6514H211.038C211.215 98.6514 211.156 98.8876 210.861 99.36C210.566 99.7734 210.182 100.216 209.709 100.689C209.296 101.161 208.883 101.397 208.469 101.397H200.852C200.084 103.346 199.228 105.472 198.283 107.775C197.397 110.078 196.571 112.351 195.803 114.595C195.094 116.78 194.563 118.788 194.209 120.618C193.972 121.74 193.854 122.774 193.854 123.718C193.854 125.962 194.563 127.084 195.98 127.084C196.925 127.084 198.047 126.612 199.346 125.667C200.645 124.722 201.944 123.423 203.243 121.77C204.424 120.234 205.546 118.581 206.609 116.81C207.731 115.038 208.676 113.414 209.444 111.938C209.68 111.524 209.887 111.318 210.064 111.318C210.418 111.318 210.595 111.79 210.595 112.735C210.595 113.207 210.507 113.768 210.329 114.418C210.211 115.008 209.975 115.599 209.621 116.19C208.794 117.607 207.82 119.172 206.698 120.884C205.576 122.537 204.424 124.191 203.243 125.844C202.417 126.907 201.324 128.118 199.966 129.476C198.667 130.834 197.25 132.015 195.714 133.019C194.238 134.023 192.791 134.525 191.374 134.525ZM217.772 134.879C214.997 134.879 212.753 134.377 211.04 133.373C209.328 132.31 208.088 130.923 207.32 129.21C206.611 127.439 206.257 125.549 206.257 123.541C206.257 121.534 206.552 119.496 207.143 117.43C207.733 115.363 208.53 113.414 209.534 111.584C211.601 107.863 214.14 104.793 217.152 102.372C220.223 99.9505 223.972 98.74 228.401 98.74C231.176 98.74 233.332 99.4486 234.867 100.866C236.402 102.283 237.17 103.936 237.17 105.826C237.17 107.598 236.639 109.222 235.576 110.698C234.572 112.174 233.214 112.912 231.501 112.912C230.556 112.912 229.73 112.646 229.021 112.115C228.313 111.584 227.958 110.757 227.958 109.635C227.958 109.458 227.958 109.281 227.958 109.103C228.017 108.867 228.076 108.631 228.135 108.395C228.49 108.336 228.992 108.247 229.641 108.129C230.35 107.952 230.911 107.539 231.324 106.889C232.092 105.826 232.476 104.763 232.476 103.7C232.476 103.051 232.269 102.519 231.856 102.106C231.501 101.633 230.881 101.397 229.995 101.397C228.401 101.397 226.777 101.988 225.124 103.169C223.47 104.291 221.906 105.797 220.429 107.686C219.012 109.576 217.772 111.643 216.709 113.887C215.056 117.489 214.229 120.795 214.229 123.807C214.229 125.992 214.731 127.793 215.735 129.21C216.739 130.568 218.333 131.247 220.518 131.247C223.293 131.247 225.891 130.303 228.313 128.413C230.793 126.464 233.007 124.22 234.956 121.681C236.255 120.028 237.406 118.345 238.41 116.632C239.473 114.92 240.359 113.355 241.067 111.938C241.304 111.524 241.51 111.318 241.688 111.318C242.042 111.318 242.219 111.82 242.219 112.824C242.219 113.296 242.13 113.857 241.953 114.507C241.835 115.097 241.628 115.658 241.333 116.19C240.329 117.843 239.296 119.496 238.233 121.15C237.229 122.803 236.137 124.368 234.956 125.844C232.948 128.443 230.586 130.598 227.87 132.31C225.153 134.023 221.787 134.879 217.772 134.879ZM261.741 134.525C259.733 134.525 258.346 133.934 257.578 132.753C256.869 131.513 256.515 130.096 256.515 128.502C256.515 126.789 256.781 124.811 257.312 122.567C257.903 120.264 258.611 117.902 259.438 115.481C260.324 113.001 261.21 110.698 262.095 108.572C262.391 107.863 262.656 107.096 262.893 106.269C263.188 105.442 263.335 104.704 263.335 104.055C263.335 102.874 262.804 102.283 261.741 102.283C261.328 102.283 260.855 102.372 260.324 102.549C259.792 102.667 259.172 102.933 258.464 103.346C257.224 103.936 256.043 104.763 254.921 105.826C253.799 106.83 253.031 107.598 252.618 108.129C251.85 109.074 251.112 110.137 250.403 111.318C249.695 112.44 249.075 113.591 248.543 114.772C247.362 117.311 246.417 119.733 245.709 122.036C245.059 124.279 244.439 126.199 243.849 127.793C243.494 128.797 243.14 129.83 242.786 130.893C242.431 131.956 242.107 132.989 241.811 133.993H233.219C233.219 133.993 233.426 133.255 233.84 131.779C234.253 130.303 234.755 128.826 235.345 127.35C238.062 120.323 240.63 113.148 243.051 105.826C245.473 98.5038 248.396 91.4768 251.82 84.745C253.356 81.7334 255.009 78.958 256.781 76.4188C258.611 73.8796 260.53 71.8719 262.538 70.3956C264.605 68.8603 266.76 68.0926 269.004 68.0926C270.776 68.0926 271.986 68.506 272.636 69.3327C273.344 70.1004 273.699 71.0747 273.699 72.2557C273.699 73.5548 273.433 74.913 272.902 76.3302C272.37 77.7474 271.839 78.958 271.307 79.9618C270.244 82.0877 268.857 84.4792 267.144 87.1365C265.432 89.7938 263.631 92.2739 261.741 94.5769C261.328 95.1084 260.619 95.9646 259.615 97.1456C258.611 98.2676 257.578 99.4191 256.515 100.6C255.511 101.781 254.714 102.696 254.123 103.346C256.072 101.929 257.755 100.836 259.172 100.069C260.59 99.301 261.8 98.7695 262.804 98.4743C264.516 98.0019 265.934 97.7657 267.056 97.7657C270.421 97.7657 272.104 99.2419 272.104 102.194C272.104 103.435 271.75 104.911 271.042 106.623C270.687 107.568 270.185 108.838 269.536 110.432C268.886 112.026 268.207 113.739 267.498 115.569C266.849 117.341 266.288 119.053 265.816 120.707C265.402 122.36 265.195 123.718 265.195 124.781C265.195 125.431 265.284 126.021 265.461 126.553C265.697 127.025 266.111 127.262 266.701 127.262C267.115 127.262 267.705 127.055 268.473 126.641C270.126 125.697 271.662 124.368 273.079 122.656C274.555 120.943 275.854 119.113 276.976 117.164C278.157 115.215 279.161 113.444 279.988 111.849C280.165 111.436 280.372 111.229 280.608 111.229C280.903 111.229 281.051 111.731 281.051 112.735C281.051 113.207 280.992 113.768 280.873 114.418C280.755 115.008 280.519 115.599 280.165 116.19C279.338 117.607 278.246 119.349 276.888 121.416C275.588 123.482 274.112 125.52 272.459 127.527C270.805 129.476 269.063 131.129 267.233 132.488C265.402 133.846 263.572 134.525 261.741 134.525ZM251.555 102.726C254.507 99.2419 257.489 95.5217 260.501 91.5653C263.572 87.5499 266.111 83.4754 268.119 79.3418C268.237 79.0466 268.502 78.4561 268.916 77.5703C269.329 76.6845 269.713 75.7102 270.067 74.6473C270.421 73.5253 270.599 72.5805 270.599 71.8128C270.599 70.809 270.215 70.307 269.447 70.307C268.679 70.307 267.764 70.8385 266.701 71.9014C265.697 72.9643 264.664 74.3815 263.601 76.1531C262.243 78.397 260.855 80.9952 259.438 83.9478C258.021 86.8413 256.633 89.9119 255.275 93.1597C253.976 96.4075 252.736 99.5962 251.555 102.726ZM303.857 134.525C302.026 134.525 300.757 133.816 300.048 132.399C299.399 130.982 299.074 129.24 299.074 127.173C299.074 125.283 299.251 123.423 299.605 121.593C299.782 120.766 299.96 119.939 300.137 119.113C300.373 118.227 300.639 117.311 300.934 116.367C299.93 118.197 298.867 119.969 297.745 121.681C296.682 123.394 295.59 124.899 294.468 126.199C292.578 128.502 290.57 130.421 288.445 131.956C286.378 133.491 284.311 134.259 282.244 134.259C280.591 134.259 279.174 133.669 277.993 132.488C276.871 131.247 276.31 129.122 276.31 126.11C276.31 123.039 276.841 119.88 277.904 116.632C278.967 113.385 280.443 110.373 282.333 107.598C284.282 104.763 286.555 102.49 289.153 100.777C291.811 99.0648 294.704 98.2085 297.834 98.2085C298.838 98.2085 299.93 98.3562 301.111 98.6514C302.292 98.9467 303.385 99.5077 304.388 100.334C305.392 101.102 306.071 102.194 306.426 103.612C306.485 103.494 306.544 103.405 306.603 103.346C306.721 103.287 306.809 103.228 306.869 103.169C307.695 101.87 308.64 100.777 309.703 99.8915C310.766 99.0057 311.947 98.5628 313.246 98.5628C313.896 98.5628 314.811 98.5924 315.992 98.6514C317.173 98.7105 318.029 98.7105 318.561 98.6514C318.265 98.8876 317.852 99.36 317.32 100.069C316.848 100.777 316.405 101.515 315.992 102.283C315.578 102.992 315.254 103.553 315.018 103.966C313.423 107.037 311.976 110.078 310.677 113.089C309.378 116.101 308.374 118.994 307.666 121.77C307.489 122.36 307.37 122.921 307.311 123.453C307.252 123.925 307.223 124.398 307.223 124.87C307.223 126.405 307.725 127.173 308.729 127.173C309.673 127.173 310.854 126.582 312.272 125.401C314.338 123.748 316.139 121.681 317.675 119.201C319.269 116.721 320.657 114.329 321.838 112.026C322.074 111.613 322.281 111.406 322.458 111.406C322.812 111.406 322.989 111.908 322.989 112.912C322.989 113.385 322.901 113.916 322.724 114.507C322.606 115.097 322.399 115.658 322.104 116.19C321.277 117.607 320.184 119.349 318.826 121.416C317.527 123.482 316.051 125.52 314.397 127.527C312.744 129.476 311.002 131.129 309.171 132.488C307.4 133.846 305.628 134.525 303.857 134.525ZM286.23 126.819C286.407 126.878 286.673 126.907 287.027 126.907C288.149 126.907 289.36 126.435 290.659 125.49C291.958 124.545 293.257 123.335 294.556 121.858C295.856 120.323 297.007 118.788 298.011 117.252C300.609 113.119 302.528 110.019 303.768 107.952C305.008 105.885 305.717 104.704 305.894 104.409C305.599 103.405 305.067 102.667 304.3 102.194C303.591 101.722 302.735 101.486 301.731 101.486C300.432 101.486 299.044 101.84 297.568 102.549C296.151 103.257 294.94 104.114 293.936 105.117C292.401 106.653 290.925 108.631 289.508 111.052C288.149 113.473 287.027 115.865 286.142 118.227C285.315 120.589 284.902 122.567 284.902 124.161C284.902 125.638 285.344 126.523 286.23 126.819Z" fill="#FF6200"/>
</svg>
