<svg width="283" height="335" viewBox="0 0 283 335" fill="none" xmlns="http://www.w3.org/2000/svg">
<g clip-path="url(#clip0_110_6733)">
<rect width="283" height="335" rx="20" fill="white"/>
<path d="M207.178 109.144L201.063 103.029L207.178 96.9136" stroke="#FF6200" stroke-width="1.44131" stroke-linecap="round" stroke-linejoin="round"/>
<path d="M12.8318 37.79H19.5663V47.2184H12.8318V37.79ZM17.5989 39.3791H14.8143V45.6294H17.5989V39.3791ZM21.7607 36.5188H23.7735V50.5781H21.7607V36.5188ZM26.8294 42.8296H28.0401C28.9985 42.8296 29.841 42.8246 30.5674 42.8145C31.3039 42.7943 31.9849 42.759 32.6105 42.7085C33.2461 42.6581 33.8868 42.5824 34.5325 42.4815L34.7292 44.0554C34.0633 44.1563 33.4025 44.237 32.7467 44.2976C32.101 44.348 31.3998 44.3833 30.6431 44.4035C29.8864 44.4136 29.0187 44.4186 28.0401 44.4186H26.8294V42.8296ZM26.8294 37.5025H33.579V39.1067H28.827V43.4652H26.8294V37.5025ZM28.2065 40.166H33.1704V41.7248H28.2065V40.166ZM35.6978 36.5491H37.7106V45.024H35.6978V36.5491ZM32.9737 45.2359C33.9624 45.2359 34.815 45.3418 35.5313 45.5537C36.2476 45.7656 36.7975 46.0682 37.1809 46.4617C37.5744 46.8552 37.7711 47.3344 37.7711 47.8994C37.7711 48.7469 37.3423 49.4027 36.4847 49.8668C35.6271 50.3309 34.4568 50.563 32.9737 50.563C31.4906 50.563 30.3202 50.3309 29.4626 49.8668C28.6152 49.4027 28.1914 48.7469 28.1914 47.8994C28.1914 47.062 28.6152 46.4113 29.4626 45.9472C30.3202 45.473 31.4906 45.2359 32.9737 45.2359ZM32.9737 46.7644C32.3683 46.7644 31.8588 46.8047 31.4452 46.8855C31.0315 46.9662 30.7188 47.0923 30.5069 47.2638C30.295 47.4353 30.1891 47.6472 30.1891 47.8994C30.1891 48.1517 30.295 48.3635 30.5069 48.535C30.7188 48.6965 31.0315 48.8175 31.4452 48.8983C31.8588 48.979 32.3683 49.0193 32.9737 49.0193C33.5891 49.0193 34.0986 48.979 34.5022 48.8983C34.9159 48.8175 35.2286 48.6965 35.4405 48.535C35.6625 48.3635 35.7734 48.1517 35.7734 47.8994C35.7734 47.6472 35.6625 47.4353 35.4405 47.2638C35.2286 47.0923 34.9159 46.9662 34.5022 46.8855C34.0986 46.8047 33.5891 46.7644 32.9737 46.7644ZM53.4884 36.5339H55.4104V50.5478H53.4884V36.5339ZM48.8726 41.3314H51.2032V42.9658H48.8726V41.3314ZM50.6584 36.7609H52.535V49.9122H50.6584V36.7609ZM45.8609 38.8191H47.3743V40.2569C47.3743 41.0438 47.3138 41.8207 47.1927 42.5875C47.0817 43.3542 46.9052 44.0807 46.663 44.7667C46.4209 45.4427 46.1031 46.0531 45.7096 46.5979C45.3161 47.1427 44.8419 47.5917 44.287 47.9448L43.0915 46.4617C43.7775 46.0279 44.3223 45.4831 44.7259 44.8273C45.1295 44.1614 45.417 43.435 45.5885 42.648C45.7701 41.8509 45.8609 41.0539 45.8609 40.2569V38.8191ZM46.315 38.8191H47.8132V40.2569C47.8132 41.0337 47.899 41.8005 48.0705 42.5572C48.242 43.3139 48.5245 44.005 48.918 44.6305C49.3115 45.246 49.8462 45.7504 50.5222 46.1439L49.3569 47.5967C48.6103 47.1528 48.015 46.5525 47.5711 45.7958C47.1271 45.0391 46.8043 44.1866 46.6025 43.2382C46.4108 42.2797 46.315 41.286 46.315 40.2569V38.8191ZM43.606 37.9414H49.8563V39.5607H43.606V37.9414ZM58.8446 37.0939H68.3637V42.0426H58.8446V37.0939ZM66.3812 38.6678H60.8271V40.4687H66.3812V38.6678ZM57.2858 43.3744H69.9679V44.9635H57.2858V43.3744ZM62.6129 41.6946H64.6105V43.8133H62.6129V41.6946ZM58.6932 45.9774H68.4394V50.563H66.4266V47.5513H58.6932V45.9774Z" fill="#B9B9B9"/>
<line x1="11.5303" y1="58.3416" x2="271.688" y2="58.3416" stroke="#FF6200" stroke-width="0.720657"/>
<rect x="11.8906" y="76.3747" width="259.437" height="49.0047" rx="5.40493" fill="white"/>
<rect x="11.8906" y="76.3747" width="259.437" height="49.0047" rx="5.40493" stroke="#E8E8E8" stroke-width="0.720657"/>
<path d="M31.7087 106.009H38.1947" stroke="#FFC8A5" stroke-width="1.44131" stroke-linecap="round" stroke-linejoin="round"/>
<path d="M34.9515 94.1184C35.2382 93.8317 35.6271 93.6707 36.0325 93.6707C36.2333 93.6707 36.4321 93.7102 36.6175 93.787C36.803 93.8638 36.9715 93.9765 37.1135 94.1184C37.2555 94.2604 37.3681 94.4289 37.4449 94.6144C37.5217 94.7998 37.5613 94.9986 37.5613 95.1994C37.5613 95.4002 37.5217 95.5989 37.4449 95.7844C37.3681 95.9699 37.2555 96.1384 37.1135 96.2804L28.1053 105.289L25.2227 106.009L25.9433 103.127L34.9515 94.1184Z" stroke="#FFC8A5" stroke-width="1.44131" stroke-linecap="round" stroke-linejoin="round"/>
<path d="M56.8429 87.5191V93.3224H52.7047V87.5191H56.8429ZM53.6309 88.2581V92.5637H55.9364V88.2581H53.6309ZM59.5228 86.6718V95.5195H58.5868V86.6718H59.5228ZM65.6808 87.3122V88.061H62.3801V89.0364H65.4345V89.7754H62.3801V90.7804C64.1487 90.7902 65.1783 90.7607 66.3705 90.5538L66.469 91.3124C65.1882 91.5193 64.0945 91.5489 62.1634 91.5489H61.4343V87.3122H65.6808ZM68.2524 86.6816V92.1105H67.3163V86.6816H68.2524ZM65.2965 92.2287C67.1488 92.2287 68.3016 92.8297 68.3016 93.8544C68.3016 94.889 67.1488 95.49 65.2965 95.4801C63.4245 95.49 62.2915 94.889 62.2915 93.8544C62.2915 92.8297 63.4245 92.2287 65.2965 92.2287ZM65.2965 92.9677C63.9763 92.9677 63.2275 93.2928 63.2275 93.8544C63.2275 94.4357 63.9763 94.7609 65.2965 94.7609C66.5872 94.7609 67.3656 94.4357 67.3656 93.8544C67.3656 93.2928 66.5872 92.9677 65.2965 92.9677ZM79.4746 86.6718V91.2139H78.5386V88.9478H76.6764V88.1891H78.5386V86.6718H79.4746ZM79.4746 91.6277V93.8249H74.6369V94.6426H79.7801V95.3915H73.7206V93.1155H78.5485V92.3667H73.7009V91.6277H79.4746ZM75.2182 87.726C75.2182 88.8492 76.0262 89.8936 77.3563 90.3173L76.8636 91.0464C75.8932 90.7114 75.1591 90.0463 74.7749 89.2039C74.3857 90.1498 73.627 90.8937 72.5876 91.2533L72.0851 90.5045C73.4645 90.0611 74.2822 88.9675 74.2921 87.726V86.9575H75.2182V87.726ZM88.1943 86.6718V91.8839H87.2583V90.5735H85.337V91.2927H81.2383V87.3319H85.337V88.061H87.2583V86.6718H88.1943ZM82.1644 88.0807V90.5439H84.4207V88.0807H82.1644ZM85.2385 92.1302C87.0908 92.1302 88.2238 92.7411 88.2238 93.815C88.2238 94.8791 87.0908 95.49 85.2385 95.4801C83.3862 95.49 82.2432 94.8791 82.2531 93.815C82.2432 92.7411 83.3862 92.1302 85.2385 92.1302ZM85.2385 92.8495C83.9478 92.8593 83.1792 93.1943 83.1792 93.815C83.1792 94.4062 83.9478 94.7609 85.2385 94.7609C86.5292 94.7609 87.2977 94.4062 87.2977 93.815C87.2977 93.1943 86.5292 92.8593 85.2385 92.8495ZM85.337 89.8148H87.2583V88.8098H85.337V89.8148Z" fill="#959595"/>
<path d="M56.5529 107.589V108.845H52.6527V107.589H56.5529Z" fill="#343434"/>
<path d="M255.49 99.532L251.138 103.884L246.787 99.532" stroke="#A3A3A3" stroke-width="1.44131" stroke-linecap="round" stroke-linejoin="round"/>
<rect x="11.8907" y="134.748" width="259.437" height="49.0047" rx="5.40493" fill="white"/>
<rect x="11.8907" y="134.748" width="259.437" height="49.0047" rx="5.40493" stroke="#E8E8E8" stroke-width="0.720657"/>
<path d="M36.7533 152.851H26.6641C25.8681 152.851 25.2228 153.497 25.2228 154.293V164.382C25.2228 165.178 25.8681 165.823 26.6641 165.823H36.7533C37.5493 165.823 38.1946 165.178 38.1946 164.382V154.293C38.1946 153.497 37.5493 152.851 36.7533 152.851Z" stroke="#FFC8A5" stroke-width="1.44131" stroke-linecap="round" stroke-linejoin="round"/>
<path d="M34.5914 151.41V154.293" stroke="#FFC8A5" stroke-width="1.44131" stroke-linecap="round" stroke-linejoin="round"/>
<path d="M28.8265 151.41V154.293" stroke="#FFC8A5" stroke-width="1.44131" stroke-linecap="round" stroke-linejoin="round"/>
<path d="M25.2228 157.175H38.1946" stroke="#FFC8A5" stroke-width="1.44131" stroke-linecap="round" stroke-linejoin="round"/>
<path d="M56.843 145.892V151.696H52.7049V145.892H56.843ZM53.631 146.631V150.937H55.9366V146.631H53.631ZM59.523 145.045V153.893H58.5869V145.045H59.523ZM65.6809 145.686V146.434H62.3802V147.41H65.4346V148.149H62.3802V149.154C64.1488 149.164 65.1784 149.134 66.3706 148.927L66.4691 149.686C65.1883 149.893 64.0946 149.922 62.1635 149.922H61.4344V145.686H65.6809ZM68.2525 145.055V150.484H67.3165V145.055H68.2525ZM65.2967 150.602C67.149 150.602 68.3017 151.203 68.3017 152.228C68.3017 153.262 67.149 153.863 65.2967 153.853C63.4246 153.863 62.2916 153.262 62.2916 152.228C62.2916 151.203 63.4246 150.602 65.2967 150.602ZM65.2967 151.341C63.9764 151.341 63.2276 151.666 63.2276 152.228C63.2276 152.809 63.9764 153.134 65.2967 153.134C66.5874 153.134 67.3657 152.809 67.3657 152.228C67.3657 151.666 66.5874 151.341 65.2967 151.341ZM79.7112 146.02V146.789H72.5286V146.02H75.6716V145.006H76.5977V146.02H79.7112ZM80.194 150.76V151.528H76.5977V153.883H75.6716V151.528H72.1148V150.76H80.194ZM76.1347 147.242C77.9673 147.242 79.0708 147.764 79.0708 148.73C79.0708 149.676 77.9673 150.198 76.1347 150.208C74.2922 150.198 73.1887 149.676 73.1986 148.73C73.1887 147.764 74.2922 147.242 76.1347 147.242ZM76.1347 147.942C74.8637 147.942 74.1641 148.218 74.1641 148.73C74.1641 149.223 74.8637 149.499 76.1347 149.499C77.3958 149.499 78.0954 149.223 78.1052 148.73C78.0954 148.218 77.3958 147.942 76.1347 147.942ZM88.9137 152.001V152.779H80.8344V152.001H84.3913V150.188H81.7606V145.646H82.6966V147.163H87.0318V145.646H87.9579V150.188H85.3174V152.001H88.9137ZM82.6966 149.43H87.0318V147.922H82.6966V149.43ZM98.9536 145.045V146.819H100.234V147.607H98.9536V149.469H98.0176V145.045H98.9536ZM93.3572 145.439V148.316C94.5445 148.306 95.7958 148.213 97.1506 147.942L97.2688 148.72C95.781 149.016 94.441 149.104 93.1405 149.104H92.4212V145.439H93.3572ZM98.9536 149.873V152.119H94.1947V153.006H99.259V153.765H93.2686V151.4H98.0176V150.612H93.2489V149.873H98.9536ZM107.851 145.045V148.494H109.013V149.282H107.851V153.873H106.915V145.045H107.851ZM102.826 147.548C102.826 148.538 102.944 149.893 103.634 150.848C104.289 149.912 104.422 148.572 104.432 147.548V146.661H103.801V145.902H106.264V146.661H105.318V147.548C105.318 148.907 105.575 150.523 106.678 151.331L106.077 152.011C105.447 151.523 105.077 150.75 104.865 149.873C104.663 150.77 104.289 151.587 103.624 152.09C102.969 151.592 102.594 150.77 102.392 149.883C102.171 150.75 101.801 151.528 101.18 152.011L100.579 151.331C101.673 150.513 101.939 148.868 101.939 147.548V146.661H100.885V145.902H103.446V146.661H102.826V147.548Z" fill="#959595"/>
<path d="M111.999 149.912H111.25L111.309 148.444L110.067 149.232L109.693 148.582L111.003 147.912L109.693 147.232L110.067 146.582L111.309 147.37L111.25 145.902H111.999L111.93 147.37L113.171 146.582L113.555 147.232L112.245 147.912L113.555 148.582L113.171 149.232L111.93 148.444L111.999 149.912Z" fill="#FF6200"/>
<path d="M52.6049 170.198V169.073L55.6677 166.118C56.5411 165.244 56.9957 164.73 56.9957 164C56.9957 163.199 56.3616 162.684 55.5122 162.684C54.6149 162.684 54.0406 163.246 54.0526 164.12H52.569C52.5571 162.481 53.7894 161.416 55.5242 161.416C57.2948 161.416 58.4912 162.469 58.4912 163.928C58.4912 164.909 58.0127 165.699 56.3138 167.302L54.7704 168.834V168.893H58.6228V170.198H52.6049ZM63.3036 170.317C61.2219 170.317 59.9776 168.702 59.9776 165.867C59.9776 163.043 61.2219 161.416 63.3036 161.416C65.3734 161.416 66.6296 163.043 66.6296 165.867C66.6296 168.702 65.3854 170.317 63.3036 170.317ZM63.3036 169.013C64.3924 169.013 65.0624 167.948 65.0624 165.867C65.0624 163.797 64.3804 162.708 63.3036 162.708C62.2269 162.708 61.5449 163.797 61.5449 165.867C61.5449 167.948 62.2149 169.013 63.3036 169.013ZM68.0562 170.198V169.073L71.119 166.118C71.9924 165.244 72.447 164.73 72.447 164C72.447 163.199 71.8129 162.684 70.9635 162.684C70.0662 162.684 69.4919 163.246 69.5039 164.12H68.0203C68.0084 162.481 69.2407 161.416 70.9755 161.416C72.7461 161.416 73.9425 162.469 73.9425 163.928C73.9425 164.909 73.464 165.699 71.7651 167.302L70.2217 168.834V168.893H74.0742V170.198H68.0562ZM78.6353 170.317C76.9005 170.317 75.6323 169.288 75.5845 167.853H77.1039C77.1518 168.558 77.8098 169.061 78.6353 169.061C79.6044 169.061 80.2983 168.355 80.2983 167.398C80.2983 166.405 79.5805 165.699 78.5875 165.699C77.9175 165.687 77.427 165.926 77.1518 166.441H75.7041L76.2306 161.536H81.3512V162.84H77.5107L77.2475 165.137H77.3312C77.6662 164.754 78.3003 164.479 79.0062 164.479C80.6214 164.479 81.8058 165.687 81.8058 167.35C81.8058 169.085 80.5017 170.317 78.6353 170.317ZM91.9422 160.459V168.427H90.6142V164.826H87.7907V163.773H90.6142V162.792H87.7907V161.739H90.6142V160.459H91.9422ZM92.2174 169.97V171.047H84.8356V167.721H86.1755V169.97H92.2174ZM84.8236 161.177V165.855C86.1995 165.837 87.4976 165.753 88.9512 165.496L89.0828 166.572C87.4198 166.883 85.9602 166.943 84.357 166.955H83.5076V161.177H84.8236ZM100.06 170.317C98.3248 170.317 97.0566 169.288 97.0087 167.853H98.5282C98.576 168.558 99.234 169.061 100.06 169.061C101.029 169.061 101.723 168.355 101.723 167.398C101.723 166.405 101.005 165.699 100.012 165.699C99.3417 165.687 98.8512 165.926 98.576 166.441H97.1284L97.6548 161.536H102.775V162.84H98.9349L98.6717 165.137H98.7555C99.0905 164.754 99.7246 164.479 100.43 164.479C102.046 164.479 103.23 165.687 103.23 167.35C103.23 169.085 101.926 170.317 100.06 170.317ZM113.378 160.459V166.764H112.038V166.321H110.017V165.508H112.038V160.459H113.378ZM104.298 164.359C106.391 164.359 109 164.335 111.321 164.108L111.392 164.945C110.405 165.083 109.388 165.167 108.389 165.209V166.776H107.073V165.268C106.146 165.292 105.255 165.298 104.441 165.292L104.298 164.359ZM113.378 167.099V169.528H107.229V170.221H113.666V171.167H105.925V168.654H112.062V168.008H105.877V167.099H113.378ZM107.791 160.626C109.394 160.626 110.495 161.272 110.495 162.253C110.495 163.258 109.394 163.869 107.791 163.869C106.152 163.869 105.063 163.258 105.063 162.253C105.063 161.272 106.152 160.626 107.791 160.626ZM107.791 161.512C106.882 161.512 106.32 161.799 106.332 162.253C106.32 162.708 106.882 162.983 107.791 162.983C108.677 162.983 109.251 162.708 109.251 162.253C109.251 161.799 108.677 161.512 107.791 161.512ZM118.409 170.198V169.073L121.472 166.118C122.345 165.244 122.8 164.73 122.8 164C122.8 163.199 122.166 162.684 121.316 162.684C120.419 162.684 119.845 163.246 119.857 164.12H118.373C118.361 162.481 119.593 161.416 121.328 161.416C123.099 161.416 124.295 162.469 124.295 163.928C124.295 164.909 123.817 165.699 122.118 167.302L120.575 168.834V168.893H124.427V170.198H118.409ZM128.988 161.416C130.687 161.428 132.362 162.433 132.374 165.603C132.374 168.594 131.022 170.317 128.892 170.317C127.217 170.317 126.069 169.276 125.877 167.841H127.421C127.576 168.523 128.103 168.965 128.892 168.965C130.149 168.965 130.855 167.853 130.866 165.998H130.771C130.328 166.752 129.503 167.195 128.545 167.195C127.002 167.195 125.806 166.022 125.794 164.383C125.794 162.684 127.062 161.404 128.988 161.416ZM129 162.672C128.031 162.672 127.301 163.426 127.313 164.347C127.313 165.28 128.007 166.01 128.976 166.01C129.933 166.01 130.687 165.232 130.675 164.335C130.675 163.45 129.969 162.672 129 162.672ZM140.766 165.244V166.501H136.866V165.244H140.766ZM148.549 170.317C146.694 170.317 145.378 169.312 145.342 167.853H146.91C146.958 168.546 147.652 169.001 148.549 169.001C149.506 169.001 150.188 168.475 150.188 167.709C150.188 166.931 149.518 166.369 148.393 166.369H147.616V165.173H148.393C149.315 165.173 149.961 164.658 149.949 163.904C149.961 163.175 149.41 162.684 148.561 162.684C147.747 162.684 147.041 163.139 147.017 163.869H145.522C145.558 162.409 146.874 161.416 148.573 161.416C150.331 161.416 151.468 162.493 151.456 163.821C151.468 164.79 150.822 165.496 149.877 165.687V165.759C151.097 165.926 151.791 166.704 151.779 167.793C151.791 169.252 150.427 170.317 148.549 170.317ZM156.783 161.536V170.198H155.216V163.055H155.168L153.146 164.347V162.923L155.287 161.536H156.783ZM161.715 160.794C163.354 160.794 164.574 161.811 164.586 163.234C164.574 164.67 163.354 165.675 161.715 165.675C160.064 165.675 158.844 164.67 158.844 163.234C158.844 161.811 160.064 160.794 161.715 160.794ZM161.715 161.894C160.806 161.894 160.136 162.409 160.136 163.234C160.136 164.072 160.806 164.598 161.715 164.598C162.624 164.598 163.294 164.072 163.294 163.234C163.294 162.409 162.624 161.894 161.715 161.894ZM167.661 160.447V165.914H166.321V160.447H167.661ZM167.661 166.381V169.204H161.811V170.078H167.984V171.131H160.507V168.223H166.333V167.422H160.483V166.381H167.661Z" fill="#343434"/>
<path d="M255.49 157.906L251.138 162.257L246.787 157.906" stroke="#A3A3A3" stroke-width="1.44131" stroke-linecap="round" stroke-linejoin="round"/>
<rect x="11.8907" y="193.121" width="259.437" height="49.0047" rx="5.40493" fill="white"/>
<rect x="11.8907" y="193.121" width="259.437" height="49.0047" rx="5.40493" stroke="#E8E8E8" stroke-width="0.720657"/>
<g clip-path="url(#clip1_110_6733)">
<path d="M31.7085 224.196C35.6886 224.196 38.9151 220.97 38.9151 216.99C38.9151 213.01 35.6886 209.783 31.7085 209.783C27.7284 209.783 24.502 213.01 24.502 216.99C24.502 220.97 27.7284 224.196 31.7085 224.196Z" stroke="#FFC8A5" stroke-width="1.44131" stroke-linecap="round" stroke-linejoin="round"/>
<path d="M31.7089 212.666V216.99L34.5915 218.431" stroke="#FFC8A5" stroke-width="1.44131" stroke-linecap="round" stroke-linejoin="round"/>
</g>
<path d="M56.843 204.265V210.069H52.7049V204.265H56.843ZM53.631 205.004V209.31H55.9366V205.004H53.631ZM59.523 203.418V212.266H58.5869V203.418H59.523ZM65.6809 204.059V204.807H62.3802V205.783H65.4346V206.522H62.3802V207.527C64.1488 207.537 65.1784 207.507 66.3706 207.3L66.4691 208.059C65.1883 208.266 64.0946 208.295 62.1635 208.295H61.4344V204.059H65.6809ZM68.2525 203.428V208.857H67.3165V203.428H68.2525ZM65.2967 208.975C67.149 208.975 68.3017 209.576 68.3017 210.601C68.3017 211.635 67.149 212.236 65.2967 212.226C63.4246 212.236 62.2916 211.635 62.2916 210.601C62.2916 209.576 63.4246 208.975 65.2967 208.975ZM65.2967 209.714C63.9764 209.714 63.2276 210.039 63.2276 210.601C63.2276 211.182 63.9764 211.507 65.2967 211.507C66.5874 211.507 67.3657 211.182 67.3657 210.601C67.3657 210.039 66.5874 209.714 65.2967 209.714ZM75.3859 205.261C75.3859 206.404 76.2332 207.477 77.5929 207.911L77.1101 208.64C76.0953 208.305 75.3267 207.61 74.9326 206.729C74.5336 207.689 73.7503 208.448 72.6961 208.817L72.2133 208.078C73.5828 207.615 74.4301 206.472 74.44 205.261V204.876H72.4596V204.118H77.3268V204.876H75.3859V205.261ZM79.4353 203.428V209.872H78.4993V203.428H79.4353ZM79.7014 211.3V212.059H73.6616V209.261H74.6075V211.3H79.7014ZM88.3619 203.418V208.985H87.4752V206.522H86.4505V208.679H85.5736V203.586H86.4505V205.753H87.4752V203.418H88.3619ZM85.2484 204.423V205.162H80.7852V204.423H82.5685V203.487H83.4947V204.423H85.2484ZM83.0217 205.576C84.1449 205.576 84.9332 206.177 84.9332 207.093C84.9332 208.009 84.1449 208.611 83.0217 208.611C81.9182 208.611 81.13 208.009 81.13 207.093C81.13 206.177 81.9182 205.576 83.0217 205.576ZM83.0217 206.266C82.401 206.266 81.9675 206.591 81.9675 207.093C81.9675 207.596 82.401 207.931 83.0217 207.931C83.6622 207.931 84.0858 207.596 84.0858 207.093C84.0858 206.591 83.6622 206.266 83.0217 206.266ZM85.4061 209.113C87.2781 209.113 88.4013 209.675 88.4112 210.68C88.4013 211.665 87.2781 212.236 85.4061 212.226C83.5341 212.236 82.4109 211.665 82.4207 210.68C82.4109 209.675 83.5341 209.113 85.4061 209.113ZM85.4061 209.832C84.0957 209.832 83.337 210.128 83.3469 210.68C83.337 211.212 84.0957 211.517 85.4061 211.507C86.7264 211.517 87.4653 211.212 87.4752 210.68C87.4653 210.128 86.7264 209.832 85.4061 209.832ZM95.2588 205.665C95.249 207.28 96.2244 208.896 97.5939 209.507L97.0323 210.246C96.0175 209.763 95.2145 208.773 94.8056 207.566C94.3918 208.857 93.5789 209.926 92.5198 210.443L91.9483 209.655C93.3375 209.034 94.313 207.349 94.313 205.665V204.157H95.2588V205.665ZM99.328 203.418V212.266H98.392V203.418H99.328ZM107.673 203.418V206.029H108.954V206.807H107.673V209.832H106.727V203.418H107.673ZM105.279 204.088C105.279 206.404 103.703 208.088 101.121 208.867L100.727 208.118C102.791 207.497 104.077 206.325 104.264 204.866H101.101V204.088H105.279ZM108.038 211.3V212.059H102.067V209.172H103.013V211.3H108.038Z" fill="#959595"/>
<path d="M111.999 208.285H111.25L111.309 206.817L110.067 207.606L109.693 206.955L111.003 206.285L109.693 205.605L110.067 204.955L111.309 205.743L111.25 204.275H111.999L111.93 205.743L113.171 204.955L113.555 205.605L112.245 206.285L113.555 206.955L113.171 207.606L111.93 206.817L111.999 208.285Z" fill="#FF6200"/>
<path d="M55.7515 228.69C53.897 228.69 52.581 227.685 52.5451 226.226H54.1124C54.1603 226.92 54.8542 227.374 55.7515 227.374C56.7086 227.374 57.3905 226.848 57.3905 226.082C57.3905 225.304 56.7206 224.742 55.5959 224.742H54.8183V223.546H55.5959C56.5172 223.546 57.1632 223.031 57.1513 222.277C57.1632 221.548 56.6129 221.057 55.7634 221.057C54.9499 221.057 54.244 221.512 54.2201 222.242H52.7246C52.7605 220.782 54.0765 219.789 55.7754 219.789C57.5341 219.789 58.6707 220.866 58.6587 222.194C58.6707 223.163 58.0246 223.869 57.0795 224.06V224.132C58.2998 224.299 58.9937 225.077 58.9818 226.166C58.9937 227.625 57.6298 228.69 55.7515 228.69ZM64.201 221.416C64.189 223.402 65.2299 225.388 66.9886 226.142L66.1989 227.207C64.9547 226.632 64.0394 225.484 63.5429 224.072C63.0464 225.597 62.1192 226.842 60.8032 227.458L59.9896 226.345C61.7962 225.568 62.849 223.498 62.849 221.416V219.693H64.201V221.416ZM69.1062 218.82V229.647H67.7662V218.82H69.1062ZM79.3503 218.82V221.931H80.8578V223.043H79.3503V226.62H77.9984V218.82H79.3503ZM76.4071 219.645C76.4071 222.517 74.5408 224.563 71.3344 225.496L70.784 224.443C73.2546 223.731 74.7262 222.385 74.9595 220.734H71.2387V219.645H76.4071ZM79.7571 228.343V229.42H72.3992V225.819H73.7511V228.343H79.7571ZM88.1137 228.69C86.032 228.69 84.7877 227.075 84.7877 224.24C84.7877 221.416 86.032 219.789 88.1137 219.789C90.1835 219.789 91.4397 221.416 91.4397 224.24C91.4397 227.075 90.1955 228.69 88.1137 228.69ZM88.1137 227.386C89.2024 227.386 89.8724 226.321 89.8724 224.24C89.8724 222.17 89.1905 221.081 88.1137 221.081C87.0369 221.081 86.355 222.17 86.355 224.24C86.355 226.321 87.025 227.386 88.1137 227.386ZM96.0607 228.69C93.979 228.69 92.7347 227.075 92.7347 224.24C92.7347 221.416 93.979 219.789 96.0607 219.789C98.1305 219.789 99.3867 221.416 99.3867 224.24C99.3867 227.075 98.1424 228.69 96.0607 228.69ZM96.0607 227.386C97.1494 227.386 97.8194 226.321 97.8194 224.24C97.8194 222.17 97.1375 221.081 96.0607 221.081C94.9839 221.081 94.302 222.17 94.302 224.24C94.302 226.321 94.972 227.386 96.0607 227.386ZM110.325 224.419V225.484H106.149V227.35H104.833V225.484H100.442V224.419H110.325ZM109.236 228.343V229.42H101.639V226.441H102.955V228.343H109.236ZM103.051 219.167V220.387H107.717V219.167H109.033V223.57H101.735V219.167H103.051ZM103.051 222.517H107.717V221.38H103.051V222.517Z" fill="#343434"/>
<path d="M255.49 216.279L251.138 220.63L246.787 216.279" stroke="#A3A3A3" stroke-width="1.44131" stroke-linecap="round" stroke-linejoin="round"/>
<rect x="11.8907" y="251.494" width="259.437" height="49.0047" rx="5.40493" fill="white"/>
<rect x="11.8907" y="251.494" width="259.437" height="49.0047" rx="5.40493" stroke="#E8E8E8" stroke-width="0.720657"/>
<g clip-path="url(#clip2_110_6733)">
<path d="M31.7084 280.408C34.4945 280.408 36.753 278.149 36.753 275.363C36.753 272.577 34.4945 270.319 31.7084 270.319C28.9224 270.319 26.6638 272.577 26.6638 275.363C26.6638 278.149 28.9224 280.408 31.7084 280.408Z" stroke="#FFC8A5" stroke-width="1.44131" stroke-linecap="round" stroke-linejoin="round"/>
<path d="M31.7089 273.202V275.364L32.7898 276.445" stroke="#FFC8A5" stroke-width="1.44131" stroke-linecap="round" stroke-linejoin="round"/>
<path d="M34.9594 279.219L34.7072 281.979C34.6747 282.338 34.5087 282.672 34.2418 282.915C33.9749 283.158 33.6267 283.292 33.2659 283.291H30.1454C29.7846 283.292 29.4364 283.158 29.1695 282.915C28.9027 282.672 28.7366 282.338 28.7041 281.979L28.4519 279.219M28.4591 271.508L28.7113 268.748C28.7437 268.39 28.9088 268.056 29.1741 267.814C29.4394 267.571 29.7859 267.436 30.1454 267.436H33.2803C33.6411 267.435 33.9894 267.569 34.2562 267.811C34.5231 268.054 34.6892 268.388 34.7216 268.748L34.9739 271.508" stroke="#FFC8A5" stroke-width="1.44131" stroke-linecap="round" stroke-linejoin="round"/>
</g>
<path d="M60.2816 267.092V267.861H56.6952V270.619H55.7691V267.861H52.2024V267.092H60.2816ZM59.385 265.526V266.274H53.2665V262.186H59.2865V262.934H54.1828V263.841H59.0894V264.57H54.1828V265.526H59.385ZM69.0111 268.807V269.575H60.9319V268.807H63.0995V266.846H61.6413V266.087H62.9616V263.338H61.6216V262.57H68.2722V263.338H66.9224V266.087H68.2426V266.846H66.7943V268.807H69.0111ZM63.8877 266.087H66.0061V263.338H63.8877V266.087ZM64.0355 268.807H65.8583V266.846H64.0355V268.807ZM76.578 262.668V268.403H72.4497V262.668H76.578ZM73.366 263.407V267.644H75.6519V263.407H73.366ZM78.992 261.791V265.25H80.4108V266.038H78.992V270.619H78.0559V261.791H78.992ZM87.7707 261.791V263.87H89.0516V264.649H87.7707V266.777H86.8347V261.791H87.7707ZM85.3371 262.343C85.3273 264.609 83.8001 266.196 81.1694 266.905L80.795 266.156C82.9035 265.599 84.1499 264.491 84.3223 263.112H81.2088V262.343H85.3371ZM87.7707 267.151V270.501H82.1153V267.151H87.7707ZM83.0513 267.93V269.752H86.8446V267.93H83.0513ZM95.2588 264.038C95.249 265.654 96.2244 267.27 97.5939 267.88L97.0323 268.619C96.0175 268.137 95.2145 267.146 94.8056 265.939C94.3918 267.23 93.5789 268.299 92.5198 268.816L91.9483 268.028C93.3375 267.407 94.313 265.723 94.313 264.038V262.53H95.2588V264.038ZM99.328 261.791V270.639H98.392V261.791H99.328ZM107.673 261.791V264.402H108.954V265.181H107.673V268.206H106.727V261.791H107.673ZM105.279 262.461C105.279 264.777 103.703 266.462 101.121 267.24L100.727 266.491C102.791 265.87 104.077 264.698 104.264 263.24H101.101V262.461H105.279ZM108.038 269.674V270.432H102.067V267.545H103.013V269.674H108.038Z" fill="#959595"/>
<path d="M111.999 266.659H111.25L111.309 265.191L110.067 265.979L109.693 265.329L111.003 264.659L109.693 263.979L110.067 263.328L111.309 264.117L111.25 262.649H111.999L111.93 264.117L113.171 263.328L113.555 263.979L112.245 264.659L113.555 265.329L113.171 265.979L111.93 265.191L111.999 266.659Z" fill="#FF6200"/>
<path d="M52.6049 286.944V285.819L55.6677 282.864C56.5411 281.991 56.9957 281.476 56.9957 280.746C56.9957 279.945 56.3616 279.43 55.5122 279.43C54.6149 279.43 54.0406 279.993 54.0526 280.866H52.569C52.5571 279.227 53.7894 278.162 55.5242 278.162C57.2948 278.162 58.4912 279.215 58.4912 280.675C58.4912 281.656 58.0127 282.445 56.3138 284.049L54.7704 285.58V285.64H58.6228V286.944H52.6049ZM63.3036 287.063C61.2219 287.063 59.9776 285.448 59.9776 282.613C59.9776 279.789 61.2219 278.162 63.3036 278.162C65.3734 278.162 66.6296 279.789 66.6296 282.613C66.6296 285.448 65.3854 287.063 63.3036 287.063ZM63.3036 285.759C64.3924 285.759 65.0624 284.695 65.0624 282.613C65.0624 280.543 64.3804 279.454 63.3036 279.454C62.2269 279.454 61.5449 280.543 61.5449 282.613C61.5449 284.695 62.2149 285.759 63.3036 285.759ZM68.0562 286.944V285.819L71.119 282.864C71.9924 281.991 72.447 281.476 72.447 280.746C72.447 279.945 71.8129 279.43 70.9635 279.43C70.0662 279.43 69.4919 279.993 69.5039 280.866H68.0203C68.0084 279.227 69.2407 278.162 70.9755 278.162C72.7461 278.162 73.9425 279.215 73.9425 280.675C73.9425 281.656 73.464 282.445 71.7651 284.049L70.2217 285.58V285.64H74.0742V286.944H68.0562ZM78.6353 287.063C76.9005 287.063 75.6323 286.035 75.5845 284.599H77.1039C77.1518 285.305 77.8098 285.807 78.6353 285.807C79.6044 285.807 80.2983 285.101 80.2983 284.144C80.2983 283.151 79.5805 282.445 78.5875 282.445C77.9175 282.433 77.427 282.673 77.1518 283.187H75.7041L76.2306 278.282H81.3512V279.586H77.5107L77.2475 281.883H77.3312C77.6662 281.5 78.3003 281.225 79.0062 281.225C80.6214 281.225 81.8058 282.433 81.8058 284.096C81.8058 285.831 80.5017 287.063 78.6353 287.063ZM91.9422 277.205V285.173H90.6142V281.572H87.7907V280.519H90.6142V279.538H87.7907V278.485H90.6142V277.205H91.9422ZM92.2174 286.717V287.793H84.8356V284.467H86.1755V286.717H92.2174ZM84.8236 277.923V282.601C86.1995 282.583 87.4976 282.499 88.9512 282.242L89.0828 283.319C87.4198 283.63 85.9602 283.69 84.357 283.702H83.5076V277.923H84.8236ZM100.06 287.063C98.3248 287.063 97.0566 286.035 97.0087 284.599H98.5282C98.576 285.305 99.234 285.807 100.06 285.807C101.029 285.807 101.723 285.101 101.723 284.144C101.723 283.151 101.005 282.445 100.012 282.445C99.3417 282.433 98.8512 282.673 98.576 283.187H97.1284L97.6548 278.282H102.775V279.586H98.9349L98.6717 281.883H98.7555C99.0905 281.5 99.7246 281.225 100.43 281.225C102.046 281.225 103.23 282.433 103.23 284.096C103.23 285.831 101.926 287.063 100.06 287.063ZM113.378 277.205V283.51H112.038V283.067H110.017V282.254H112.038V277.205H113.378ZM104.298 281.105C106.391 281.105 109 281.081 111.321 280.854L111.392 281.692C110.405 281.829 109.388 281.913 108.389 281.955V283.522H107.073V282.015C106.146 282.039 105.255 282.045 104.441 282.039L104.298 281.105ZM113.378 283.845V286.274H107.229V286.968H113.666V287.913H105.925V285.4H112.062V284.754H105.877V283.845H113.378ZM107.791 277.373C109.394 277.373 110.495 278.019 110.495 279C110.495 280.005 109.394 280.615 107.791 280.615C106.152 280.615 105.063 280.005 105.063 279C105.063 278.019 106.152 277.373 107.791 277.373ZM107.791 278.258C106.882 278.258 106.32 278.545 106.332 279C106.32 279.454 106.882 279.73 107.791 279.73C108.677 279.73 109.251 279.454 109.251 279C109.251 278.545 108.677 278.258 107.791 278.258ZM121.556 287.063C119.701 287.063 118.385 286.059 118.349 284.599H119.917C119.964 285.293 120.658 285.747 121.556 285.747C122.513 285.747 123.195 285.221 123.195 284.455C123.195 283.678 122.525 283.115 121.4 283.115H120.622V281.919H121.4C122.321 281.919 122.967 281.404 122.955 280.651C122.967 279.921 122.417 279.43 121.568 279.43C120.754 279.43 120.048 279.885 120.024 280.615H118.529C118.565 279.155 119.881 278.162 121.58 278.162C123.338 278.162 124.475 279.239 124.463 280.567C124.475 281.536 123.829 282.242 122.884 282.433V282.505C124.104 282.673 124.798 283.45 124.786 284.539C124.798 285.999 123.434 287.063 121.556 287.063ZM129.467 287.063C127.385 287.063 126.141 285.448 126.141 282.613C126.141 279.789 127.385 278.162 129.467 278.162C131.536 278.162 132.793 279.789 132.793 282.613C132.793 285.448 131.548 287.063 129.467 287.063ZM129.467 285.759C130.555 285.759 131.225 284.695 131.225 282.613C131.225 280.543 130.543 279.454 129.467 279.454C128.39 279.454 127.708 280.543 127.708 282.613C127.708 284.695 128.378 285.759 129.467 285.759ZM136.923 277.54C138.562 277.54 139.783 278.557 139.795 279.981C139.783 281.416 138.562 282.421 136.923 282.421C135.272 282.421 134.052 281.416 134.052 279.981C134.052 278.557 135.272 277.54 136.923 277.54ZM136.923 278.641C136.014 278.641 135.344 279.155 135.344 279.981C135.344 280.818 136.014 281.345 136.923 281.345C137.832 281.345 138.502 280.818 138.502 279.981C138.502 279.155 137.832 278.641 136.923 278.641ZM142.869 277.193V282.661H141.529V277.193H142.869ZM142.869 283.127V285.951H137.019V286.824H143.192V287.877H135.715V284.97H141.541V284.168H135.691V283.127H142.869ZM147.96 286.944V285.819L151.023 282.864C151.896 281.991 152.351 281.476 152.351 280.746C152.351 279.945 151.716 279.43 150.867 279.43C149.97 279.43 149.395 279.993 149.407 280.866H147.924C147.912 279.227 149.144 278.162 150.879 278.162C152.65 278.162 153.846 279.215 153.846 280.675C153.846 281.656 153.367 282.445 151.669 284.049L150.125 285.58V285.64H153.978V286.944H147.96ZM158.611 287.063C156.756 287.063 155.44 286.059 155.404 284.599H156.972C157.019 285.293 157.713 285.747 158.611 285.747C159.568 285.747 160.25 285.221 160.25 284.455C160.25 283.678 159.58 283.115 158.455 283.115H157.677V281.919H158.455C159.376 281.919 160.022 281.404 160.01 280.651C160.022 279.921 159.472 279.43 158.623 279.43C157.809 279.43 157.103 279.885 157.079 280.615H155.584C155.62 279.155 156.936 278.162 158.635 278.162C160.393 278.162 161.53 279.239 161.518 280.567C161.53 281.536 160.884 282.242 159.939 282.433V282.505C161.159 282.673 161.853 283.45 161.841 284.539C161.853 285.999 160.489 287.063 158.611 287.063ZM164.284 285.867C163.77 285.867 163.351 285.448 163.351 284.934C163.351 284.431 163.77 284.013 164.284 284.013C164.775 284.013 165.206 284.431 165.206 284.934C165.206 285.448 164.775 285.867 164.284 285.867ZM164.284 281.225C163.77 281.225 163.351 280.806 163.351 280.292C163.351 279.789 163.77 279.371 164.284 279.371C164.775 279.371 165.206 279.789 165.206 280.292C165.206 280.806 164.775 281.225 164.284 281.225ZM169.863 287.063C168.128 287.063 166.86 286.035 166.812 284.599H168.331C168.379 285.305 169.037 285.807 169.863 285.807C170.832 285.807 171.526 285.101 171.526 284.144C171.526 283.151 170.808 282.445 169.815 282.445C169.145 282.433 168.654 282.673 168.379 283.187H166.931L167.458 278.282H172.578V279.586H168.738L168.475 281.883H168.558C168.893 281.5 169.528 281.225 170.233 281.225C171.849 281.225 173.033 282.433 173.033 284.096C173.033 285.831 171.729 287.063 169.863 287.063ZM177.546 278.162C179.245 278.174 180.92 279.179 180.932 282.35C180.932 285.341 179.58 287.063 177.451 287.063C175.776 287.063 174.627 286.023 174.436 284.587H175.979C176.135 285.269 176.661 285.712 177.451 285.712C178.707 285.712 179.413 284.599 179.425 282.744H179.329C178.886 283.498 178.061 283.941 177.104 283.941C175.56 283.941 174.364 282.768 174.352 281.129C174.352 279.43 175.62 278.15 177.546 278.162ZM177.558 279.418C176.589 279.418 175.859 280.172 175.871 281.093C175.871 282.027 176.565 282.756 177.534 282.756C178.491 282.756 179.245 281.979 179.233 281.081C179.233 280.196 178.527 279.418 177.558 279.418Z" fill="#343434"/>
</g>
<defs>
<clipPath id="clip0_110_6733">
<rect width="283" height="335" rx="20" fill="white"/>
</clipPath>
<clipPath id="clip1_110_6733">
<rect width="17.2958" height="17.2958" fill="white" transform="translate(23.0609 208.342)"/>
</clipPath>
<clipPath id="clip2_110_6733">
<rect width="17.2958" height="17.2958" fill="white" transform="translate(23.0609 266.715)"/>
</clipPath>
</defs>
</svg>
