<svg width="315" height="438" viewBox="0 0 315 438" fill="none" xmlns="http://www.w3.org/2000/svg">
<g clip-path="url(#clip0_110_6797)">
<rect width="314.462" height="438" rx="15.9806" fill="white"/>
<rect y="-71.9126" width="314.019" height="206.15" fill="#FFF9F1"/>
<rect x="13.1842" y="438.269" width="288.45" height="100.678" rx="5.99273" fill="white" stroke="#E8E8E8" stroke-width="0.799031"/>
<rect x="13.1842" y="60.3268" width="88.6924" height="61.5254" rx="5.99273" fill="#FFFEFD" stroke="#E8E8E8" stroke-width="0.799031"/>
<rect x="113.063" y="60.3268" width="88.6924" height="61.5254" rx="5.99273" fill="#FFFEFD" stroke="#E8E8E8" stroke-width="0.799031"/>
<rect x="212.142" y="60.3268" width="88.6924" height="61.5254" rx="5.99273" fill="#FFFEFD" stroke="#E8E8E8" stroke-width="0.799031"/>
<path d="M41.4516 74.7918V81.2262H36.8634V74.7918H41.4516ZM37.8903 75.6112V80.385H40.4465V75.6112H37.8903ZM44.423 73.8523V83.6623H43.3852V73.8523H44.423ZM51.2506 74.5624V75.3927H47.591V76.4742H50.9775V77.2935H47.591V78.4078C49.5519 78.4187 50.6935 78.3859 52.0153 78.1565L52.1246 78.9977C50.7044 79.2271 49.4918 79.2599 47.3507 79.2599H46.5423V74.5624H51.2506ZM54.1018 73.8633V79.8825H53.064V73.8633H54.1018ZM50.8246 80.0136C52.8783 80.0136 54.1565 80.68 54.1565 81.8161C54.1565 82.9632 52.8783 83.6296 50.8246 83.6186C48.749 83.6296 47.4927 82.9632 47.4927 81.8161C47.4927 80.68 48.749 80.0136 50.8246 80.0136ZM50.8246 80.8329C49.3607 80.8329 48.5305 81.1934 48.5305 81.8161C48.5305 82.4607 49.3607 82.8212 50.8246 82.8212C52.2556 82.8212 53.1187 82.4607 53.1187 81.8161C53.1187 81.1934 52.2556 80.8329 50.8246 80.8329ZM66.5446 73.8633V81.0733H65.5068V77.6758H63.4748V76.8128H65.5068V73.8633H66.5446ZM63.5404 74.5952C63.5295 77.1515 61.7707 79.0741 58.9631 79.9809L58.5262 79.1506C60.7056 78.446 62.1858 77.1132 62.4043 75.4582H59.0287V74.5952H63.5404ZM66.7958 82.5917V83.4329H60.2413V80.3304H61.29V82.5917H66.7958ZM73.0663 74.7154C73.0554 76.0153 74.6504 77.2389 76.573 77.4901L76.1688 78.3422C74.5684 78.0855 73.1592 77.2553 72.5311 76.1027C71.8865 77.2607 70.4828 78.0855 68.8933 78.3422L68.4782 77.4901C70.4008 77.2389 71.9739 76.0263 71.9848 74.7154V74.1801H73.0663V74.7154ZM76.9772 79.3035V80.1556H73.0008V83.6405H71.9848V80.1556H68.0521V79.3035H76.9772Z" fill="#959595"/>
<path d="M290.422 300.777V305.835H289.373V300.777H290.422ZM290.422 306.282V308.708H284.971V309.636H290.761V310.466H283.955V307.954H289.395V307.102H283.922V306.282H290.422ZM288.03 301.421V302.241H287.09V304.556C287.565 304.524 288.035 304.48 288.477 304.425L288.521 305.179C286.566 305.474 284.283 305.54 282.567 305.54L282.447 304.709L283.638 304.698V302.241H282.709V301.421H288.03ZM284.632 304.677C285.113 304.66 285.604 304.644 286.096 304.611V302.241H284.632V304.677ZM300.112 300.777V310.587H299.085V305.245H297.14V304.393H299.085V300.777H300.112ZM296.976 301.651V302.492H293.448V304.393H296.561V305.223H293.448V307.408C295.087 307.402 296.223 307.364 297.523 307.135L297.632 307.976C296.212 308.205 294.977 308.26 293.164 308.271H292.399V301.651H296.976Z" fill="#616161"/>
<path d="M145.92 79.3691V80.2103H141.943V83.6296H140.928V80.2103H136.995V79.3691H145.92ZM145.079 74.4313V75.2616H142.053C142.069 76.4742 143.577 77.5557 145.428 77.8069L145.046 78.6262C143.44 78.375 142.053 77.583 141.463 76.4632C140.856 77.583 139.475 78.375 137.891 78.6262L137.497 77.8069C139.327 77.5557 140.835 76.4742 140.873 75.2616H137.825V74.4313H145.079ZM155.621 81.5539V82.417H146.663V81.5539H148.804V78.9977C148.001 78.5552 147.515 77.8506 147.515 76.9767C147.515 75.4364 149.022 74.4204 151.12 74.4204C153.228 74.4204 154.736 75.4364 154.736 76.9767C154.736 77.8397 154.266 78.5334 153.479 78.9758V81.5539H155.621ZM151.12 75.2507C149.58 75.2507 148.52 75.917 148.52 76.9767C148.52 78.0254 149.58 78.7136 151.12 78.7136C152.649 78.7136 153.731 78.0254 153.731 76.9767C153.731 75.917 152.649 75.2507 151.12 75.2507ZM149.831 81.5539H152.431V79.3691C152.032 79.4729 151.59 79.522 151.12 79.522C150.661 79.522 150.224 79.4729 149.831 79.38V81.5539ZM167.222 80.1338V83.6405H166.184V80.9531H160.591V80.1338H167.222ZM167.222 73.8523V79.6204H166.184V78.2767H163.77C163.317 78.812 162.601 79.1342 161.771 79.1288C160.296 79.1397 159.204 78.1565 159.204 76.7582C159.204 75.3817 160.296 74.3876 161.771 74.3986C162.601 74.3931 163.311 74.7154 163.77 75.2507H166.184V73.8523H167.222ZM161.771 75.2725C160.853 75.2725 160.198 75.8843 160.198 76.7582C160.198 77.654 160.853 78.2548 161.771 78.2548C162.656 78.2548 163.322 77.654 163.322 76.7582C163.322 75.8843 162.656 75.2725 161.771 75.2725ZM164.229 77.4246H166.184V76.1027H164.229C164.284 76.3103 164.316 76.5288 164.316 76.7582C164.316 76.9931 164.284 77.217 164.229 77.4246ZM176.42 73.8196V76.1137H177.851V76.9658H176.42V79.2052H175.383V73.8196H176.42ZM176.42 79.664V81.9363H171.133V82.7556H176.759V83.5422H170.117V81.2044H175.394V80.4397H170.095V79.664H176.42ZM174.574 74.6826V75.5019H168.741V74.6826H171.144V73.765H172.182V74.6826H174.574ZM171.657 75.8733C173.088 75.8733 174.028 76.4851 174.028 77.4792C174.028 78.4733 173.088 79.0741 171.657 79.0741C170.215 79.0741 169.276 78.4733 169.276 77.4792C169.276 76.4851 170.215 75.8733 171.657 75.8733ZM171.657 76.6162C170.816 76.6162 170.27 76.9548 170.281 77.4792C170.27 78.0036 170.816 78.3204 171.657 78.3204C172.499 78.3204 173.045 78.0036 173.056 77.4792C173.045 76.9548 172.499 76.6162 171.657 76.6162Z" fill="#959595"/>
<path d="M238.363 74.5624V75.4036H237.423V78.3641C237.838 78.3313 238.237 78.2931 238.625 78.2439L238.668 79.0304C236.789 79.3254 234.594 79.3582 233.021 79.3582L232.889 78.4952L234.08 78.4842V75.4036H233.163V74.5624H238.363ZM241.039 73.8523V79.8716H240.001V78.1674H238.505V77.3372H240.001V76.3868H238.505V75.5565H240.001V73.8523H241.039ZM237.762 80.0573C239.826 80.0573 241.072 80.7019 241.072 81.8489C241.072 82.9632 239.826 83.6296 237.762 83.6186C235.697 83.6296 234.441 82.9632 234.452 81.8489C234.441 80.7019 235.697 80.0573 237.762 80.0573ZM237.762 80.8657C236.32 80.8657 235.479 81.2153 235.479 81.8489C235.479 82.4716 236.32 82.8212 237.762 82.8212C239.193 82.8212 240.045 82.4716 240.045 81.8489C240.045 81.2153 239.193 80.8657 237.762 80.8657ZM235.085 78.4733C235.528 78.4624 235.976 78.446 236.429 78.4187V75.4036H235.085V78.4733ZM250.368 74.3658V75.1414C250.368 75.9225 250.368 76.8292 250.15 78.0145H251.504V78.8557H249.09V81.1497H248.085V78.8557H246.534V81.1497H245.518V78.8557H242.547V78.0145H249.112C249.336 76.8401 249.341 75.9662 249.341 75.196H243.661V74.3658H250.368ZM250.63 82.5917V83.4329H243.595V80.3304H244.633V82.5917H250.63ZM263.084 73.8523V83.6405H262.035V73.8523H263.084ZM260.167 74.9011C260.167 77.7632 258.944 80.254 255.59 81.8598L255.044 81.0187C257.649 79.7788 258.917 78.0145 259.119 75.7313H255.514V74.9011H260.167ZM267.268 74.5843C268.158 74.5843 268.896 75.0977 269.333 75.9826H271.747V73.8523H272.774V83.6623H271.747V79.9044H269.398C268.978 80.8876 268.208 81.4556 267.268 81.4556C265.804 81.4556 264.777 80.1229 264.788 78.0145C264.777 75.917 265.804 74.5843 267.268 74.5843ZM267.268 75.5128C266.383 75.5128 265.771 76.4742 265.771 78.0145C265.771 79.5657 266.383 80.5271 267.268 80.5271C268.153 80.5271 268.765 79.5657 268.765 78.0145C268.765 76.4742 268.153 75.5128 267.268 75.5128ZM269.628 76.8347C269.699 77.1952 269.748 77.5884 269.748 78.0145C269.748 78.3859 269.715 78.73 269.65 79.0523H271.747V76.8347H269.628ZM282.212 78.3641V79.1943H279.252V81.5867H283.239V82.4388H274.281V81.5867H278.225V79.1943H275.396V74.6061H282.125V75.4473H276.434V78.3641H282.212Z" fill="#959595"/>
<path d="M20.8998 156.878V158.55H17.9338C17.9502 160.295 18.9826 162.081 21.4078 162.86L20.3426 164.482C18.6876 163.949 17.5488 162.884 16.9015 161.549C16.2379 163.007 15.0498 164.162 13.3129 164.728L12.1986 163.122C14.6648 162.327 15.7872 160.418 15.82 158.55H12.7721V156.878H20.8998ZM24.259 156.01V159.631H26.2745V161.368H24.259V165.006H22.1615V156.01H24.259ZM24.259 165.645V170.922H22.1615V167.3H14.2141V165.645H24.259ZM32.5669 158.042C32.5505 160.041 33.5828 161.876 35.9752 162.614L34.8774 164.252C33.2715 163.695 32.1818 162.663 31.5673 161.319C30.8955 162.876 29.6911 164.105 27.8968 164.711L26.7989 163.04C29.3552 162.22 30.4367 160.221 30.453 158.14V156.78H32.5669V158.042ZM39.4983 156.01V164.744H37.4172V160.451H34.6152V158.747H37.4172V156.01H39.4983ZM34.4022 165.137C37.5811 165.137 39.5311 166.202 39.5475 168.038C39.5311 169.873 37.5811 170.922 34.4022 170.922C31.2232 170.922 29.2732 169.873 29.2732 168.038C29.2732 166.202 31.2232 165.137 34.4022 165.137ZM34.4022 166.759C32.4194 166.759 31.3543 167.186 31.3543 168.038C31.3543 168.857 32.4194 169.299 34.4022 169.299C36.3849 169.299 37.4664 168.857 37.4664 168.038C37.4664 167.186 36.3849 166.759 34.4022 166.759ZM53.9183 156.01V170.954H51.8045V156.01H53.9183ZM45.8235 157.059C48.0684 157.059 49.7398 159.123 49.7398 162.368C49.7398 165.645 48.0684 167.693 45.8235 167.693C43.5294 167.693 41.858 165.645 41.8743 162.368C41.858 159.123 43.5294 157.059 45.8235 157.059ZM45.8235 158.943C44.66 158.943 43.8899 160.156 43.8899 162.368C43.8899 164.596 44.66 165.793 45.8235 165.793C46.9541 165.793 47.7243 164.596 47.7243 162.368C47.7243 160.156 46.9541 158.943 45.8235 158.943ZM72.3202 156.01V163.662H70.2228V156.01H72.3202ZM72.3202 164.252V168.234H64.2745V169.168H72.7299V170.823H62.2098V166.743H70.2555V165.875H62.1771V164.252H72.3202ZM68.5514 156.928V158.517H67.3224V161.483C67.9369 161.442 68.5432 161.385 69.1249 161.319L69.2232 162.81C66.2573 163.286 62.8653 163.367 60.2762 163.367L60.0468 161.729L61.6527 161.712V158.517H60.4401V156.928H68.5514ZM63.6518 161.663L65.3069 161.614V158.517H63.6518V161.663ZM87.9528 167.464V169.185H74.303V167.464H77.3508V163.81C76.1956 163.122 75.4992 162.065 75.4992 160.746C75.4992 158.337 77.8588 156.731 81.1033 156.731C84.3314 156.731 86.7075 158.337 86.7238 160.746C86.7156 162.032 86.0356 163.081 84.9213 163.777V167.464H87.9528ZM81.1033 158.386C78.9731 158.386 77.5639 159.238 77.5639 160.746C77.5639 162.204 78.9731 163.105 81.1033 163.105C83.2172 163.105 84.6428 162.204 84.6592 160.746C84.6428 159.238 83.2172 158.386 81.1033 158.386ZM79.4155 167.464H82.8075V164.564C82.2749 164.67 81.7014 164.728 81.1033 164.728C80.5052 164.728 79.9399 164.678 79.4155 164.564V167.464ZM100.636 156.026V160.598H102.651V162.302H100.636V167.153H98.5384V156.026H100.636ZM97.6536 157.583V159.238H88.8049V157.583H92.1969V155.994H94.278V157.583H97.6536ZM93.2292 159.762C95.3922 159.762 96.8998 160.926 96.8998 162.646C96.8998 164.367 95.3922 165.498 93.2292 165.498C91.0498 165.498 89.5259 164.367 89.5259 162.646C89.5259 160.926 91.0498 159.762 93.2292 159.762ZM93.2292 161.352C92.2297 161.368 91.5578 161.827 91.5742 162.646C91.5578 163.466 92.2297 163.908 93.2292 163.908C94.2288 163.908 94.917 163.466 94.917 162.646C94.917 161.827 94.2288 161.368 93.2292 161.352ZM101.177 168.988V170.659H90.9679V166.301H93.049V168.988H101.177ZM115.121 157.354V167.366H107.911V157.354H115.121ZM110.009 158.992V165.711H113.09V158.992H110.009ZM119.66 156.01V170.954H117.547V156.01H119.66ZM129.722 157.042V158.714H124.593V159.877H129.279V161.499H124.593V162.696C127.215 162.696 128.878 162.663 130.77 162.352L130.983 163.99C128.853 164.334 126.969 164.383 123.773 164.367H122.495V157.042H129.722ZM134.162 156.026V165.055H132.065V156.026H134.162ZM129.083 165.252C132.229 165.252 134.228 166.301 134.244 168.087C134.228 169.889 132.229 170.922 129.083 170.922C125.887 170.922 123.954 169.889 123.954 168.087C123.954 166.301 125.887 165.252 129.083 165.252ZM129.083 166.874C127.083 166.874 126.035 167.284 126.035 168.087C126.035 168.906 127.083 169.332 129.083 169.332C131.065 169.332 132.147 168.906 132.147 168.087C132.147 167.284 131.065 166.874 129.083 166.874Z" fill="#343434"/>
<path d="M20.3754 297.983V307.995H13.1654V297.983H20.3754ZM15.2629 299.622V306.34H18.3435V299.622H15.2629ZM24.9144 296.639V311.584H22.8006V296.639H24.9144ZM34.9757 297.672V299.343H29.8467V300.507H34.5332V302.129H29.8467V303.325C32.4686 303.325 34.1318 303.292 36.0244 302.981L36.2374 304.62C34.1072 304.964 32.2228 305.013 29.0274 304.996H27.7493V297.672H34.9757ZM39.4164 296.656V305.685H37.3189V296.656H39.4164ZM34.3366 305.881C37.4828 305.881 39.4819 306.93 39.4983 308.716C39.4819 310.519 37.4828 311.551 34.3366 311.551C31.1413 311.551 29.2077 310.519 29.2077 308.716C29.2077 306.93 31.1413 305.881 34.3366 305.881ZM34.3366 307.504C32.3375 307.504 31.2887 307.913 31.2887 308.716C31.2887 309.535 32.3375 309.962 34.3366 309.962C36.3194 309.962 37.4009 309.535 37.4009 308.716C37.4009 307.913 36.3194 307.504 34.3366 307.504ZM57.8347 296.639V311.551H55.7536V296.639H57.8347ZM45.3646 307.34C46.5035 307.332 47.8062 307.332 49.1663 307.291V306.029C47.5276 305.742 46.4625 304.726 46.4789 303.325C46.4625 301.654 47.9865 300.523 50.1822 300.523C52.3944 300.523 53.9347 301.654 53.9347 303.325C53.9347 304.718 52.8696 305.734 51.231 306.029V307.225C52.4763 307.168 53.7381 307.069 54.9343 306.914L55.0818 308.454C51.8209 309.011 48.2978 309.044 45.6432 309.044L45.3646 307.34ZM54.7213 298.294V299.933H45.6596V298.294H49.1663V296.705H51.2473V298.294H54.7213ZM50.1822 302.112C49.1663 302.112 48.4453 302.555 48.4617 303.325C48.4453 304.112 49.1663 304.538 50.1822 304.538C51.231 304.538 51.9356 304.112 51.9356 303.325C51.9356 302.555 51.231 302.112 50.1822 302.112ZM72.0908 297.934V299.343C72.0908 301.211 72.0908 303.309 71.4845 306.471L69.3871 306.258C69.9524 303.44 69.977 301.342 69.9934 299.589H61.2103V297.934H72.0908ZM73.4017 308.028V309.732H59.801V308.028H64.6678V302.899H66.7489V308.028H73.4017ZM90.0503 297.229V302.473H86.0028V303.899H91.7708V305.586H78.1702V303.899H83.9054V302.473H79.858V297.229H90.0503ZM81.9062 298.852V300.834H88.002V298.852H81.9062ZM90.1158 306.684V311.551H88.0348V308.323H79.6777V306.684H90.1158ZM106.306 304.636V306.307H92.6557V304.636H98.4401V303.554H94.3599V299.458H102.553V298.54H94.3271V296.918H104.651V300.965H96.441V301.949H104.929V303.554H100.521V304.636H106.306ZM104.732 307.159V311.485H102.619V308.798H94.1796V307.159H104.732Z" fill="#343434"/>
<path d="M26.3073 26.6267V28.3309H24.1934V35.8522H22.096V20.9734H24.1934V26.6267H26.3073ZM14.9843 22.399V30.4775C16.8933 30.4529 18.9416 30.2727 21.0964 29.8384L21.3094 31.5754C18.8187 32.0833 16.3935 32.2144 14.1978 32.2144H12.9032V22.399H14.9843ZM31.7639 21.973C34.1236 21.9566 35.8933 23.4969 35.8933 25.6271C35.8933 27.7737 34.1236 29.2977 31.7639 29.2977C29.4043 29.2977 27.6182 27.7737 27.6182 25.6271C27.6182 23.4969 29.4043 21.9566 31.7639 21.973ZM31.7639 23.7755C30.5841 23.7755 29.6829 24.4637 29.6993 25.6271C29.6829 26.8069 30.5841 27.4788 31.7639 27.4788C32.9438 27.4788 33.845 26.8069 33.8614 25.6271C33.845 24.4637 32.9602 23.7755 31.7639 23.7755ZM39.4655 20.9734V35.9178H37.3845V20.9734H39.4655ZM26.9955 31.1657C29.6501 31.1821 33.337 31.1329 36.5324 30.6905L36.6962 32.1981C33.3862 32.8371 29.8467 32.8699 27.2413 32.8699L26.9955 31.1657ZM53.2465 22.3171V32.3291H46.0365V22.3171H53.2465ZM48.1339 23.9557V30.6741H51.2146V23.9557H48.1339ZM57.7855 20.9734V35.9178H55.6717V20.9734H57.7855ZM67.8467 22.0057V23.6771H62.7178V24.8406H67.4043V26.4628H62.7178V27.659C65.3396 27.659 67.0028 27.6263 68.8955 27.3149L69.1085 28.9536C66.9783 29.2977 65.0938 29.3468 61.8985 29.3304H60.6204V22.0057H67.8467ZM72.2874 20.9898V30.0187H70.19V20.9898H72.2874ZM67.2077 30.2153C70.3539 30.2153 72.353 31.264 72.3694 33.0501C72.353 34.8526 70.3539 35.885 67.2077 35.885C64.0123 35.885 62.0787 34.8526 62.0787 33.0501C62.0787 31.264 64.0123 30.2153 67.2077 30.2153ZM67.2077 31.8376C65.2085 31.8376 64.1598 32.2472 64.1598 33.0501C64.1598 33.8695 65.2085 34.2955 67.2077 34.2955C69.1904 34.2955 70.2719 33.8695 70.2719 33.0501C70.2719 32.2472 69.1904 31.8376 67.2077 31.8376ZM91.82 32.4275V34.148H78.1702V32.4275H81.218V28.7733C80.0628 28.0851 79.3664 27.0282 79.3664 25.7091C79.3664 23.3003 81.726 21.6944 84.9705 21.6944C88.1986 21.6944 90.5746 23.3003 90.591 25.7091C90.5828 26.9954 89.9028 28.0441 88.7885 28.7405V32.4275H91.82ZM84.9705 23.3494C82.8403 23.3494 81.431 24.2015 81.431 25.7091C81.431 27.1674 82.8403 28.0687 84.9705 28.0687C87.0843 28.0687 88.51 27.1674 88.5263 25.7091C88.51 24.2015 87.0843 23.3494 84.9705 23.3494ZM83.2827 32.4275H86.6747V29.5271C86.1421 29.6336 85.5686 29.6909 84.9705 29.6909C84.3724 29.6909 83.8071 29.6418 83.2827 29.5271V32.4275ZM106.437 22.9398V24.6275H104.503V26.1515H106.437V27.8884H104.503V29.7729H102.406V20.9734H104.503V22.9398H106.437ZM104.503 30.3628V35.885H102.406V32.0506H94.4582V30.3628H104.503ZM96.867 21.7927C99.1775 21.7763 100.931 23.3166 100.931 25.4141C100.931 27.5607 99.1775 29.0683 96.867 29.0683C94.5401 29.0683 92.7704 27.5607 92.7704 25.4141C92.7704 23.3166 94.5401 21.7763 96.867 21.7927ZM96.867 23.5788C95.6872 23.5788 94.8187 24.2507 94.8351 25.4141C94.8187 26.6103 95.6872 27.2985 96.867 27.2985C98.014 27.2985 98.8825 26.6103 98.8989 25.4141C98.8825 24.2507 98.014 23.5788 96.867 23.5788Z" fill="#343434"/>
<path d="M53.5038 104.692L58.5017 94.9261V94.8442H52.6845V92.8286H61.0579V94.8769L56.0601 104.692H53.5038Z" fill="#343434"/>
<path d="M156.83 91.2883V106.2H154.815V98.613H153.455V105.544H151.505V91.6816H153.455V96.9416H154.815V91.2883H156.83ZM150.456 93.1236C150.439 97.2857 149.194 100.694 144.999 103.136L143.787 101.694C146.826 99.9076 148.129 97.72 148.424 94.795H144.54V93.1236H150.456ZM160.992 91.9602V93.7299H164.04V91.9602H166.138V98.4656H158.911V91.9602H160.992ZM160.992 96.8269H164.04V95.303H160.992V96.8269ZM170.3 91.2883V94.1887H172.315V95.8765H170.3V98.8752H168.202V91.2883H170.3ZM170.3 99.4324V103.48H162.483V104.447H170.726V106.102H160.435V101.989H168.219V101.055H160.402V99.4324H170.3Z" fill="#343434"/>
<path d="M243.588 104.692L248.585 94.9261V94.8442H242.768V92.8286H251.142V94.8769L246.144 104.692H243.588ZM257.008 104.856C254.304 104.856 252.354 103.431 252.354 101.497C252.354 100.006 253.501 98.7933 254.976 98.5639V98.4819C253.698 98.2362 252.813 97.1547 252.813 95.8601C252.813 94.0085 254.583 92.6648 257.008 92.6648C259.433 92.6648 261.203 94.0085 261.219 95.8601C261.203 97.171 260.302 98.2362 259.056 98.4819V98.5639C260.498 98.7933 261.662 100.006 261.662 101.497C261.662 103.431 259.712 104.856 257.008 104.856ZM257.008 102.972C258.253 102.972 259.089 102.267 259.089 101.251C259.089 100.219 258.221 99.4651 257.008 99.4651C255.795 99.4651 254.911 100.219 254.927 101.251C254.911 102.267 255.746 102.972 257.008 102.972ZM257.008 97.7282C258.057 97.7282 258.811 97.0563 258.811 96.1059C258.811 95.1883 258.073 94.5328 257.008 94.5328C255.943 94.5328 255.222 95.1719 255.222 96.1059C255.222 97.0563 255.959 97.7282 257.008 97.7282ZM265.573 99.771C264.206 99.771 263.463 98.7629 263.463 97.2904C263.463 95.8313 264.233 94.8231 265.573 94.8231C266.965 94.8231 267.695 95.8313 267.695 97.2904C267.695 98.7761 266.939 99.771 265.573 99.771ZM265.573 98.7098C266.17 98.7098 266.461 98.1527 266.461 97.2904C266.461 96.4547 266.196 95.8711 265.573 95.8843C264.989 95.8843 264.684 96.4547 264.684 97.2904C264.684 98.1527 264.989 98.7098 265.573 98.7098ZM271.847 104.944C270.481 104.958 269.738 103.936 269.738 102.477C269.738 101.005 270.507 99.9965 271.847 99.9965C273.227 99.9965 273.969 101.005 273.969 102.477C273.969 103.95 273.213 104.958 271.847 104.944ZM271.847 103.883C272.457 103.883 272.736 103.326 272.736 102.477C272.736 101.628 272.471 101.044 271.847 101.058C271.263 101.058 270.958 101.641 270.958 102.477C270.958 103.326 271.263 103.883 271.847 103.883ZM264.697 104.692L271.303 95.0884H272.643L266.037 104.692H264.697Z" fill="#343434"/>
<rect x="13.1842" y="183.378" width="146.223" height="87.8934" rx="5.99273" fill="white"/>
<rect x="13.1842" y="183.378" width="146.223" height="87.8934" rx="5.99273" stroke="#E8E8E8" stroke-width="0.799031"/>
<path d="M36.0089 195.769V204.524H34.5365V200.133H32.414V198.939H34.5365V195.769H36.0089ZM36.314 206.314V207.508H28.1427V203.754H29.6151V206.314H36.314ZM30.3712 198.156C30.3712 199.602 31.3396 201.088 33.1967 201.698L32.4538 202.879C31.1141 202.421 30.1656 201.512 29.6416 200.372C29.111 201.638 28.1095 202.64 26.6968 203.131L25.9406 201.937C27.8508 201.313 28.8722 199.735 28.8722 198.143V197.825H26.3784V196.631H32.8518V197.825H30.3712V198.156ZM43.2416 203.25C45.8416 203.263 47.4864 204.086 47.4997 205.505C47.4864 206.898 45.8416 207.734 43.2416 207.734C40.6549 207.734 38.9967 206.898 38.9967 205.505C38.9967 204.086 40.6549 203.263 43.2416 203.25ZM43.2416 204.364C41.5171 204.364 40.4692 204.776 40.4824 205.505C40.4692 206.208 41.5171 206.593 43.2416 206.593C44.9793 206.593 46.0273 206.208 46.0405 205.505C46.0273 204.776 44.9793 204.364 43.2416 204.364ZM47.4201 196.326V197.321C47.4201 198.262 47.4201 199.271 47.0885 200.504L45.6293 200.372C45.9278 199.204 45.9477 198.362 45.9477 197.493H39.1161V196.326H47.4201ZM48.7466 201.194V202.388H37.8692V201.194H42.0875V199.019H43.5467V201.194H48.7466ZM63.0926 195.755V207.747H61.6069V195.755H63.0926ZM59.511 197.029C59.511 200.597 58.1315 203.635 53.9264 205.625L53.157 204.444C56.2942 202.952 57.7534 200.922 58.0121 198.196H53.7672V197.029H59.511ZM75.91 205.121V206.328H64.9529V205.121H69.6886V202.64H71.1478V205.121H75.91ZM74.9283 197.493V198.687H71.1876C71.2871 200.179 72.8457 201.552 75.4324 201.897L74.8885 203.051C72.8125 202.759 71.2141 201.837 70.4182 200.517C69.6223 201.837 68.0371 202.759 65.9611 203.051L65.404 201.897C68.0039 201.552 69.5559 200.179 69.6753 198.687H65.9213V197.493H69.6886V195.941H71.1478V197.493H74.9283ZM91.1447 205.067V206.301H80.1877V205.067H91.1447ZM90.1896 196.87V198.05H88.4386V201.871H90.1498V203.038H81.1295V201.871H82.8142V198.05H81.0897V196.87H90.1896ZM84.2866 201.871H86.9795V198.05H84.2866V201.871ZM103.02 205.134V206.354H92.0632V205.134H96.7856V203.184H93.3632V199.257H100.261V197.772H93.3367V196.578H101.72V200.425H94.8356V201.977H101.999V203.184H98.2448V205.134H103.02ZM111.831 196.007V202.985H110.425V199.96H108.926V198.766H110.425V196.007H111.831ZM107.64 198.329C107.64 199.615 108.356 200.915 109.882 201.526L109.139 202.653C108.077 202.242 107.361 201.473 106.95 200.544C106.512 201.585 105.749 202.441 104.615 202.905L103.846 201.751C105.451 201.114 106.207 199.695 106.207 198.329V197.851H104.191V196.671H109.537V197.851H107.64V198.329ZM114.193 195.755V203.064H112.787V195.755H114.193ZM114.193 203.542V207.747H112.72V204.723H105.982V203.542H114.193ZM125.564 202.043V203.21H117.154V196.697H125.458V197.891H118.653V199.337H125.179V200.491H118.653V202.043H125.564ZM126.771 205.081V206.288H115.814V205.081H126.771Z" fill="#343434"/>
<path d="M26.2684 225.562V224.688L29.0104 221.924C29.8734 221.017 30.3103 220.515 30.3103 219.826C30.3103 219.051 29.6767 218.548 28.8465 218.548C27.9725 218.548 27.4045 219.105 27.4045 219.946H26.2684C26.2574 218.504 27.3608 217.543 28.8683 217.543C30.3977 217.543 31.4465 218.504 31.4574 219.794C31.4465 220.678 31.0313 221.378 29.5456 222.841L27.9398 224.469V224.535H31.5885V225.562H26.2684ZM35.6741 225.671C33.8389 225.671 32.7683 224.196 32.7683 221.607C32.7683 219.04 33.8607 217.543 35.6741 217.543C37.4876 217.543 38.58 219.04 38.58 221.607C38.58 224.196 37.4985 225.671 35.6741 225.671ZM35.6741 224.633C36.7447 224.633 37.3783 223.584 37.3783 221.607C37.3783 219.641 36.7338 218.559 35.6741 218.559C34.6145 218.559 33.97 219.641 33.97 221.607C33.97 223.584 34.6036 224.633 35.6741 224.633ZM39.8254 225.562V224.688L42.5673 221.924C43.4304 221.017 43.8673 220.515 43.8673 219.826C43.8673 219.051 43.2337 218.548 42.4035 218.548C41.5295 218.548 40.9615 219.105 40.9615 219.946H39.8254C39.8144 218.504 40.9178 217.543 42.4253 217.543C43.9547 217.543 45.0035 218.504 45.0144 219.794C45.0035 220.678 44.5883 221.378 43.1026 222.841L41.4968 224.469V224.535H45.1455V225.562H39.8254ZM49.1656 225.671C47.669 225.671 46.5438 224.753 46.4892 223.497H47.658C47.7236 224.174 48.3681 224.666 49.1656 224.666C50.1269 224.666 50.8152 223.967 50.8152 223.027C50.8152 222.066 50.1051 221.367 49.111 221.356C48.4774 221.356 47.9967 221.563 47.7236 222.055H46.5875L47.1009 217.652H51.5799V218.679H48.095L47.8328 220.897H47.9093C48.237 220.58 48.7942 220.362 49.395 220.362C50.8807 220.362 51.984 221.465 51.984 222.994C51.984 224.556 50.8152 225.671 49.1656 225.671ZM53.7538 225.638C53.3277 225.638 52.9672 225.288 52.9782 224.862C52.9672 224.436 53.3277 224.087 53.7538 224.087C54.1689 224.087 54.5294 224.436 54.5294 224.862C54.5294 225.288 54.1689 225.638 53.7538 225.638ZM58.3857 225.671C56.5504 225.671 55.4798 224.196 55.4798 221.607C55.4798 219.04 56.5722 217.543 58.3857 217.543C60.1991 217.543 61.2915 219.04 61.2915 221.607C61.2915 224.196 60.21 225.671 58.3857 225.671ZM58.3857 224.633C59.4562 224.633 60.0898 223.584 60.0898 221.607C60.0898 219.641 59.4453 218.559 58.3857 218.559C57.326 218.559 56.6815 219.641 56.6815 221.607C56.6815 223.584 57.3151 224.633 58.3857 224.633ZM65.2242 225.671C63.7276 225.671 62.6024 224.753 62.5478 223.497H63.7167C63.7822 224.174 64.4268 224.666 65.2242 224.666C66.1856 224.666 66.8738 223.967 66.8738 223.027C66.8738 222.066 66.1637 221.367 65.1696 221.356C64.536 221.356 64.0553 221.563 63.7822 222.055H62.6461L63.1596 217.652H67.6385V218.679H64.1537L63.8915 220.897H63.9679C64.2957 220.58 64.8528 220.362 65.4536 220.362C66.9393 220.362 68.0427 221.465 68.0427 222.994C68.0427 224.556 66.8738 225.671 65.2242 225.671ZM69.8124 225.638C69.3864 225.638 69.0259 225.288 69.0368 224.862C69.0259 224.436 69.3864 224.087 69.8124 224.087C70.2275 224.087 70.588 224.436 70.588 224.862C70.588 225.288 70.2275 225.638 69.8124 225.638ZM74.5099 225.671C72.8712 225.671 71.7023 224.786 71.6586 223.497H72.8821C72.9258 224.196 73.6141 224.633 74.4989 224.633C75.4493 224.633 76.1485 224.109 76.1485 223.344C76.1485 222.568 75.493 222 74.3678 222H73.6905V221.017H74.3678C75.2636 221.017 75.8972 220.515 75.8972 219.761C75.8972 219.04 75.3619 218.548 74.5208 218.548C73.7233 218.548 73.0242 218.985 72.9914 219.706H71.8334C71.8662 218.417 73.0569 217.543 74.5317 217.543C76.0829 217.543 77.0661 218.526 77.0552 219.695C77.0661 220.591 76.509 221.246 75.6569 221.454V221.509C76.7384 221.662 77.3611 222.383 77.3611 223.388C77.3611 224.709 76.1485 225.671 74.5099 225.671ZM81.6871 217.652V225.562H80.4745V218.854H80.4308L78.5409 220.088V218.941L80.5073 217.652H81.6871ZM89.4324 217.652V225.562H88.2198V218.854H88.1761L86.2862 220.088V218.941L88.2526 217.652H89.4324ZM94.25 225.671C92.6113 225.671 91.4424 224.786 91.3987 223.497H92.6223C92.666 224.196 93.3542 224.633 94.239 224.633C95.1895 224.633 95.8886 224.109 95.8886 223.344C95.8886 222.568 95.2332 222 94.108 222H93.4307V221.017H94.108C95.0037 221.017 95.6373 220.515 95.6373 219.761C95.6373 219.04 95.1021 218.548 94.2609 218.548C93.4634 218.548 92.7643 218.985 92.7315 219.706H91.5735C91.6063 218.417 92.797 217.543 94.2718 217.543C95.8231 217.543 96.8062 218.526 96.7953 219.695C96.8062 220.591 96.2491 221.246 95.397 221.454V221.509C96.4785 221.662 97.1012 222.383 97.1012 223.388C97.1012 224.709 95.8886 225.671 94.25 225.671ZM99.1987 224.546C98.7726 224.546 98.4121 224.196 98.423 223.77C98.4121 223.344 98.7726 222.994 99.1987 222.994C99.6138 222.994 99.9743 223.344 99.9743 223.77C99.9743 224.196 99.6138 224.546 99.1987 224.546ZM99.1987 220.23C98.7726 220.23 98.4121 219.881 98.423 219.455C98.4121 219.029 98.7726 218.679 99.1987 218.679C99.6138 218.679 99.9743 219.029 99.9743 219.455C99.9743 219.881 99.6138 220.23 99.1987 220.23ZM104.125 225.671C102.29 225.671 101.22 224.196 101.22 221.607C101.22 219.04 102.312 217.543 104.125 217.543C105.939 217.543 107.031 219.04 107.031 221.607C107.031 224.196 105.95 225.671 104.125 225.671ZM104.125 224.633C105.196 224.633 105.83 223.584 105.83 221.607C105.83 219.641 105.185 218.559 104.125 218.559C103.066 218.559 102.421 219.641 102.421 221.607C102.421 223.584 103.055 224.633 104.125 224.633ZM111.03 225.671C109.194 225.671 108.124 224.196 108.124 221.607C108.124 219.04 109.216 217.543 111.03 217.543C112.843 217.543 113.935 219.04 113.935 221.607C113.935 224.196 112.854 225.671 111.03 225.671ZM111.03 224.633C112.1 224.633 112.734 223.584 112.734 221.607C112.734 219.641 112.089 218.559 111.03 218.559C109.97 218.559 109.325 219.641 109.325 221.607C109.325 223.584 109.959 224.633 111.03 224.633Z" fill="#A3A3A3"/>
<rect x="25.5692" y="238.15" width="121.453" height="23.1719" rx="6.39225" fill="#FFF9F1"/>
<path d="M53.3986 245.773V253.697" stroke="#FF6200" stroke-width="1.13196" stroke-linecap="round" stroke-linejoin="round"/>
<path d="M49.4368 249.735H57.3605" stroke="#FF6200" stroke-width="1.13196" stroke-linecap="round" stroke-linejoin="round"/>
<path d="M73.5381 244.333V254.208H72.3255V244.333H73.5381ZM65.3558 251.466C66.1423 251.461 67.0327 251.461 67.9667 251.433V250.527C66.8524 250.352 66.1314 249.669 66.1314 248.735C66.1314 247.621 67.1146 246.878 68.5566 246.878C70.0095 246.878 71.0146 247.621 71.0146 248.735C71.0146 249.664 70.2881 250.341 69.1793 250.516V251.39C70.0478 251.351 70.9217 251.28 71.7465 251.171L71.8339 252.078C69.66 252.449 67.3112 252.471 65.5306 252.471L65.3558 251.466ZM71.5717 245.469V246.43H65.5634V245.469H67.9667V244.365H69.1793V245.469H71.5717ZM68.5566 247.806C67.8138 247.817 67.2785 248.156 67.2894 248.735C67.2785 249.303 67.8138 249.642 68.5566 249.631C69.3322 249.642 69.8457 249.303 69.8457 248.735C69.8457 248.156 69.3322 247.817 68.5566 247.806ZM83.0422 245.239V246.19C83.0312 247.413 83.0312 248.79 82.6489 250.854L81.4254 250.723C81.8077 248.801 81.8077 247.397 81.8186 246.212H75.9195V245.239H83.0422ZM83.9816 251.936V252.93H74.9801V251.936H78.301V248.506H79.5027V251.936H83.9816ZM90.8421 246.048C90.8421 247.26 91.6286 248.462 93.1799 248.975L92.5681 249.915C91.4648 249.549 90.6782 248.806 90.2522 247.883C89.8097 248.893 88.9904 249.696 87.8379 250.09L87.1934 249.15C88.7883 248.626 89.6186 247.348 89.6186 246.048V245.928H87.532V244.955H92.8958V245.928H90.8421V246.048ZM95.0916 244.333V246.801H96.4681V247.817H95.0916V250.286H93.879V244.333H95.0916ZM95.0916 250.745V254.208H93.879V251.717H88.5152V250.745H95.0916ZM100.587 245.753C100.576 247.096 101.362 248.32 102.913 248.812L102.258 249.762C101.182 249.385 100.428 248.67 100.008 247.73C99.5705 248.806 98.7458 249.653 97.5496 250.068L96.905 249.085C98.5437 248.549 99.363 247.228 99.363 245.807V244.868H100.587V245.753ZM105.24 244.333V250.144H104.028V247.238H102.061V246.244H104.028V244.333H105.24ZM101.897 250.406C103.995 250.406 105.273 251.106 105.273 252.307C105.273 253.509 103.995 254.197 101.897 254.197C99.8109 254.197 98.5327 253.509 98.5437 252.307C98.5327 251.106 99.8109 250.406 101.897 250.406ZM101.897 251.346C100.521 251.346 99.7453 251.685 99.7453 252.307C99.7453 252.908 100.521 253.247 101.897 253.247C103.274 253.247 104.06 252.908 104.06 252.307C104.06 251.685 103.274 251.346 101.897 251.346ZM114.373 244.333V248.265H115.891V249.27H114.373V254.208H113.171V244.333H114.373ZM112.407 245.851V246.823H106.584V245.851H108.922V244.475H110.134V245.851H112.407ZM109.533 247.468C110.954 247.468 112.013 248.429 112.013 249.795C112.013 251.16 110.954 252.111 109.533 252.111C108.091 252.111 107.032 251.16 107.043 249.795C107.032 248.429 108.091 247.468 109.533 247.468ZM109.533 248.462C108.758 248.462 108.201 248.986 108.201 249.795C108.201 250.603 108.758 251.117 109.533 251.106C110.287 251.117 110.844 250.603 110.855 249.795C110.844 248.986 110.287 248.462 109.533 248.462ZM124.554 244.333V254.208H123.331V244.333H124.554ZM121.605 245.381C121.605 248.32 120.469 250.822 117.006 252.46L116.372 251.488C118.956 250.259 120.157 248.588 120.37 246.343H116.875V245.381H121.605Z" fill="#FF6200"/>
<rect x="169.794" y="183.378" width="146.223" height="87.8934" rx="5.99273" fill="white"/>
<rect x="169.794" y="183.378" width="146.223" height="87.8934" rx="5.99273" stroke="#E8E8E8" stroke-width="0.799031"/>
<path d="M192.619 195.769V204.524H191.146V200.133H189.024V198.939H191.146V195.769H192.619ZM192.924 206.314V207.508H184.753V203.754H186.225V206.314H192.924ZM186.981 198.156C186.981 199.602 187.949 201.088 189.807 201.698L189.064 202.879C187.724 202.421 186.775 201.512 186.251 200.372C185.721 201.638 184.719 202.64 183.307 203.131L182.551 201.937C184.461 201.313 185.482 199.735 185.482 198.143V197.825H182.988V196.631H189.462V197.825H186.981V198.156ZM199.851 203.25C202.451 203.263 204.096 204.086 204.11 205.505C204.096 206.898 202.451 207.734 199.851 207.734C197.265 207.734 195.607 206.898 195.607 205.505C195.607 204.086 197.265 203.263 199.851 203.25ZM199.851 204.364C198.127 204.364 197.079 204.776 197.092 205.505C197.079 206.208 198.127 206.593 199.851 206.593C201.589 206.593 202.637 206.208 202.65 205.505C202.637 204.776 201.589 204.364 199.851 204.364ZM204.03 196.326V197.321C204.03 198.262 204.03 199.271 203.698 200.504L202.239 200.372C202.538 199.204 202.558 198.362 202.558 197.493H195.726V196.326H204.03ZM205.356 201.194V202.388H194.479V201.194H198.697V199.019H200.157V201.194H205.356ZM219.702 195.755V207.747H218.217V195.755H219.702ZM216.121 197.029C216.121 200.597 214.741 203.635 210.536 205.625L209.767 204.444C212.904 202.952 214.363 200.922 214.622 198.196H210.377V197.029H216.121ZM232.52 205.121V206.328H221.563V205.121H226.298V202.64H227.758V205.121H232.52ZM231.538 197.493V198.687H227.797C227.897 200.179 229.456 201.552 232.042 201.897L231.498 203.051C229.422 202.759 227.824 201.837 227.028 200.517C226.232 201.837 224.647 202.759 222.571 203.051L222.014 201.897C224.614 201.552 226.166 200.179 226.285 198.687H222.531V197.493H226.298V195.941H227.758V197.493H231.538ZM247.755 205.067V206.301H236.798V205.067H247.755ZM246.8 196.87V198.05H245.049V201.871H246.76V203.038H237.739V201.871H239.424V198.05H237.7V196.87H246.8ZM240.897 201.871H243.589V198.05H240.897V201.871ZM259.63 205.134V206.354H248.673V205.134H253.395V203.184H249.973V199.257H256.871V197.772H249.947V196.578H258.33V200.425H251.445V201.977H258.609V203.184H254.855V205.134H259.63ZM268.441 196.007V202.985H267.035V199.96H265.536V198.766H267.035V196.007H268.441ZM264.25 198.329C264.25 199.615 264.966 200.915 266.491 201.526L265.749 202.653C264.687 202.242 263.971 201.473 263.56 200.544C263.122 201.585 262.359 202.441 261.225 202.905L260.456 201.751C262.061 201.114 262.817 199.695 262.817 198.329V197.851H260.801V196.671H266.146V197.851H264.25V198.329ZM270.803 195.755V203.064H269.396V195.755H270.803ZM270.803 203.542V207.747H269.33V204.723H262.591V203.542H270.803ZM282.174 202.043V203.21H273.764V196.697H282.068V197.891H275.263V199.337H281.789V200.491H275.263V202.043H282.174ZM283.381 205.081V206.288H272.424V205.081H283.381Z" fill="#343434"/>
<path d="M182.878 225.562V224.688L185.62 221.924C186.483 221.017 186.92 220.515 186.92 219.826C186.92 219.051 186.287 218.548 185.456 218.548C184.582 218.548 184.014 219.105 184.014 219.946H182.878C182.867 218.504 183.971 217.543 185.478 217.543C187.008 217.543 188.056 218.504 188.067 219.794C188.056 220.678 187.641 221.378 186.156 222.841L184.55 224.469V224.535H188.198V225.562H182.878ZM192.284 225.671C190.449 225.671 189.378 224.196 189.378 221.607C189.378 219.04 190.471 217.543 192.284 217.543C194.097 217.543 195.19 219.04 195.19 221.607C195.19 224.196 194.108 225.671 192.284 225.671ZM192.284 224.633C193.355 224.633 193.988 223.584 193.988 221.607C193.988 219.641 193.344 218.559 192.284 218.559C191.224 218.559 190.58 219.641 190.58 221.607C190.58 223.584 191.213 224.633 192.284 224.633ZM196.435 225.562V224.688L199.177 221.924C200.04 221.017 200.477 220.515 200.477 219.826C200.477 219.051 199.844 218.548 199.013 218.548C198.139 218.548 197.571 219.105 197.571 219.946H196.435C196.424 218.504 197.528 217.543 199.035 217.543C200.565 217.543 201.613 218.504 201.624 219.794C201.613 220.678 201.198 221.378 199.712 222.841L198.107 224.469V224.535H201.755V225.562H196.435ZM205.775 225.671C204.279 225.671 203.154 224.753 203.099 223.497H204.268C204.333 224.174 204.978 224.666 205.775 224.666C206.737 224.666 207.425 223.967 207.425 223.027C207.425 222.066 206.715 221.367 205.721 221.356C205.087 221.356 204.607 221.563 204.333 222.055H203.197L203.711 217.652H208.19V218.679H204.705L204.443 220.897H204.519C204.847 220.58 205.404 220.362 206.005 220.362C207.491 220.362 208.594 221.465 208.594 222.994C208.594 224.556 207.425 225.671 205.775 225.671ZM210.364 225.638C209.938 225.638 209.577 225.288 209.588 224.862C209.577 224.436 209.938 224.087 210.364 224.087C210.779 224.087 211.139 224.436 211.139 224.862C211.139 225.288 210.779 225.638 210.364 225.638ZM214.996 225.671C213.16 225.671 212.09 224.196 212.09 221.607C212.09 219.04 213.182 217.543 214.996 217.543C216.809 217.543 217.901 219.04 217.901 221.607C217.901 224.196 216.82 225.671 214.996 225.671ZM214.996 224.633C216.066 224.633 216.7 223.584 216.7 221.607C216.7 219.641 216.055 218.559 214.996 218.559C213.936 218.559 213.291 219.641 213.291 221.607C213.291 223.584 213.925 224.633 214.996 224.633ZM221.834 225.671C220.337 225.671 219.212 224.753 219.158 223.497H220.327C220.392 224.174 221.037 224.666 221.834 224.666C222.795 224.666 223.484 223.967 223.484 223.027C223.484 222.066 222.774 221.367 221.779 221.356C221.146 221.356 220.665 221.563 220.392 222.055H219.256L219.769 217.652H224.248V218.679H220.764L220.501 220.897H220.578C220.906 220.58 221.463 220.362 222.064 220.362C223.549 220.362 224.653 221.465 224.653 222.994C224.653 224.556 223.484 225.671 221.834 225.671ZM226.422 225.638C225.996 225.638 225.636 225.288 225.647 224.862C225.636 224.436 225.996 224.087 226.422 224.087C226.837 224.087 227.198 224.436 227.198 224.862C227.198 225.288 226.837 225.638 226.422 225.638ZM231.12 225.671C229.481 225.671 228.312 224.786 228.268 223.497H229.492C229.536 224.196 230.224 224.633 231.109 224.633C232.059 224.633 232.758 224.109 232.758 223.344C232.758 222.568 232.103 222 230.978 222H230.3V221.017H230.978C231.873 221.017 232.507 220.515 232.507 219.761C232.507 219.04 231.972 218.548 231.131 218.548C230.333 218.548 229.634 218.985 229.601 219.706H228.443C228.476 218.417 229.667 217.543 231.142 217.543C232.693 217.543 233.676 218.526 233.665 219.695C233.676 220.591 233.119 221.246 232.267 221.454V221.509C233.348 221.662 233.971 222.383 233.971 223.388C233.971 224.709 232.758 225.671 231.12 225.671ZM238.297 217.652V225.562H237.084V218.854H237.041L235.151 220.088V218.941L237.117 217.652H238.297ZM246.042 217.652V225.562H244.83V218.854H244.786L242.896 220.088V218.941L244.862 217.652H246.042ZM250.86 225.671C249.221 225.671 248.052 224.786 248.009 223.497H249.232C249.276 224.196 249.964 224.633 250.849 224.633C251.799 224.633 252.498 224.109 252.498 223.344C252.498 222.568 251.843 222 250.718 222H250.041V221.017H250.718C251.614 221.017 252.247 220.515 252.247 219.761C252.247 219.04 251.712 218.548 250.871 218.548C250.073 218.548 249.374 218.985 249.341 219.706H248.183C248.216 218.417 249.407 217.543 250.882 217.543C252.433 217.543 253.416 218.526 253.405 219.695C253.416 220.591 252.859 221.246 252.007 221.454V221.509C253.088 221.662 253.711 222.383 253.711 223.388C253.711 224.709 252.498 225.671 250.86 225.671ZM255.809 224.546C255.382 224.546 255.022 224.196 255.033 223.77C255.022 223.344 255.382 222.994 255.809 222.994C256.224 222.994 256.584 223.344 256.584 223.77C256.584 224.196 256.224 224.546 255.809 224.546ZM255.809 220.23C255.382 220.23 255.022 219.881 255.033 219.455C255.022 219.029 255.382 218.679 255.809 218.679C256.224 218.679 256.584 219.029 256.584 219.455C256.584 219.881 256.224 220.23 255.809 220.23ZM260.735 225.671C258.9 225.671 257.829 224.196 257.829 221.607C257.829 219.04 258.922 217.543 260.735 217.543C262.549 217.543 263.641 219.04 263.641 221.607C263.641 224.196 262.56 225.671 260.735 225.671ZM260.735 224.633C261.806 224.633 262.44 223.584 262.44 221.607C262.44 219.641 261.795 218.559 260.735 218.559C259.676 218.559 259.031 219.641 259.031 221.607C259.031 223.584 259.665 224.633 260.735 224.633ZM267.639 225.671C265.804 225.671 264.734 224.196 264.734 221.607C264.734 219.04 265.826 217.543 267.639 217.543C269.453 217.543 270.545 219.04 270.545 221.607C270.545 224.196 269.464 225.671 267.639 225.671ZM267.639 224.633C268.71 224.633 269.344 223.584 269.344 221.607C269.344 219.641 268.699 218.559 267.639 218.559C266.58 218.559 265.935 219.641 265.935 221.607C265.935 223.584 266.569 224.633 267.639 224.633Z" fill="#A3A3A3"/>
<rect x="182.179" y="238.15" width="121.453" height="23.1719" rx="6.39225" fill="#FFF9F1"/>
<path d="M210.009 245.773V253.697" stroke="#FF6200" stroke-width="1.13196" stroke-linecap="round" stroke-linejoin="round"/>
<path d="M206.046 249.735H213.97" stroke="#FF6200" stroke-width="1.13196" stroke-linecap="round" stroke-linejoin="round"/>
<path d="M230.148 244.333V254.208H228.935V244.333H230.148ZM221.966 251.466C222.752 251.461 223.643 251.461 224.577 251.433V250.527C223.462 250.352 222.741 249.669 222.741 248.735C222.741 247.621 223.724 246.878 225.166 246.878C226.619 246.878 227.624 247.621 227.624 248.735C227.624 249.664 226.898 250.341 225.789 250.516V251.39C226.658 251.351 227.532 251.28 228.356 251.171L228.444 252.078C226.27 252.449 223.921 252.471 222.14 252.471L221.966 251.466ZM228.182 245.469V246.43H222.173V245.469H224.577V244.365H225.789V245.469H228.182ZM225.166 247.806C224.424 247.817 223.888 248.156 223.899 248.735C223.888 249.303 224.424 249.642 225.166 249.631C225.942 249.642 226.456 249.303 226.456 248.735C226.456 248.156 225.942 247.817 225.166 247.806ZM239.652 245.239V246.19C239.641 247.413 239.641 248.79 239.259 250.854L238.035 250.723C238.418 248.801 238.418 247.397 238.429 246.212H232.529V245.239H239.652ZM240.592 251.936V252.93H231.59V251.936H234.911V248.506H236.113V251.936H240.592ZM247.452 246.048C247.452 247.26 248.238 248.462 249.79 248.975L249.178 249.915C248.075 249.549 247.288 248.806 246.862 247.883C246.42 248.893 245.6 249.696 244.448 250.09L243.803 249.15C245.398 248.626 246.228 247.348 246.228 246.048V245.928H244.142V244.955H249.506V245.928H247.452V246.048ZM251.701 244.333V246.801H253.078V247.817H251.701V250.286H250.489V244.333H251.701ZM251.701 250.745V254.208H250.489V251.717H245.125V250.745H251.701ZM257.196 245.753C257.185 247.096 257.972 248.32 259.523 248.812L258.868 249.762C257.792 249.385 257.038 248.67 256.617 247.73C256.18 248.806 255.356 249.653 254.159 250.068L253.515 249.085C255.154 248.549 255.973 247.228 255.973 245.807V244.868H257.196V245.753ZM261.85 244.333V250.144H260.638V247.238H258.671V246.244H260.638V244.333H261.85ZM258.507 250.406C260.605 250.406 261.883 251.106 261.883 252.307C261.883 253.509 260.605 254.197 258.507 254.197C256.421 254.197 255.143 253.509 255.154 252.307C255.143 251.106 256.421 250.406 258.507 250.406ZM258.507 251.346C257.131 251.346 256.355 251.685 256.355 252.307C256.355 252.908 257.131 253.247 258.507 253.247C259.884 253.247 260.67 252.908 260.67 252.307C260.67 251.685 259.884 251.346 258.507 251.346ZM270.983 244.333V248.265H272.501V249.27H270.983V254.208H269.781V244.333H270.983ZM269.016 245.851V246.823H263.194V245.851H265.532V244.475H266.744V245.851H269.016ZM266.143 247.468C267.563 247.468 268.623 248.429 268.623 249.795C268.623 251.16 267.563 252.111 266.143 252.111C264.701 252.111 263.642 251.16 263.653 249.795C263.642 248.429 264.701 247.468 266.143 247.468ZM266.143 248.462C265.368 248.462 264.811 248.986 264.811 249.795C264.811 250.603 265.368 251.117 266.143 251.106C266.897 251.117 267.454 250.603 267.465 249.795C267.454 248.986 266.897 248.462 266.143 248.462ZM281.164 244.333V254.208H279.941V244.333H281.164ZM278.215 245.381C278.215 248.32 277.078 250.822 273.616 252.46L272.982 251.488C275.565 250.259 276.767 248.588 276.98 246.343H273.484V245.381H278.215Z" fill="#FF6200"/>
<rect x="13.1842" y="327.203" width="288.45" height="100.678" rx="5.99273" fill="white"/>
<rect x="13.1842" y="327.203" width="288.45" height="100.678" rx="5.99273" stroke="#E8E8E8" stroke-width="0.799031"/>
<rect x="25.5692" y="338.789" width="58.5884" height="18.9903" rx="6.39225" fill="#FFF9F1"/>
<path d="M31.1125 351.784V345.005H31.9552V348.357H32.0395L35.0546 345.005H36.1595L33.3223 348.067L36.1595 351.784H35.1295L32.798 348.647L31.9552 349.602V351.784H31.1125ZM41.5061 345.005H42.3489V349.49C42.3489 350.885 41.3095 351.906 39.7083 351.906C38.1071 351.906 37.0678 350.885 37.0678 349.49V345.005H37.9105V349.425C37.9105 350.408 38.594 351.119 39.7083 351.119C40.832 351.119 41.5061 350.408 41.5061 349.425V345.005ZM44.6898 345.005V351.784H43.847V345.005H44.6898ZM45.8134 345.754V345.005H50.926V345.754H48.8004V351.784H47.9483V345.754H45.8134ZM58.1921 345.445C58.1921 346.868 59.8214 348.142 61.2728 348.413L60.9357 349.031C59.681 348.741 58.356 347.847 57.8176 346.615C57.2792 347.842 55.9589 348.736 54.6995 349.031L54.3624 348.413C55.8044 348.132 57.4243 346.878 57.4243 345.445V344.808H58.1921V345.445ZM61.6661 350.801V351.41H54.0441V350.801H61.6661ZM69.2319 344.218V352.561H68.5015V347.973H66.7412V347.365H68.5015V344.218H69.2319ZM66.6007 344.986V345.595H63.4545V347.327H66.2355V347.926H63.4545V349.94C64.9855 349.94 65.9593 349.888 67.1063 349.687L67.1906 350.295C65.9827 350.492 64.9621 350.548 63.3515 350.548H62.7148V344.986H66.6007ZM77.4812 344.218V352.561H76.7415V344.218H77.4812ZM75.1216 345.014V345.632H71.9005V349.855C73.5204 349.855 74.5879 349.804 75.8332 349.584L75.9082 350.202C74.616 350.436 73.5204 350.483 71.835 350.492H71.1608V345.014H75.1216Z" fill="#FF6200"/>
<path d="M241.776 351.784L241.766 351.166L244.079 348.732C244.884 347.88 245.268 347.421 245.268 346.793C245.268 346.1 244.678 345.642 243.92 345.642C243.115 345.642 242.6 346.157 242.6 346.915H241.804C241.794 345.717 242.721 344.911 243.948 344.911C245.175 344.911 246.055 345.735 246.055 346.793C246.055 347.552 245.699 348.142 244.501 349.378L242.946 350.979V351.035H246.177V351.784H241.776ZM249.622 351.878C248.115 351.878 247.253 350.614 247.253 348.395C247.253 346.194 248.134 344.911 249.622 344.911C251.111 344.911 251.991 346.194 251.991 348.395C251.991 350.614 251.121 351.878 249.622 351.878ZM249.622 351.129C250.596 351.129 251.167 350.146 251.167 348.395C251.167 346.644 250.596 345.642 249.622 345.642C248.649 345.642 248.068 346.644 248.068 348.395C248.068 350.146 248.639 351.129 249.622 351.129ZM253.115 351.784L253.106 351.166L255.419 348.732C256.224 347.88 256.608 347.421 256.608 346.793C256.608 346.1 256.018 345.642 255.259 345.642C254.454 345.642 253.939 346.157 253.939 346.915H253.143C253.134 345.717 254.061 344.911 255.287 344.911C256.514 344.911 257.394 345.735 257.394 346.793C257.394 347.552 257.038 348.142 255.84 349.378L254.286 350.979V351.035H257.516V351.784H253.115ZM260.952 351.878C259.726 351.878 258.799 351.119 258.752 350.08H259.567C259.632 350.689 260.222 351.138 260.952 351.138C261.833 351.138 262.469 350.492 262.469 349.64C262.469 348.76 261.805 348.114 260.896 348.104C260.325 348.095 259.885 348.273 259.632 348.713H258.818L259.295 345.005H262.966V345.754H259.997L259.745 347.739H259.81C260.11 347.505 260.569 347.346 261.046 347.346C262.338 347.346 263.293 348.301 263.293 349.621C263.293 350.932 262.301 351.878 260.952 351.878ZM264.792 351.84C264.464 351.84 264.183 351.569 264.192 351.232C264.183 350.904 264.464 350.632 264.792 350.632C265.119 350.632 265.391 350.904 265.391 351.232C265.391 351.569 265.119 351.84 264.792 351.84ZM268.621 351.878C267.114 351.878 266.252 350.614 266.252 348.395C266.252 346.194 267.132 344.911 268.621 344.911C270.11 344.911 270.99 346.194 270.99 348.395C270.99 350.614 270.119 351.878 268.621 351.878ZM268.621 351.129C269.595 351.129 270.166 350.146 270.166 348.395C270.166 346.644 269.595 345.642 268.621 345.642C267.647 345.642 267.067 346.644 267.067 348.395C267.067 350.146 267.638 351.129 268.621 351.129ZM274.324 351.878C273.097 351.878 272.17 351.119 272.123 350.08H272.938C273.003 350.689 273.593 351.138 274.324 351.138C275.204 351.138 275.841 350.492 275.841 349.64C275.841 348.76 275.176 348.114 274.268 348.104C273.696 348.095 273.256 348.273 273.003 348.713H272.189L272.666 345.005H276.337V345.754H273.369L273.116 347.739H273.181C273.481 347.505 273.94 347.346 274.417 347.346C275.71 347.346 276.665 348.301 276.665 349.621C276.665 350.932 275.672 351.878 274.324 351.878ZM278.163 351.84C277.835 351.84 277.554 351.569 277.564 351.232C277.554 350.904 277.835 350.632 278.163 350.632C278.491 350.632 278.762 350.904 278.762 351.232C278.762 351.569 278.491 351.84 278.163 351.84ZM282.105 351.878C280.757 351.878 279.792 351.157 279.745 350.08H280.597C280.644 350.726 281.29 351.129 282.096 351.129C282.985 351.129 283.641 350.642 283.641 349.94C283.641 349.2 283.051 348.675 281.993 348.675H281.44V347.936H281.993C282.817 347.936 283.388 347.477 283.388 346.775C283.388 346.1 282.891 345.642 282.124 345.642C281.403 345.642 280.738 346.044 280.7 346.709H279.886C279.933 345.632 280.925 344.911 282.133 344.911C283.425 344.911 284.212 345.754 284.202 346.728C284.212 347.496 283.762 348.067 283.051 348.263V348.31C283.931 348.451 284.474 349.078 284.465 349.94C284.474 351.054 283.453 351.878 282.105 351.878ZM288.079 345.005V351.784H287.227V345.885H287.189L285.541 346.981V346.129L287.227 345.005H288.079Z" fill="#A3A3A3"/>
<path d="M29.9069 378.304C27.5988 378.304 26.2192 376.513 26.2192 373.369C26.2192 370.239 27.5988 368.435 29.9069 368.435C32.2018 368.435 33.5946 370.239 33.5946 373.369C33.5946 376.513 32.2151 378.304 29.9069 378.304ZM29.9069 376.858C31.1141 376.858 31.8569 375.678 31.8569 373.369C31.8569 371.075 31.1008 369.867 29.9069 369.867C28.7131 369.867 27.9569 371.075 27.9569 373.369C27.9569 375.678 28.6998 376.858 29.9069 376.858ZM38.5855 378.304C36.6621 378.304 35.256 377.163 35.2029 375.571H36.8876C36.9406 376.354 37.6702 376.911 38.5855 376.911C39.66 376.911 40.4294 376.129 40.4294 375.067C40.4294 373.966 39.6335 373.184 38.5325 373.184C37.7896 373.17 37.2457 373.436 36.9406 374.006H35.3356L35.9192 368.567H41.5967V370.013H37.3386L37.0468 372.56H37.1396C37.511 372.136 38.2141 371.831 38.9967 371.831C40.7875 371.831 42.1008 373.17 42.1008 375.014C42.1008 376.938 40.6549 378.304 38.5855 378.304ZM47.6223 368.116L44.5315 379.617H43.0458L46.1498 368.116H47.6223ZM52.1887 378.304C50.1326 378.304 48.6734 377.19 48.6336 375.571H50.3713C50.4244 376.341 51.1938 376.845 52.1887 376.845C53.2499 376.845 54.006 376.261 54.006 375.412C54.006 374.55 53.2632 373.927 52.0162 373.927H51.154V372.6H52.0162C53.0376 372.6 53.754 372.03 53.7407 371.194C53.754 370.385 53.1438 369.841 52.2019 369.841C51.2999 369.841 50.5173 370.345 50.4907 371.154H48.8326C48.8724 369.536 50.3316 368.435 52.2152 368.435C54.1652 368.435 55.4254 369.629 55.4121 371.101C55.4254 372.176 54.7091 372.958 53.6611 373.17V373.25C55.0142 373.436 55.7835 374.298 55.7703 375.505C55.7835 377.123 54.2713 378.304 52.1887 378.304ZM61.3183 368.567V378.171H59.5805V370.252H59.5275L57.2857 371.685V370.106L59.6601 368.567H61.3183ZM76.7388 367.36V379.352H75.2663V367.36H76.7388ZM66.8032 376.022C67.7583 376.016 68.8394 376.016 69.9735 375.983V374.882C68.6205 374.669 67.745 373.84 67.745 372.706C67.745 371.353 68.9389 370.451 70.6899 370.451C72.4541 370.451 73.6745 371.353 73.6745 372.706C73.6745 373.834 72.7924 374.656 71.446 374.868V375.93C72.5006 375.883 73.5618 375.797 74.5633 375.664L74.6694 376.765C72.0296 377.216 69.1776 377.243 67.0154 377.243L66.8032 376.022ZM74.351 368.74V369.907H67.0552V368.74H69.9735V367.4H71.446V368.74H74.351ZM70.6899 371.579C69.7878 371.592 69.1378 372.003 69.1511 372.706C69.1378 373.396 69.7878 373.807 70.6899 373.794C71.6317 373.807 72.2551 373.396 72.2551 372.706C72.2551 372.003 71.6317 371.592 70.6899 371.579ZM82.5123 368.196C84.4092 368.183 85.8021 369.39 85.8153 371.088C85.8021 372.799 84.4092 373.993 82.5123 373.993C80.6286 373.993 79.2225 372.799 79.2225 371.088C79.2225 369.39 80.6286 368.183 82.5123 368.196ZM82.5123 369.469C81.4643 369.469 80.6817 370.093 80.6817 371.088C80.6817 372.096 81.4643 372.706 82.5123 372.706C83.5735 372.706 84.3694 372.096 84.3694 371.088C84.3694 370.093 83.5735 369.469 82.5123 369.469ZM88.6143 367.36V379.365H87.1418V367.36H88.6143ZM78.6787 375.651C80.8409 375.651 83.8388 375.624 86.4255 375.253L86.5449 376.328C83.8521 376.845 80.9735 376.858 78.8644 376.858L78.6787 375.651Z" fill="#343434"/>
<path d="M29.5347 391.99C29.5347 393.628 30.6053 395.322 32.1128 395.966L31.5448 396.775C30.3923 396.267 29.4746 395.191 29.0213 393.88C28.5679 395.278 27.6448 396.469 26.5087 397.026L25.9079 396.207C27.3826 395.518 28.4751 393.672 28.486 391.99V390.952H26.2465V390.089H31.7633V390.952H29.5347V391.99ZM34.0355 389.106V398.894H32.9977V389.106H34.0355ZM37.0834 389.805V393.574C38.4107 393.574 39.809 393.486 41.322 393.17L41.4421 394.022C39.8035 394.36 38.296 394.448 36.843 394.448H36.0456V389.805H37.0834ZM43.2883 389.117V391.968H44.7085V392.853H43.2883V396.174H42.2505V389.117H43.2883ZM43.627 397.845V398.686H37.1052V395.486H38.1539V397.845H43.627ZM56.9218 394.623V395.464H52.9454V398.883H51.9294V395.464H47.9967V394.623H56.9218ZM56.0806 389.685V390.515H53.0546C53.071 391.728 54.5786 392.809 56.4302 393.06L56.0479 393.88C54.442 393.628 53.0546 392.836 52.4647 391.717C51.8584 392.836 50.4765 393.628 48.8925 393.88L48.4992 393.06C50.329 392.809 51.8366 391.728 51.8748 390.515H48.8269V389.685H56.0806ZM68.0864 389.117V392.263H69.5065V393.126H68.0864V396.436H67.0486V389.117H68.0864ZM66.2402 390.253V391.094H60.4066V390.253H62.81V389.106H63.8478V390.253H66.2402ZM63.3234 391.564C64.7326 391.564 65.694 392.296 65.694 393.41C65.694 394.524 64.7326 395.245 63.3234 395.245C61.9033 395.245 60.9419 394.524 60.9419 393.41C60.9419 392.296 61.9033 391.564 63.3234 391.564ZM63.3234 392.361C62.4932 392.361 61.936 392.765 61.947 393.41C61.936 394.044 62.4932 394.437 63.3234 394.437C64.1537 394.437 64.7108 394.044 64.7217 393.41C64.7108 392.765 64.1537 392.361 63.3234 392.361ZM68.5015 397.845V398.686H61.8814V395.857H62.9192V397.845H68.5015ZM75.5695 389.433C77.0443 389.444 78.1258 390.351 78.1367 391.629C78.1258 392.918 77.0443 393.814 75.5695 393.814C74.0838 393.814 72.9914 392.918 72.9914 391.629C72.9914 390.351 74.0838 389.444 75.5695 389.433ZM75.5695 390.307C74.6628 390.297 73.9964 390.832 74.0073 391.629C73.9964 392.438 74.6628 392.973 75.5695 392.973C76.4653 392.973 77.1317 392.438 77.1317 391.629C77.1317 390.832 76.4653 390.297 75.5695 390.307ZM80.9115 389.106V394.087H79.8737V389.106H80.9115ZM80.9115 394.535V397.004H75.5149V397.943H81.2392V398.774H74.5098V396.228H79.8846V395.365H74.4771V394.535H80.9115ZM33.5548 402.106V405.896H35.1279V406.749H33.5548V411.916H32.517V402.106H33.5548ZM30.9221 403.045V403.886H27.3826V408.617C29.0267 408.611 30.2612 408.54 31.654 408.289L31.7851 409.163C30.2557 409.436 28.9557 409.491 27.1314 409.48H26.3448V403.045H30.9221ZM40.0548 402.313C42.2068 402.313 43.5505 403.012 43.5505 404.192C43.5505 405.35 42.2068 406.038 40.0548 406.038C37.9136 406.038 36.559 405.35 36.559 404.192C36.559 403.012 37.9136 402.313 40.0548 402.313ZM40.0548 403.133C38.5472 403.133 37.6187 403.515 37.6296 404.192C37.6187 404.848 38.5472 405.219 40.0548 405.23C41.5514 405.219 42.48 404.848 42.48 404.192C42.48 403.515 41.5514 403.133 40.0548 403.133ZM43.4304 408.507V411.774H36.6683V408.507H43.4304ZM37.6951 409.338V410.933H42.4253V409.338H37.6951ZM44.5228 406.792V407.633H35.5977V406.792H44.5228ZM51.5908 404.596C51.5799 406.388 52.6614 408.18 54.1798 408.857L53.5571 409.676C52.4319 409.141 51.5416 408.043 51.0883 406.705C50.6294 408.136 49.7282 409.321 48.5538 409.895L47.9202 409.021C49.4605 408.333 50.542 406.465 50.542 404.596V402.925H51.5908V404.596ZM56.1025 402.106V411.916H55.0647V402.106H56.1025ZM65.3553 402.106V405.001H66.7755V405.864H65.3553V409.217H64.3066V402.106H65.3553ZM62.7007 402.849C62.7007 405.416 60.9529 407.284 58.0907 408.147L57.6537 407.317C59.9424 406.628 61.368 405.328 61.5755 403.712H58.0689V402.849H62.7007ZM65.7595 410.845V411.686H59.1394V408.486H60.1882V410.845H65.7595ZM74.9031 403.723V404.564H70.0418V403.723H71.9645V402.39H72.9914V403.723H74.9031ZM72.4779 405.154C73.7233 405.154 74.5972 406.082 74.6082 407.404C74.5972 408.737 73.7233 409.676 72.4779 409.676C71.2544 409.676 70.3477 408.737 70.3586 407.404C70.3477 406.082 71.2544 405.154 72.4779 405.154ZM72.4779 406.017C71.7679 406.017 71.2763 406.596 71.2763 407.404C71.2763 408.234 71.7679 408.791 72.4779 408.791C73.1771 408.791 73.6905 408.234 73.6905 407.404C73.6905 406.596 73.1771 406.017 72.4779 406.017ZM78.4426 402.106V411.894H77.4594V407.033H76.3342V411.435H75.351V402.324H76.3342V406.181H77.4594V402.106H78.4426ZM82.3535 402.838C83.8173 402.838 84.8551 404.17 84.866 406.268C84.8551 408.376 83.8173 409.709 82.3535 409.709C80.8896 409.709 79.8409 408.376 79.8518 406.268C79.8409 404.17 80.8896 402.838 82.3535 402.838ZM82.3535 403.766C81.4577 403.766 80.8459 404.728 80.8459 406.268C80.8459 407.819 81.4577 408.78 82.3535 408.78C83.2602 408.78 83.8719 407.819 83.8719 406.268C83.8719 404.728 83.2602 403.766 82.3535 403.766ZM88.8752 404.498V405.383H87.3568V407.415H88.8752V408.267H87.3568V411.894H86.319V402.106H87.3568V404.498H88.8752ZM97.0903 402.073V404.367H98.5213V405.219H97.0903V407.459H96.0525V402.073H97.0903ZM97.0903 407.917V410.19H91.8029V411.009H97.4289V411.796H90.787V409.458H96.0634V408.693H90.7651V407.917H97.0903ZM95.2441 402.936V403.755H89.4105V402.936H91.8139V402.018H92.8517V402.936H95.2441ZM92.3273 404.127C93.7584 404.127 94.6979 404.739 94.6979 405.733C94.6979 406.727 93.7584 407.328 92.3273 407.328C90.8853 407.328 89.9458 406.727 89.9458 405.733C89.9458 404.739 90.8853 404.127 92.3273 404.127ZM92.3273 404.87C91.4861 404.87 90.9399 405.208 90.9508 405.733C90.9399 406.257 91.4861 406.574 92.3273 406.574C93.1685 406.574 93.7147 406.257 93.7256 405.733C93.7147 405.208 93.1685 404.87 92.3273 404.87ZM104.573 402.433C106.048 402.444 107.13 403.351 107.141 404.629C107.13 405.918 106.048 406.814 104.573 406.814C103.088 406.814 101.995 405.918 101.995 404.629C101.995 403.351 103.088 402.444 104.573 402.433ZM104.573 403.307C103.667 403.297 103 403.832 103.011 404.629C103 405.438 103.667 405.973 104.573 405.973C105.469 405.973 106.136 405.438 106.136 404.629C106.136 403.832 105.469 403.297 104.573 403.307ZM109.915 402.106V407.087H108.878V402.106H109.915ZM109.915 407.535V410.004H104.519V410.943H110.243V411.774H103.514V409.228H108.888V408.365H103.481V407.535H109.915Z" fill="#A3A3A3"/>
</g>
<defs>
<clipPath id="clip0_110_6797">
<rect width="314.462" height="438" rx="15.9806" fill="white"/>
</clipPath>
</defs>
</svg>
