<svg width="12" height="12" viewBox="0 0 12 12" fill="none" xmlns="http://www.w3.org/2000/svg">
<path fill-rule="evenodd" clip-rule="evenodd" d="M8.33496 6.56494C9.01996 7.02994 9.49996 7.65994 9.49996 8.49994V9.99994H11.5V8.49994C11.5 7.40994 9.71496 6.76494 8.33496 6.56494Z" fill="currentColor"/>
<path d="M4.5 6C5.60457 6 6.5 5.10457 6.5 4C6.5 2.89543 5.60457 2 4.5 2C3.39543 2 2.5 2.89543 2.5 4C2.5 5.10457 3.39543 6 4.5 6Z" fill="currentColor"/>
<path fill-rule="evenodd" clip-rule="evenodd" d="M7.5 6C8.605 6 9.5 5.105 9.5 4C9.5 2.895 8.605 2 7.5 2C7.265 2 7.045 2.05 6.835 2.12C7.26526 2.65211 7.49998 3.3157 7.49998 4C7.49998 4.6843 7.26526 5.34789 6.835 5.88C7.045 5.95 7.265 6 7.5 6ZM4.5 6.5C3.165 6.5 0.5 7.17 0.5 8.5V10H8.5V8.5C8.5 7.17 5.835 6.5 4.5 6.5Z" fill="currentColor"/>
</svg>
