<svg width="25" height="24" viewBox="0 0 25 24" fill="none" xmlns="http://www.w3.org/2000/svg">
<path d="M12.4001 21C10.3001 21 8.44181 20.3627 6.82515 19.088C5.20848 17.8133 4.15848 16.184 3.67515 14.2C3.60848 13.95 3.65848 13.721 3.82515 13.513C3.99181 13.305 4.21681 13.184 4.50015 13.15C4.76681 13.1167 5.00848 13.1667 5.22515 13.3C5.44181 13.4333 5.59181 13.6333 5.67515 13.9C6.07515 15.4 6.90015 16.625 8.15015 17.575C9.40015 18.525 10.8168 19 12.4001 19C14.3501 19 16.0045 18.321 17.3631 16.963C18.7218 15.605 19.4008 13.9507 19.4001 12C19.3995 10.0493 18.7205 8.39533 17.3631 7.038C16.0058 5.68067 14.3515 5.00133 12.4001 5C11.2501 5 10.1751 5.26667 9.17515 5.8C8.17515 6.33333 7.33348 7.06667 6.65015 8H8.40015C8.68348 8 8.92115 8.096 9.11315 8.288C9.30515 8.48 9.40081 8.71733 9.40015 9C9.39948 9.28267 9.30348 9.52033 9.11215 9.713C8.92081 9.90567 8.68348 10.0013 8.40015 10H4.40015C4.11681 10 3.87948 9.904 3.68815 9.712C3.49681 9.52 3.40081 9.28267 3.40015 9V5C3.40015 4.71667 3.49615 4.47933 3.68815 4.288C3.88015 4.09667 4.11748 4.00067 4.40015 4C4.68281 3.99933 4.92048 4.09533 5.11315 4.288C5.30581 4.48067 5.40148 4.718 5.40015 5V6.35C6.25015 5.28333 7.28781 4.45833 8.51315 3.875C9.73848 3.29167 11.0341 3 12.4001 3C13.6501 3 14.8211 3.23767 15.9131 3.713C17.0051 4.18833 17.9551 4.82967 18.7631 5.637C19.5711 6.44433 20.2128 7.39433 20.6881 8.487C21.1635 9.57967 21.4008 10.7507 21.4001 12C21.3995 13.2493 21.1621 14.4203 20.6881 15.513C20.2141 16.6057 19.5725 17.5557 18.7631 18.363C17.9538 19.1703 17.0038 19.812 15.9131 20.288C14.8225 20.764 13.6515 21.0013 12.4001 21ZM13.4001 11.6L15.9001 14.1C16.0835 14.2833 16.1751 14.5167 16.1751 14.8C16.1751 15.0833 16.0835 15.3167 15.9001 15.5C15.7168 15.6833 15.4835 15.775 15.2001 15.775C14.9168 15.775 14.6835 15.6833 14.5001 15.5L11.7001 12.7C11.6001 12.6 11.5251 12.4877 11.4751 12.363C11.4251 12.2383 11.4001 12.109 11.4001 11.975V8C11.4001 7.71667 11.4961 7.47933 11.6881 7.288C11.8801 7.09667 12.1175 7.00067 12.4001 7C12.6828 6.99933 12.9205 7.09533 13.1131 7.288C13.3058 7.48067 13.4015 7.718 13.4001 8V11.6Z" fill="currentColor"/>
</svg>
