<svg width="85" height="85" viewBox="0 0 85 85" fill="none" xmlns="http://www.w3.org/2000/svg">
<rect width="85" height="85" fill="white"/>
<g filter="url(#filter0_d_1169_8137)">
<path d="M36.4437 13.6705L6.44582 63.7496C5.82733 64.8207 5.50007 66.0351 5.49661 67.2719C5.49315 68.5087 5.8136 69.7249 6.42608 70.7994C7.03856 71.8739 7.92172 72.7694 8.9877 73.3966C10.0537 74.0238 11.2653 74.361 12.5021 74.3746H72.4979C73.7346 74.361 74.9463 74.0238 76.0123 73.3966C77.0782 72.7694 77.9614 71.8739 78.5739 70.7994C79.1864 69.7249 79.5068 68.5087 79.5034 67.2719C79.4999 66.0351 79.1726 64.8207 78.5541 63.7496L48.5562 13.6705C47.9249 12.6296 47.0359 11.769 45.975 11.1718C44.9142 10.5745 43.7174 10.2607 42.5 10.2607C41.2826 10.2607 40.0857 10.5745 39.0249 11.1718C37.9641 11.769 37.0751 12.6296 36.4437 13.6705Z" fill="#FFF9F1"/>
</g>
<path d="M42.5 31.875V46.0417" stroke="#FF6200" stroke-width="5" stroke-linecap="round" stroke-linejoin="round"/>
<path d="M42.5 60.208H42.5354" stroke="#FF6200" stroke-width="5" stroke-linecap="round" stroke-linejoin="round"/>
<defs>
<filter id="filter0_d_1169_8137" x="5.49658" y="10.2607" width="78.0068" height="68.1143" filterUnits="userSpaceOnUse" color-interpolation-filters="sRGB">
<feFlood flood-opacity="0" result="BackgroundImageFix"/>
<feColorMatrix in="SourceAlpha" type="matrix" values="0 0 0 0 0 0 0 0 0 0 0 0 0 0 0 0 0 0 127 0" result="hardAlpha"/>
<feOffset dx="2" dy="2"/>
<feGaussianBlur stdDeviation="1"/>
<feComposite in2="hardAlpha" operator="out"/>
<feColorMatrix type="matrix" values="0 0 0 0 0 0 0 0 0 0 0 0 0 0 0 0 0 0 0.25 0"/>
<feBlend mode="normal" in2="BackgroundImageFix" result="effect1_dropShadow_1169_8137"/>
<feBlend mode="normal" in="SourceGraphic" in2="effect1_dropShadow_1169_8137" result="shape"/>
</filter>
</defs>
</svg>
