<svg width="60" height="60" viewBox="0 0 60 60" fill="none" xmlns="http://www.w3.org/2000/svg">
<circle cx="30" cy="30" r="30" fill="#494949"/>
<path d="M31.0833 22.025L35.75 26.6917M34 36.6083H41M37.5 33.1083V40.1083M20 37.775H24.6667L36.9167 25.525C37.2231 25.2186 37.4661 24.8548 37.632 24.4545C37.7978 24.0541 37.8832 23.625 37.8832 23.1917C37.8832 22.7583 37.7978 22.3292 37.632 21.9289C37.4661 21.5285 37.2231 21.1648 36.9167 20.8583C36.6102 20.5519 36.2465 20.3089 35.8461 20.143C35.4458 19.9772 35.0167 19.8918 34.5833 19.8918C34.15 19.8918 33.7209 19.9772 33.3205 20.143C32.9202 20.3089 32.5564 20.5519 32.25 20.8583L20 33.1083V37.775Z" stroke="white" stroke-width="2" stroke-linecap="round" stroke-linejoin="round"/>
</svg>
